M48
; DRILL file {KiCad 8.0.3} date 2024-06-19T01:19:57-0500
; FORMAT={-:-/ absolute / inch / decimal}
; #@! TF.CreationDate,2024-06-19T01:19:57-05:00
; #@! TF.GenerationSoftware,Kicad,Pcbnew,8.0.3
; #@! TF.FileFunction,Plated,1,4,PTH
FMAT,2
INCH
; #@! TA.AperFunction,Plated,PTH,ViaDrill
T1C0.0118
; #@! TA.AperFunction,Plated,PTH,ComponentDrill
T2C0.0157
; #@! TA.AperFunction,Plated,PTH,ComponentDrill
T3C0.0197
; #@! TA.AperFunction,Plated,PTH,ComponentDrill
T4C0.0217
; #@! TA.AperFunction,Plated,PTH,ComponentDrill
T5C0.0256
; #@! TA.AperFunction,Plated,PTH,ComponentDrill
T6C0.0394
; #@! TA.AperFunction,Plated,PTH,ComponentDrill
T7C0.1260
%
G90
G05
T1
X4.4528Y-3.7906
X4.4756Y-4.1102
X4.4984Y-3.7677
X4.4984Y-3.9047
X4.5197Y-3.2992
X4.5213Y-3.4
X4.5217Y-3.9488
X4.5335Y-3.8583
X4.5669Y-2.9685
X4.5669Y-4.0646
X4.5898Y-4.0874
X4.6126Y-3.9276
X4.6354Y-4.0189
X4.6583Y-3.9732
X4.6811Y-4.0417
X4.7039Y-3.9961
X4.7323Y-5.2913
X4.7717Y-3.2913
X4.7835Y-3.1102
X4.8268Y-3.7362
X4.8504Y-5.3386
X4.8898Y-3.7205
X4.9134Y-3.6969
X4.978Y-3.8591
X4.978Y-3.9047
X4.978Y-3.9732
X4.978Y-4.0189
X4.978Y-4.0646
X5.0008Y-3.8819
X5.0008Y-3.9961
X5.0008Y-4.0417
X5.0008Y-4.0874
X5.0079Y-5.4193
X5.0465Y-3.6764
X5.0472Y-3.9488
X5.1181Y-4.2008
X5.1299Y-4.2756
X5.1417Y-3.6457
X5.1693Y-3.622
X5.2185Y-4.5098
X5.2323Y-4.0236
X5.252Y-4.0748
X5.2551Y-4.9508
X5.2697Y-3.7736
X5.2717Y-3.689
X5.2756Y-3.9016
X5.2874Y-4.0748
X5.2886Y-4.3343
X5.2945Y-3.7264
X5.3031Y-3.8819
X5.3268Y-4.2343
X5.3307Y-3.75
X5.3346Y-3.8937
X5.3366Y-4.5079
X5.3393Y-3.9939
X5.3661Y-4.2343
X5.3701Y-4.3327
X5.3819Y-3.9961
X5.3898Y-4.0787
X5.3898Y-5.5118
X5.4016Y-4.3445
X5.4134Y-4.1181
X5.4409Y-5.1693
X5.4449Y-5.4173
X5.4535Y-4.1433
X5.4567Y-4.5059
X5.563Y-2.9921
X5.5634Y-3.5429
X5.565Y-4.5453
X5.5693Y-4.0421
X5.5693Y-4.1012
X5.5866Y-3.2559
X5.5886Y-4.1736
X5.5984Y-4.0815
X5.6142Y-5.3346
X5.6213Y-4.0594
X5.6398Y-3.7776
X5.6594Y-4.5413
X5.6693Y-3.7657
X5.6988Y-3.6949
X5.7161Y-4.3835
X5.7161Y-4.4154
X5.7161Y-4.4472
X5.7303Y-3.6988
X5.7689Y-4.5835
X5.7736Y-4.0364
X5.7874Y-2.626
X5.8004Y-4.5823
X5.8343Y-4.5831
X5.8504Y-5.2795
X5.872Y-4.5874
X5.8799Y-4.0285
X5.8858Y-2.6614
X5.8858Y-4.9409
X5.9098Y-4.5917
X5.9213Y-5.0945
X5.9685Y-3.1102
X5.9724Y-2.9724
X6.0157Y-3.0866
X6.0157Y-3.5906
X6.0157Y-4.8976
X6.0157Y-5.3701
X6.0197Y-4.9685
X6.039Y-4.5862
X6.0413Y-2.689
X6.0413Y-4.1457
X6.0433Y-3.752
X6.0906Y-5.4724
X6.122Y-2.6299
X6.122Y-3.6457
X6.1339Y-5.0748
X6.1654Y-3.563
X6.2205Y-2.6654
X6.2205Y-5.2165
X6.2362Y-2.5118
X6.248Y-4.9606
X6.2992Y-5.0551
X6.2992Y-5.3346
X6.3Y-2.6874
X6.3223Y-5.2317
X6.3228Y-3.248
X6.3268Y-3.0906
X6.3268Y-3.4055
X6.3307Y-3.5669
X6.3346Y-2.937
X6.3524Y-4.9606
X6.4173Y-5.1772
X6.4764Y-5.2913
X6.5Y-5.0394
X6.6378Y-3.7146
X6.6437Y-4.4409
X6.689Y-4.9528
X6.7323Y-4.4409
X6.7598Y-3.3937
X6.7638Y-3.4409
X6.8071Y-2.7992
X6.8504Y-3.4488
T2
X4.8575Y-2.4488
X4.9362Y-2.4488
X4.9362Y-2.6457
X5.015Y-2.4488
X5.015Y-2.6457
X5.0937Y-2.4488
X5.0937Y-2.6457
X5.1724Y-2.4488
X5.1724Y-2.6457
X5.2512Y-2.4488
X5.2512Y-2.6457
X5.3299Y-2.4488
X5.3299Y-2.6457
X5.4087Y-2.4488
X5.4087Y-2.6457
X5.4874Y-2.4488
X5.4874Y-2.6457
X5.5661Y-2.4488
X5.5661Y-2.6457
T5
X6.875Y-4.2
X6.875Y-4.25
X6.875Y-4.3
X6.875Y-4.35
X6.875Y-4.4
X6.925Y-4.2
X6.925Y-4.25
X6.925Y-4.3
X6.925Y-4.35
X6.925Y-4.4
T6
X4.4Y-2.8
X4.4Y-2.9
X4.4Y-3.0
X4.4Y-3.1
X4.4Y-3.2
X4.4Y-3.3
X4.4Y-3.4
X4.4Y-3.5
X4.4Y-3.6
X4.4Y-3.7
X4.4Y-3.8
X4.4Y-3.9
X4.4Y-4.0
X4.4Y-4.1
X4.4Y-4.2
X4.4Y-4.3
X4.4Y-4.6
X4.4Y-4.7
X4.4Y-4.8
X4.4Y-4.9
X4.4Y-5.0
X4.4Y-5.1
X4.7Y-4.6
X4.7Y-4.7
X4.7Y-4.8
X4.7Y-4.9
X4.7Y-5.0
X4.7Y-5.1
X5.9016Y-5.4222
X5.9016Y-5.5222
X6.2031Y-5.5315
X6.3016Y-5.5315
X6.4Y-5.5315
X6.6Y-2.5
X6.6Y-2.6
X6.6Y-2.7
X6.6Y-2.8
X6.9Y-2.8
X6.9Y-2.9
X6.9Y-3.0
X6.9Y-3.1
X6.9Y-3.2
X6.9Y-3.3
X6.9Y-3.4
X6.9Y-3.5
X6.9Y-3.6
X6.9Y-3.7
X6.9Y-3.8
X6.9Y-3.9
X6.9Y-4.6
X6.9Y-4.7
X6.9Y-4.8
X6.9Y-4.9
X6.9Y-5.0
X6.9Y-5.1
T7
X4.4882Y-2.5
X4.4882Y-5.4528
X6.8504Y-2.5
X6.8504Y-5.4528
T3
G00X4.7992Y-5.5738
M15
G01X4.7992Y-5.5994
M16
G05
G00X5.0748Y-5.5738
M15
G01X5.0748Y-5.5994
M16
G05
T4
G00X4.8327Y-5.4803
M15
G01X4.8445Y-5.4803
M16
G05
G00X5.0295Y-5.4803
M15
G01X5.0413Y-5.4803
M16
G05
M30
