%TF.GenerationSoftware,KiCad,Pcbnew,8.0.3*%
%TF.CreationDate,2024-06-19T01:19:57-05:00*%
%TF.ProjectId,bicep,62696365-702e-46b6-9963-61645f706362,rev?*%
%TF.SameCoordinates,Original*%
%TF.FileFunction,Legend,Top*%
%TF.FilePolarity,Positive*%
%FSLAX46Y46*%
G04 Gerber Fmt 4.6, Leading zero omitted, Abs format (unit mm)*
G04 Created by KiCad (PCBNEW 8.0.3) date 2024-06-19 01:19:57*
%MOMM*%
%LPD*%
G01*
G04 APERTURE LIST*
G04 Aperture macros list*
%AMRoundRect*
0 Rectangle with rounded corners*
0 $1 Rounding radius*
0 $2 $3 $4 $5 $6 $7 $8 $9 X,Y pos of 4 corners*
0 Add a 4 corners polygon primitive as box body*
4,1,4,$2,$3,$4,$5,$6,$7,$8,$9,$2,$3,0*
0 Add four circle primitives for the rounded corners*
1,1,$1+$1,$2,$3*
1,1,$1+$1,$4,$5*
1,1,$1+$1,$6,$7*
1,1,$1+$1,$8,$9*
0 Add four rect primitives between the rounded corners*
20,1,$1+$1,$2,$3,$4,$5,0*
20,1,$1+$1,$4,$5,$6,$7,0*
20,1,$1+$1,$6,$7,$8,$9,0*
20,1,$1+$1,$8,$9,$2,$3,0*%
G04 Aperture macros list end*
%ADD10C,0.150000*%
%ADD11C,0.254000*%
%ADD12C,0.120000*%
%ADD13C,0.005000*%
%ADD14C,0.100000*%
%ADD15C,0.200000*%
%ADD16R,0.700000X0.700000*%
%ADD17RoundRect,0.317500X1.157500X0.317500X-1.157500X0.317500X-1.157500X-0.317500X1.157500X-0.317500X0*%
%ADD18RoundRect,0.250000X-0.250000X-1.500000X0.250000X-1.500000X0.250000X1.500000X-0.250000X1.500000X0*%
%ADD19RoundRect,0.250001X-0.499999X-1.449999X0.499999X-1.449999X0.499999X1.449999X-0.499999X1.449999X0*%
%ADD20RoundRect,0.250000X-0.450000X0.262500X-0.450000X-0.262500X0.450000X-0.262500X0.450000X0.262500X0*%
%ADD21RoundRect,0.150000X0.150000X-0.587500X0.150000X0.587500X-0.150000X0.587500X-0.150000X-0.587500X0*%
%ADD22RoundRect,0.250000X0.262500X0.450000X-0.262500X0.450000X-0.262500X-0.450000X0.262500X-0.450000X0*%
%ADD23R,1.600000X1.400000*%
%ADD24RoundRect,0.250000X0.450000X-0.262500X0.450000X0.262500X-0.450000X0.262500X-0.450000X-0.262500X0*%
%ADD25R,0.400000X1.350000*%
%ADD26O,0.890000X1.550000*%
%ADD27R,1.200000X1.550000*%
%ADD28O,1.250000X0.950000*%
%ADD29R,1.500000X1.550000*%
%ADD30RoundRect,0.243750X-0.243750X-0.456250X0.243750X-0.456250X0.243750X0.456250X-0.243750X0.456250X0*%
%ADD31RoundRect,0.250000X0.475000X-0.250000X0.475000X0.250000X-0.475000X0.250000X-0.475000X-0.250000X0*%
%ADD32C,5.700000*%
%ADD33R,1.700000X1.700000*%
%ADD34O,1.700000X1.700000*%
%ADD35R,1.000000X1.800000*%
%ADD36RoundRect,0.150000X-0.512500X-0.150000X0.512500X-0.150000X0.512500X0.150000X-0.512500X0.150000X0*%
%ADD37RoundRect,0.250000X-0.262500X-0.450000X0.262500X-0.450000X0.262500X0.450000X-0.262500X0.450000X0*%
%ADD38RoundRect,0.150000X-0.150000X-0.625000X0.150000X-0.625000X0.150000X0.625000X-0.150000X0.625000X0*%
%ADD39RoundRect,0.250000X-0.350000X-0.650000X0.350000X-0.650000X0.350000X0.650000X-0.350000X0.650000X0*%
%ADD40RoundRect,0.225000X0.375000X-0.225000X0.375000X0.225000X-0.375000X0.225000X-0.375000X-0.225000X0*%
%ADD41C,1.500000*%
%ADD42RoundRect,0.075000X0.662500X0.075000X-0.662500X0.075000X-0.662500X-0.075000X0.662500X-0.075000X0*%
%ADD43RoundRect,0.075000X0.075000X0.662500X-0.075000X0.662500X-0.075000X-0.662500X0.075000X-0.662500X0*%
%ADD44RoundRect,0.250000X-0.475000X0.250000X-0.475000X-0.250000X0.475000X-0.250000X0.475000X0.250000X0*%
%ADD45RoundRect,0.250000X-0.250000X-0.475000X0.250000X-0.475000X0.250000X0.475000X-0.250000X0.475000X0*%
%ADD46R,1.000000X1.000000*%
%ADD47O,1.000000X1.000000*%
%ADD48RoundRect,0.250000X0.250000X0.475000X-0.250000X0.475000X-0.250000X-0.475000X0.250000X-0.475000X0*%
%ADD49RoundRect,0.218750X-0.381250X0.218750X-0.381250X-0.218750X0.381250X-0.218750X0.381250X0.218750X0*%
%ADD50RoundRect,0.243750X0.456250X-0.243750X0.456250X0.243750X-0.456250X0.243750X-0.456250X-0.243750X0*%
G04 APERTURE END LIST*
D10*
X133119819Y-86827506D02*
X133834104Y-86827506D01*
X133834104Y-86827506D02*
X133976961Y-86875125D01*
X133976961Y-86875125D02*
X134072200Y-86970363D01*
X134072200Y-86970363D02*
X134119819Y-87113220D01*
X134119819Y-87113220D02*
X134119819Y-87208458D01*
X134119819Y-85875125D02*
X134119819Y-86351315D01*
X134119819Y-86351315D02*
X133119819Y-86351315D01*
X134024580Y-84970363D02*
X134072200Y-85017982D01*
X134072200Y-85017982D02*
X134119819Y-85160839D01*
X134119819Y-85160839D02*
X134119819Y-85256077D01*
X134119819Y-85256077D02*
X134072200Y-85398934D01*
X134072200Y-85398934D02*
X133976961Y-85494172D01*
X133976961Y-85494172D02*
X133881723Y-85541791D01*
X133881723Y-85541791D02*
X133691247Y-85589410D01*
X133691247Y-85589410D02*
X133548390Y-85589410D01*
X133548390Y-85589410D02*
X133357914Y-85541791D01*
X133357914Y-85541791D02*
X133262676Y-85494172D01*
X133262676Y-85494172D02*
X133167438Y-85398934D01*
X133167438Y-85398934D02*
X133119819Y-85256077D01*
X133119819Y-85256077D02*
X133119819Y-85160839D01*
X133119819Y-85160839D02*
X133167438Y-85017982D01*
X133167438Y-85017982D02*
X133215057Y-84970363D01*
X133119819Y-84256077D02*
X133834104Y-84256077D01*
X133834104Y-84256077D02*
X133976961Y-84303696D01*
X133976961Y-84303696D02*
X134072200Y-84398934D01*
X134072200Y-84398934D02*
X134119819Y-84541791D01*
X134119819Y-84541791D02*
X134119819Y-84637029D01*
X134119819Y-83303696D02*
X134119819Y-83779886D01*
X134119819Y-83779886D02*
X133119819Y-83779886D01*
X134024580Y-82398934D02*
X134072200Y-82446553D01*
X134072200Y-82446553D02*
X134119819Y-82589410D01*
X134119819Y-82589410D02*
X134119819Y-82684648D01*
X134119819Y-82684648D02*
X134072200Y-82827505D01*
X134072200Y-82827505D02*
X133976961Y-82922743D01*
X133976961Y-82922743D02*
X133881723Y-82970362D01*
X133881723Y-82970362D02*
X133691247Y-83017981D01*
X133691247Y-83017981D02*
X133548390Y-83017981D01*
X133548390Y-83017981D02*
X133357914Y-82970362D01*
X133357914Y-82970362D02*
X133262676Y-82922743D01*
X133262676Y-82922743D02*
X133167438Y-82827505D01*
X133167438Y-82827505D02*
X133119819Y-82684648D01*
X133119819Y-82684648D02*
X133119819Y-82589410D01*
X133119819Y-82589410D02*
X133167438Y-82446553D01*
X133167438Y-82446553D02*
X133215057Y-82398934D01*
X133119819Y-81684648D02*
X133834104Y-81684648D01*
X133834104Y-81684648D02*
X133976961Y-81732267D01*
X133976961Y-81732267D02*
X134072200Y-81827505D01*
X134072200Y-81827505D02*
X134119819Y-81970362D01*
X134119819Y-81970362D02*
X134119819Y-82065600D01*
X134119819Y-80732267D02*
X134119819Y-81208457D01*
X134119819Y-81208457D02*
X133119819Y-81208457D01*
X134024580Y-79827505D02*
X134072200Y-79875124D01*
X134072200Y-79875124D02*
X134119819Y-80017981D01*
X134119819Y-80017981D02*
X134119819Y-80113219D01*
X134119819Y-80113219D02*
X134072200Y-80256076D01*
X134072200Y-80256076D02*
X133976961Y-80351314D01*
X133976961Y-80351314D02*
X133881723Y-80398933D01*
X133881723Y-80398933D02*
X133691247Y-80446552D01*
X133691247Y-80446552D02*
X133548390Y-80446552D01*
X133548390Y-80446552D02*
X133357914Y-80398933D01*
X133357914Y-80398933D02*
X133262676Y-80351314D01*
X133262676Y-80351314D02*
X133167438Y-80256076D01*
X133167438Y-80256076D02*
X133119819Y-80113219D01*
X133119819Y-80113219D02*
X133119819Y-80017981D01*
X133119819Y-80017981D02*
X133167438Y-79875124D01*
X133167438Y-79875124D02*
X133215057Y-79827505D01*
X133119819Y-79113219D02*
X133834104Y-79113219D01*
X133834104Y-79113219D02*
X133976961Y-79160838D01*
X133976961Y-79160838D02*
X134072200Y-79256076D01*
X134072200Y-79256076D02*
X134119819Y-79398933D01*
X134119819Y-79398933D02*
X134119819Y-79494171D01*
X134119819Y-78160838D02*
X134119819Y-78637028D01*
X134119819Y-78637028D02*
X133119819Y-78637028D01*
X134024580Y-77256076D02*
X134072200Y-77303695D01*
X134072200Y-77303695D02*
X134119819Y-77446552D01*
X134119819Y-77446552D02*
X134119819Y-77541790D01*
X134119819Y-77541790D02*
X134072200Y-77684647D01*
X134072200Y-77684647D02*
X133976961Y-77779885D01*
X133976961Y-77779885D02*
X133881723Y-77827504D01*
X133881723Y-77827504D02*
X133691247Y-77875123D01*
X133691247Y-77875123D02*
X133548390Y-77875123D01*
X133548390Y-77875123D02*
X133357914Y-77827504D01*
X133357914Y-77827504D02*
X133262676Y-77779885D01*
X133262676Y-77779885D02*
X133167438Y-77684647D01*
X133167438Y-77684647D02*
X133119819Y-77541790D01*
X133119819Y-77541790D02*
X133119819Y-77446552D01*
X133119819Y-77446552D02*
X133167438Y-77303695D01*
X133167438Y-77303695D02*
X133215057Y-77256076D01*
X151020112Y-110346009D02*
X151162969Y-110393628D01*
X151162969Y-110393628D02*
X151210588Y-110441247D01*
X151210588Y-110441247D02*
X151258207Y-110536485D01*
X151258207Y-110536485D02*
X151258207Y-110679342D01*
X151258207Y-110679342D02*
X151210588Y-110774580D01*
X151210588Y-110774580D02*
X151162969Y-110822200D01*
X151162969Y-110822200D02*
X151067731Y-110869819D01*
X151067731Y-110869819D02*
X150686779Y-110869819D01*
X150686779Y-110869819D02*
X150686779Y-109869819D01*
X150686779Y-109869819D02*
X151020112Y-109869819D01*
X151020112Y-109869819D02*
X151115350Y-109917438D01*
X151115350Y-109917438D02*
X151162969Y-109965057D01*
X151162969Y-109965057D02*
X151210588Y-110060295D01*
X151210588Y-110060295D02*
X151210588Y-110155533D01*
X151210588Y-110155533D02*
X151162969Y-110250771D01*
X151162969Y-110250771D02*
X151115350Y-110298390D01*
X151115350Y-110298390D02*
X151020112Y-110346009D01*
X151020112Y-110346009D02*
X150686779Y-110346009D01*
X151686779Y-110869819D02*
X151686779Y-110203152D01*
X151686779Y-109869819D02*
X151639160Y-109917438D01*
X151639160Y-109917438D02*
X151686779Y-109965057D01*
X151686779Y-109965057D02*
X151734398Y-109917438D01*
X151734398Y-109917438D02*
X151686779Y-109869819D01*
X151686779Y-109869819D02*
X151686779Y-109965057D01*
X152591540Y-110822200D02*
X152496302Y-110869819D01*
X152496302Y-110869819D02*
X152305826Y-110869819D01*
X152305826Y-110869819D02*
X152210588Y-110822200D01*
X152210588Y-110822200D02*
X152162969Y-110774580D01*
X152162969Y-110774580D02*
X152115350Y-110679342D01*
X152115350Y-110679342D02*
X152115350Y-110393628D01*
X152115350Y-110393628D02*
X152162969Y-110298390D01*
X152162969Y-110298390D02*
X152210588Y-110250771D01*
X152210588Y-110250771D02*
X152305826Y-110203152D01*
X152305826Y-110203152D02*
X152496302Y-110203152D01*
X152496302Y-110203152D02*
X152591540Y-110250771D01*
X153401064Y-110822200D02*
X153305826Y-110869819D01*
X153305826Y-110869819D02*
X153115350Y-110869819D01*
X153115350Y-110869819D02*
X153020112Y-110822200D01*
X153020112Y-110822200D02*
X152972493Y-110726961D01*
X152972493Y-110726961D02*
X152972493Y-110346009D01*
X152972493Y-110346009D02*
X153020112Y-110250771D01*
X153020112Y-110250771D02*
X153115350Y-110203152D01*
X153115350Y-110203152D02*
X153305826Y-110203152D01*
X153305826Y-110203152D02*
X153401064Y-110250771D01*
X153401064Y-110250771D02*
X153448683Y-110346009D01*
X153448683Y-110346009D02*
X153448683Y-110441247D01*
X153448683Y-110441247D02*
X152972493Y-110536485D01*
X153877255Y-110203152D02*
X153877255Y-111203152D01*
X153877255Y-110250771D02*
X153972493Y-110203152D01*
X153972493Y-110203152D02*
X154162969Y-110203152D01*
X154162969Y-110203152D02*
X154258207Y-110250771D01*
X154258207Y-110250771D02*
X154305826Y-110298390D01*
X154305826Y-110298390D02*
X154353445Y-110393628D01*
X154353445Y-110393628D02*
X154353445Y-110679342D01*
X154353445Y-110679342D02*
X154305826Y-110774580D01*
X154305826Y-110774580D02*
X154258207Y-110822200D01*
X154258207Y-110822200D02*
X154162969Y-110869819D01*
X154162969Y-110869819D02*
X153972493Y-110869819D01*
X153972493Y-110869819D02*
X153877255Y-110822200D01*
X155448684Y-110203152D02*
X155686779Y-110869819D01*
X155686779Y-110869819D02*
X155924874Y-110203152D01*
X156829636Y-110869819D02*
X156258208Y-110869819D01*
X156543922Y-110869819D02*
X156543922Y-109869819D01*
X156543922Y-109869819D02*
X156448684Y-110012676D01*
X156448684Y-110012676D02*
X156353446Y-110107914D01*
X156353446Y-110107914D02*
X156258208Y-110155533D01*
X157258208Y-110774580D02*
X157305827Y-110822200D01*
X157305827Y-110822200D02*
X157258208Y-110869819D01*
X157258208Y-110869819D02*
X157210589Y-110822200D01*
X157210589Y-110822200D02*
X157258208Y-110774580D01*
X157258208Y-110774580D02*
X157258208Y-110869819D01*
X157924874Y-109869819D02*
X158020112Y-109869819D01*
X158020112Y-109869819D02*
X158115350Y-109917438D01*
X158115350Y-109917438D02*
X158162969Y-109965057D01*
X158162969Y-109965057D02*
X158210588Y-110060295D01*
X158210588Y-110060295D02*
X158258207Y-110250771D01*
X158258207Y-110250771D02*
X158258207Y-110488866D01*
X158258207Y-110488866D02*
X158210588Y-110679342D01*
X158210588Y-110679342D02*
X158162969Y-110774580D01*
X158162969Y-110774580D02*
X158115350Y-110822200D01*
X158115350Y-110822200D02*
X158020112Y-110869819D01*
X158020112Y-110869819D02*
X157924874Y-110869819D01*
X157924874Y-110869819D02*
X157829636Y-110822200D01*
X157829636Y-110822200D02*
X157782017Y-110774580D01*
X157782017Y-110774580D02*
X157734398Y-110679342D01*
X157734398Y-110679342D02*
X157686779Y-110488866D01*
X157686779Y-110488866D02*
X157686779Y-110250771D01*
X157686779Y-110250771D02*
X157734398Y-110060295D01*
X157734398Y-110060295D02*
X157782017Y-109965057D01*
X157782017Y-109965057D02*
X157829636Y-109917438D01*
X157829636Y-109917438D02*
X157924874Y-109869819D01*
X159877255Y-109869819D02*
X159686779Y-109869819D01*
X159686779Y-109869819D02*
X159591541Y-109917438D01*
X159591541Y-109917438D02*
X159543922Y-109965057D01*
X159543922Y-109965057D02*
X159448684Y-110107914D01*
X159448684Y-110107914D02*
X159401065Y-110298390D01*
X159401065Y-110298390D02*
X159401065Y-110679342D01*
X159401065Y-110679342D02*
X159448684Y-110774580D01*
X159448684Y-110774580D02*
X159496303Y-110822200D01*
X159496303Y-110822200D02*
X159591541Y-110869819D01*
X159591541Y-110869819D02*
X159782017Y-110869819D01*
X159782017Y-110869819D02*
X159877255Y-110822200D01*
X159877255Y-110822200D02*
X159924874Y-110774580D01*
X159924874Y-110774580D02*
X159972493Y-110679342D01*
X159972493Y-110679342D02*
X159972493Y-110441247D01*
X159972493Y-110441247D02*
X159924874Y-110346009D01*
X159924874Y-110346009D02*
X159877255Y-110298390D01*
X159877255Y-110298390D02*
X159782017Y-110250771D01*
X159782017Y-110250771D02*
X159591541Y-110250771D01*
X159591541Y-110250771D02*
X159496303Y-110298390D01*
X159496303Y-110298390D02*
X159448684Y-110346009D01*
X159448684Y-110346009D02*
X159401065Y-110441247D01*
X161115350Y-109822200D02*
X160258208Y-111107914D01*
X161972493Y-110869819D02*
X161401065Y-110869819D01*
X161686779Y-110869819D02*
X161686779Y-109869819D01*
X161686779Y-109869819D02*
X161591541Y-110012676D01*
X161591541Y-110012676D02*
X161496303Y-110107914D01*
X161496303Y-110107914D02*
X161401065Y-110155533D01*
X162543922Y-110298390D02*
X162448684Y-110250771D01*
X162448684Y-110250771D02*
X162401065Y-110203152D01*
X162401065Y-110203152D02*
X162353446Y-110107914D01*
X162353446Y-110107914D02*
X162353446Y-110060295D01*
X162353446Y-110060295D02*
X162401065Y-109965057D01*
X162401065Y-109965057D02*
X162448684Y-109917438D01*
X162448684Y-109917438D02*
X162543922Y-109869819D01*
X162543922Y-109869819D02*
X162734398Y-109869819D01*
X162734398Y-109869819D02*
X162829636Y-109917438D01*
X162829636Y-109917438D02*
X162877255Y-109965057D01*
X162877255Y-109965057D02*
X162924874Y-110060295D01*
X162924874Y-110060295D02*
X162924874Y-110107914D01*
X162924874Y-110107914D02*
X162877255Y-110203152D01*
X162877255Y-110203152D02*
X162829636Y-110250771D01*
X162829636Y-110250771D02*
X162734398Y-110298390D01*
X162734398Y-110298390D02*
X162543922Y-110298390D01*
X162543922Y-110298390D02*
X162448684Y-110346009D01*
X162448684Y-110346009D02*
X162401065Y-110393628D01*
X162401065Y-110393628D02*
X162353446Y-110488866D01*
X162353446Y-110488866D02*
X162353446Y-110679342D01*
X162353446Y-110679342D02*
X162401065Y-110774580D01*
X162401065Y-110774580D02*
X162448684Y-110822200D01*
X162448684Y-110822200D02*
X162543922Y-110869819D01*
X162543922Y-110869819D02*
X162734398Y-110869819D01*
X162734398Y-110869819D02*
X162829636Y-110822200D01*
X162829636Y-110822200D02*
X162877255Y-110774580D01*
X162877255Y-110774580D02*
X162924874Y-110679342D01*
X162924874Y-110679342D02*
X162924874Y-110488866D01*
X162924874Y-110488866D02*
X162877255Y-110393628D01*
X162877255Y-110393628D02*
X162829636Y-110346009D01*
X162829636Y-110346009D02*
X162734398Y-110298390D01*
X164067731Y-109822200D02*
X163210589Y-111107914D01*
X164353446Y-109965057D02*
X164401065Y-109917438D01*
X164401065Y-109917438D02*
X164496303Y-109869819D01*
X164496303Y-109869819D02*
X164734398Y-109869819D01*
X164734398Y-109869819D02*
X164829636Y-109917438D01*
X164829636Y-109917438D02*
X164877255Y-109965057D01*
X164877255Y-109965057D02*
X164924874Y-110060295D01*
X164924874Y-110060295D02*
X164924874Y-110155533D01*
X164924874Y-110155533D02*
X164877255Y-110298390D01*
X164877255Y-110298390D02*
X164305827Y-110869819D01*
X164305827Y-110869819D02*
X164924874Y-110869819D01*
X165543922Y-109869819D02*
X165639160Y-109869819D01*
X165639160Y-109869819D02*
X165734398Y-109917438D01*
X165734398Y-109917438D02*
X165782017Y-109965057D01*
X165782017Y-109965057D02*
X165829636Y-110060295D01*
X165829636Y-110060295D02*
X165877255Y-110250771D01*
X165877255Y-110250771D02*
X165877255Y-110488866D01*
X165877255Y-110488866D02*
X165829636Y-110679342D01*
X165829636Y-110679342D02*
X165782017Y-110774580D01*
X165782017Y-110774580D02*
X165734398Y-110822200D01*
X165734398Y-110822200D02*
X165639160Y-110869819D01*
X165639160Y-110869819D02*
X165543922Y-110869819D01*
X165543922Y-110869819D02*
X165448684Y-110822200D01*
X165448684Y-110822200D02*
X165401065Y-110774580D01*
X165401065Y-110774580D02*
X165353446Y-110679342D01*
X165353446Y-110679342D02*
X165305827Y-110488866D01*
X165305827Y-110488866D02*
X165305827Y-110250771D01*
X165305827Y-110250771D02*
X165353446Y-110060295D01*
X165353446Y-110060295D02*
X165401065Y-109965057D01*
X165401065Y-109965057D02*
X165448684Y-109917438D01*
X165448684Y-109917438D02*
X165543922Y-109869819D01*
X166258208Y-109965057D02*
X166305827Y-109917438D01*
X166305827Y-109917438D02*
X166401065Y-109869819D01*
X166401065Y-109869819D02*
X166639160Y-109869819D01*
X166639160Y-109869819D02*
X166734398Y-109917438D01*
X166734398Y-109917438D02*
X166782017Y-109965057D01*
X166782017Y-109965057D02*
X166829636Y-110060295D01*
X166829636Y-110060295D02*
X166829636Y-110155533D01*
X166829636Y-110155533D02*
X166782017Y-110298390D01*
X166782017Y-110298390D02*
X166210589Y-110869819D01*
X166210589Y-110869819D02*
X166829636Y-110869819D01*
X167686779Y-110203152D02*
X167686779Y-110869819D01*
X167448684Y-109822200D02*
X167210589Y-110536485D01*
X167210589Y-110536485D02*
X167829636Y-110536485D01*
X169543922Y-110869819D02*
X169210589Y-110393628D01*
X168972494Y-110869819D02*
X168972494Y-109869819D01*
X168972494Y-109869819D02*
X169353446Y-109869819D01*
X169353446Y-109869819D02*
X169448684Y-109917438D01*
X169448684Y-109917438D02*
X169496303Y-109965057D01*
X169496303Y-109965057D02*
X169543922Y-110060295D01*
X169543922Y-110060295D02*
X169543922Y-110203152D01*
X169543922Y-110203152D02*
X169496303Y-110298390D01*
X169496303Y-110298390D02*
X169448684Y-110346009D01*
X169448684Y-110346009D02*
X169353446Y-110393628D01*
X169353446Y-110393628D02*
X168972494Y-110393628D01*
X170258208Y-109869819D02*
X170258208Y-110584104D01*
X170258208Y-110584104D02*
X170210589Y-110726961D01*
X170210589Y-110726961D02*
X170115351Y-110822200D01*
X170115351Y-110822200D02*
X169972494Y-110869819D01*
X169972494Y-110869819D02*
X169877256Y-110869819D01*
X170686780Y-110584104D02*
X171162970Y-110584104D01*
X170591542Y-110869819D02*
X170924875Y-109869819D01*
X170924875Y-109869819D02*
X171258208Y-110869819D01*
X153630952Y-89094819D02*
X153154762Y-89094819D01*
X153154762Y-89094819D02*
X153154762Y-88094819D01*
X153964286Y-88571009D02*
X154297619Y-88571009D01*
X154440476Y-89094819D02*
X153964286Y-89094819D01*
X153964286Y-89094819D02*
X153964286Y-88094819D01*
X153964286Y-88094819D02*
X154440476Y-88094819D01*
X154869048Y-89094819D02*
X154869048Y-88094819D01*
X154869048Y-88094819D02*
X155107143Y-88094819D01*
X155107143Y-88094819D02*
X155250000Y-88142438D01*
X155250000Y-88142438D02*
X155345238Y-88237676D01*
X155345238Y-88237676D02*
X155392857Y-88332914D01*
X155392857Y-88332914D02*
X155440476Y-88523390D01*
X155440476Y-88523390D02*
X155440476Y-88666247D01*
X155440476Y-88666247D02*
X155392857Y-88856723D01*
X155392857Y-88856723D02*
X155345238Y-88951961D01*
X155345238Y-88951961D02*
X155250000Y-89047200D01*
X155250000Y-89047200D02*
X155107143Y-89094819D01*
X155107143Y-89094819D02*
X154869048Y-89094819D01*
X156297619Y-88094819D02*
X156107143Y-88094819D01*
X156107143Y-88094819D02*
X156011905Y-88142438D01*
X156011905Y-88142438D02*
X155964286Y-88190057D01*
X155964286Y-88190057D02*
X155869048Y-88332914D01*
X155869048Y-88332914D02*
X155821429Y-88523390D01*
X155821429Y-88523390D02*
X155821429Y-88904342D01*
X155821429Y-88904342D02*
X155869048Y-88999580D01*
X155869048Y-88999580D02*
X155916667Y-89047200D01*
X155916667Y-89047200D02*
X156011905Y-89094819D01*
X156011905Y-89094819D02*
X156202381Y-89094819D01*
X156202381Y-89094819D02*
X156297619Y-89047200D01*
X156297619Y-89047200D02*
X156345238Y-88999580D01*
X156345238Y-88999580D02*
X156392857Y-88904342D01*
X156392857Y-88904342D02*
X156392857Y-88666247D01*
X156392857Y-88666247D02*
X156345238Y-88571009D01*
X156345238Y-88571009D02*
X156297619Y-88523390D01*
X156297619Y-88523390D02*
X156202381Y-88475771D01*
X156202381Y-88475771D02*
X156011905Y-88475771D01*
X156011905Y-88475771D02*
X155916667Y-88523390D01*
X155916667Y-88523390D02*
X155869048Y-88571009D01*
X155869048Y-88571009D02*
X155821429Y-88666247D01*
X130538095Y-82404819D02*
X130538095Y-83214342D01*
X130538095Y-83214342D02*
X130585714Y-83309580D01*
X130585714Y-83309580D02*
X130633333Y-83357200D01*
X130633333Y-83357200D02*
X130728571Y-83404819D01*
X130728571Y-83404819D02*
X130919047Y-83404819D01*
X130919047Y-83404819D02*
X131014285Y-83357200D01*
X131014285Y-83357200D02*
X131061904Y-83309580D01*
X131061904Y-83309580D02*
X131109523Y-83214342D01*
X131109523Y-83214342D02*
X131109523Y-82404819D01*
X131538095Y-82500057D02*
X131585714Y-82452438D01*
X131585714Y-82452438D02*
X131680952Y-82404819D01*
X131680952Y-82404819D02*
X131919047Y-82404819D01*
X131919047Y-82404819D02*
X132014285Y-82452438D01*
X132014285Y-82452438D02*
X132061904Y-82500057D01*
X132061904Y-82500057D02*
X132109523Y-82595295D01*
X132109523Y-82595295D02*
X132109523Y-82690533D01*
X132109523Y-82690533D02*
X132061904Y-82833390D01*
X132061904Y-82833390D02*
X131490476Y-83404819D01*
X131490476Y-83404819D02*
X132109523Y-83404819D01*
X136350476Y-130814819D02*
X136350476Y-131529104D01*
X136350476Y-131529104D02*
X136302857Y-131671961D01*
X136302857Y-131671961D02*
X136207619Y-131767200D01*
X136207619Y-131767200D02*
X136064762Y-131814819D01*
X136064762Y-131814819D02*
X135969524Y-131814819D01*
X137350476Y-131814819D02*
X136779048Y-131814819D01*
X137064762Y-131814819D02*
X137064762Y-130814819D01*
X137064762Y-130814819D02*
X136969524Y-130957676D01*
X136969524Y-130957676D02*
X136874286Y-131052914D01*
X136874286Y-131052914D02*
X136779048Y-131100533D01*
X137969524Y-130814819D02*
X138064762Y-130814819D01*
X138064762Y-130814819D02*
X138160000Y-130862438D01*
X138160000Y-130862438D02*
X138207619Y-130910057D01*
X138207619Y-130910057D02*
X138255238Y-131005295D01*
X138255238Y-131005295D02*
X138302857Y-131195771D01*
X138302857Y-131195771D02*
X138302857Y-131433866D01*
X138302857Y-131433866D02*
X138255238Y-131624342D01*
X138255238Y-131624342D02*
X138207619Y-131719580D01*
X138207619Y-131719580D02*
X138160000Y-131767200D01*
X138160000Y-131767200D02*
X138064762Y-131814819D01*
X138064762Y-131814819D02*
X137969524Y-131814819D01*
X137969524Y-131814819D02*
X137874286Y-131767200D01*
X137874286Y-131767200D02*
X137826667Y-131719580D01*
X137826667Y-131719580D02*
X137779048Y-131624342D01*
X137779048Y-131624342D02*
X137731429Y-131433866D01*
X137731429Y-131433866D02*
X137731429Y-131195771D01*
X137731429Y-131195771D02*
X137779048Y-131005295D01*
X137779048Y-131005295D02*
X137826667Y-130910057D01*
X137826667Y-130910057D02*
X137874286Y-130862438D01*
X137874286Y-130862438D02*
X137969524Y-130814819D01*
X150557142Y-123254819D02*
X150223809Y-122778628D01*
X149985714Y-123254819D02*
X149985714Y-122254819D01*
X149985714Y-122254819D02*
X150366666Y-122254819D01*
X150366666Y-122254819D02*
X150461904Y-122302438D01*
X150461904Y-122302438D02*
X150509523Y-122350057D01*
X150509523Y-122350057D02*
X150557142Y-122445295D01*
X150557142Y-122445295D02*
X150557142Y-122588152D01*
X150557142Y-122588152D02*
X150509523Y-122683390D01*
X150509523Y-122683390D02*
X150461904Y-122731009D01*
X150461904Y-122731009D02*
X150366666Y-122778628D01*
X150366666Y-122778628D02*
X149985714Y-122778628D01*
X151509523Y-123254819D02*
X150938095Y-123254819D01*
X151223809Y-123254819D02*
X151223809Y-122254819D01*
X151223809Y-122254819D02*
X151128571Y-122397676D01*
X151128571Y-122397676D02*
X151033333Y-122492914D01*
X151033333Y-122492914D02*
X150938095Y-122540533D01*
X151890476Y-122350057D02*
X151938095Y-122302438D01*
X151938095Y-122302438D02*
X152033333Y-122254819D01*
X152033333Y-122254819D02*
X152271428Y-122254819D01*
X152271428Y-122254819D02*
X152366666Y-122302438D01*
X152366666Y-122302438D02*
X152414285Y-122350057D01*
X152414285Y-122350057D02*
X152461904Y-122445295D01*
X152461904Y-122445295D02*
X152461904Y-122540533D01*
X152461904Y-122540533D02*
X152414285Y-122683390D01*
X152414285Y-122683390D02*
X151842857Y-123254819D01*
X151842857Y-123254819D02*
X152461904Y-123254819D01*
X148904761Y-128950057D02*
X148809523Y-128902438D01*
X148809523Y-128902438D02*
X148714285Y-128807200D01*
X148714285Y-128807200D02*
X148571428Y-128664342D01*
X148571428Y-128664342D02*
X148476190Y-128616723D01*
X148476190Y-128616723D02*
X148380952Y-128616723D01*
X148428571Y-128854819D02*
X148333333Y-128807200D01*
X148333333Y-128807200D02*
X148238095Y-128711961D01*
X148238095Y-128711961D02*
X148190476Y-128521485D01*
X148190476Y-128521485D02*
X148190476Y-128188152D01*
X148190476Y-128188152D02*
X148238095Y-127997676D01*
X148238095Y-127997676D02*
X148333333Y-127902438D01*
X148333333Y-127902438D02*
X148428571Y-127854819D01*
X148428571Y-127854819D02*
X148619047Y-127854819D01*
X148619047Y-127854819D02*
X148714285Y-127902438D01*
X148714285Y-127902438D02*
X148809523Y-127997676D01*
X148809523Y-127997676D02*
X148857142Y-128188152D01*
X148857142Y-128188152D02*
X148857142Y-128521485D01*
X148857142Y-128521485D02*
X148809523Y-128711961D01*
X148809523Y-128711961D02*
X148714285Y-128807200D01*
X148714285Y-128807200D02*
X148619047Y-128854819D01*
X148619047Y-128854819D02*
X148428571Y-128854819D01*
X149238095Y-127950057D02*
X149285714Y-127902438D01*
X149285714Y-127902438D02*
X149380952Y-127854819D01*
X149380952Y-127854819D02*
X149619047Y-127854819D01*
X149619047Y-127854819D02*
X149714285Y-127902438D01*
X149714285Y-127902438D02*
X149761904Y-127950057D01*
X149761904Y-127950057D02*
X149809523Y-128045295D01*
X149809523Y-128045295D02*
X149809523Y-128140533D01*
X149809523Y-128140533D02*
X149761904Y-128283390D01*
X149761904Y-128283390D02*
X149190476Y-128854819D01*
X149190476Y-128854819D02*
X149809523Y-128854819D01*
X158533333Y-77254819D02*
X158200000Y-76778628D01*
X157961905Y-77254819D02*
X157961905Y-76254819D01*
X157961905Y-76254819D02*
X158342857Y-76254819D01*
X158342857Y-76254819D02*
X158438095Y-76302438D01*
X158438095Y-76302438D02*
X158485714Y-76350057D01*
X158485714Y-76350057D02*
X158533333Y-76445295D01*
X158533333Y-76445295D02*
X158533333Y-76588152D01*
X158533333Y-76588152D02*
X158485714Y-76683390D01*
X158485714Y-76683390D02*
X158438095Y-76731009D01*
X158438095Y-76731009D02*
X158342857Y-76778628D01*
X158342857Y-76778628D02*
X157961905Y-76778628D01*
X159390476Y-76588152D02*
X159390476Y-77254819D01*
X159152381Y-76207200D02*
X158914286Y-76921485D01*
X158914286Y-76921485D02*
X159533333Y-76921485D01*
X131866667Y-127857200D02*
X132009524Y-127904819D01*
X132009524Y-127904819D02*
X132247619Y-127904819D01*
X132247619Y-127904819D02*
X132342857Y-127857200D01*
X132342857Y-127857200D02*
X132390476Y-127809580D01*
X132390476Y-127809580D02*
X132438095Y-127714342D01*
X132438095Y-127714342D02*
X132438095Y-127619104D01*
X132438095Y-127619104D02*
X132390476Y-127523866D01*
X132390476Y-127523866D02*
X132342857Y-127476247D01*
X132342857Y-127476247D02*
X132247619Y-127428628D01*
X132247619Y-127428628D02*
X132057143Y-127381009D01*
X132057143Y-127381009D02*
X131961905Y-127333390D01*
X131961905Y-127333390D02*
X131914286Y-127285771D01*
X131914286Y-127285771D02*
X131866667Y-127190533D01*
X131866667Y-127190533D02*
X131866667Y-127095295D01*
X131866667Y-127095295D02*
X131914286Y-127000057D01*
X131914286Y-127000057D02*
X131961905Y-126952438D01*
X131961905Y-126952438D02*
X132057143Y-126904819D01*
X132057143Y-126904819D02*
X132295238Y-126904819D01*
X132295238Y-126904819D02*
X132438095Y-126952438D01*
X132771429Y-126904819D02*
X133009524Y-127904819D01*
X133009524Y-127904819D02*
X133200000Y-127190533D01*
X133200000Y-127190533D02*
X133390476Y-127904819D01*
X133390476Y-127904819D02*
X133628572Y-126904819D01*
X134533333Y-127904819D02*
X133961905Y-127904819D01*
X134247619Y-127904819D02*
X134247619Y-126904819D01*
X134247619Y-126904819D02*
X134152381Y-127047676D01*
X134152381Y-127047676D02*
X134057143Y-127142914D01*
X134057143Y-127142914D02*
X133961905Y-127190533D01*
X147057142Y-123254819D02*
X146723809Y-122778628D01*
X146485714Y-123254819D02*
X146485714Y-122254819D01*
X146485714Y-122254819D02*
X146866666Y-122254819D01*
X146866666Y-122254819D02*
X146961904Y-122302438D01*
X146961904Y-122302438D02*
X147009523Y-122350057D01*
X147009523Y-122350057D02*
X147057142Y-122445295D01*
X147057142Y-122445295D02*
X147057142Y-122588152D01*
X147057142Y-122588152D02*
X147009523Y-122683390D01*
X147009523Y-122683390D02*
X146961904Y-122731009D01*
X146961904Y-122731009D02*
X146866666Y-122778628D01*
X146866666Y-122778628D02*
X146485714Y-122778628D01*
X148009523Y-123254819D02*
X147438095Y-123254819D01*
X147723809Y-123254819D02*
X147723809Y-122254819D01*
X147723809Y-122254819D02*
X147628571Y-122397676D01*
X147628571Y-122397676D02*
X147533333Y-122492914D01*
X147533333Y-122492914D02*
X147438095Y-122540533D01*
X148961904Y-123254819D02*
X148390476Y-123254819D01*
X148676190Y-123254819D02*
X148676190Y-122254819D01*
X148676190Y-122254819D02*
X148580952Y-122397676D01*
X148580952Y-122397676D02*
X148485714Y-122492914D01*
X148485714Y-122492914D02*
X148390476Y-122540533D01*
X121026190Y-136854819D02*
X121026190Y-137664342D01*
X121026190Y-137664342D02*
X121073809Y-137759580D01*
X121073809Y-137759580D02*
X121121428Y-137807200D01*
X121121428Y-137807200D02*
X121216666Y-137854819D01*
X121216666Y-137854819D02*
X121407142Y-137854819D01*
X121407142Y-137854819D02*
X121502380Y-137807200D01*
X121502380Y-137807200D02*
X121549999Y-137759580D01*
X121549999Y-137759580D02*
X121597618Y-137664342D01*
X121597618Y-137664342D02*
X121597618Y-136854819D01*
X122026190Y-137807200D02*
X122169047Y-137854819D01*
X122169047Y-137854819D02*
X122407142Y-137854819D01*
X122407142Y-137854819D02*
X122502380Y-137807200D01*
X122502380Y-137807200D02*
X122549999Y-137759580D01*
X122549999Y-137759580D02*
X122597618Y-137664342D01*
X122597618Y-137664342D02*
X122597618Y-137569104D01*
X122597618Y-137569104D02*
X122549999Y-137473866D01*
X122549999Y-137473866D02*
X122502380Y-137426247D01*
X122502380Y-137426247D02*
X122407142Y-137378628D01*
X122407142Y-137378628D02*
X122216666Y-137331009D01*
X122216666Y-137331009D02*
X122121428Y-137283390D01*
X122121428Y-137283390D02*
X122073809Y-137235771D01*
X122073809Y-137235771D02*
X122026190Y-137140533D01*
X122026190Y-137140533D02*
X122026190Y-137045295D01*
X122026190Y-137045295D02*
X122073809Y-136950057D01*
X122073809Y-136950057D02*
X122121428Y-136902438D01*
X122121428Y-136902438D02*
X122216666Y-136854819D01*
X122216666Y-136854819D02*
X122454761Y-136854819D01*
X122454761Y-136854819D02*
X122597618Y-136902438D01*
X123359523Y-137331009D02*
X123502380Y-137378628D01*
X123502380Y-137378628D02*
X123549999Y-137426247D01*
X123549999Y-137426247D02*
X123597618Y-137521485D01*
X123597618Y-137521485D02*
X123597618Y-137664342D01*
X123597618Y-137664342D02*
X123549999Y-137759580D01*
X123549999Y-137759580D02*
X123502380Y-137807200D01*
X123502380Y-137807200D02*
X123407142Y-137854819D01*
X123407142Y-137854819D02*
X123026190Y-137854819D01*
X123026190Y-137854819D02*
X123026190Y-136854819D01*
X123026190Y-136854819D02*
X123359523Y-136854819D01*
X123359523Y-136854819D02*
X123454761Y-136902438D01*
X123454761Y-136902438D02*
X123502380Y-136950057D01*
X123502380Y-136950057D02*
X123549999Y-137045295D01*
X123549999Y-137045295D02*
X123549999Y-137140533D01*
X123549999Y-137140533D02*
X123502380Y-137235771D01*
X123502380Y-137235771D02*
X123454761Y-137283390D01*
X123454761Y-137283390D02*
X123359523Y-137331009D01*
X123359523Y-137331009D02*
X123026190Y-137331009D01*
X123788095Y-137950057D02*
X124549999Y-137950057D01*
X125121428Y-137331009D02*
X125264285Y-137378628D01*
X125264285Y-137378628D02*
X125311904Y-137426247D01*
X125311904Y-137426247D02*
X125359523Y-137521485D01*
X125359523Y-137521485D02*
X125359523Y-137664342D01*
X125359523Y-137664342D02*
X125311904Y-137759580D01*
X125311904Y-137759580D02*
X125264285Y-137807200D01*
X125264285Y-137807200D02*
X125169047Y-137854819D01*
X125169047Y-137854819D02*
X124788095Y-137854819D01*
X124788095Y-137854819D02*
X124788095Y-136854819D01*
X124788095Y-136854819D02*
X125121428Y-136854819D01*
X125121428Y-136854819D02*
X125216666Y-136902438D01*
X125216666Y-136902438D02*
X125264285Y-136950057D01*
X125264285Y-136950057D02*
X125311904Y-137045295D01*
X125311904Y-137045295D02*
X125311904Y-137140533D01*
X125311904Y-137140533D02*
X125264285Y-137235771D01*
X125264285Y-137235771D02*
X125216666Y-137283390D01*
X125216666Y-137283390D02*
X125121428Y-137331009D01*
X125121428Y-137331009D02*
X124788095Y-137331009D01*
X125550000Y-137950057D02*
X126311904Y-137950057D01*
X126550000Y-137854819D02*
X126550000Y-136854819D01*
X126550000Y-136854819D02*
X126883333Y-137569104D01*
X126883333Y-137569104D02*
X127216666Y-136854819D01*
X127216666Y-136854819D02*
X127216666Y-137854819D01*
X127692857Y-137854819D02*
X127692857Y-137188152D01*
X127692857Y-136854819D02*
X127645238Y-136902438D01*
X127645238Y-136902438D02*
X127692857Y-136950057D01*
X127692857Y-136950057D02*
X127740476Y-136902438D01*
X127740476Y-136902438D02*
X127692857Y-136854819D01*
X127692857Y-136854819D02*
X127692857Y-136950057D01*
X128597618Y-137807200D02*
X128502380Y-137854819D01*
X128502380Y-137854819D02*
X128311904Y-137854819D01*
X128311904Y-137854819D02*
X128216666Y-137807200D01*
X128216666Y-137807200D02*
X128169047Y-137759580D01*
X128169047Y-137759580D02*
X128121428Y-137664342D01*
X128121428Y-137664342D02*
X128121428Y-137378628D01*
X128121428Y-137378628D02*
X128169047Y-137283390D01*
X128169047Y-137283390D02*
X128216666Y-137235771D01*
X128216666Y-137235771D02*
X128311904Y-137188152D01*
X128311904Y-137188152D02*
X128502380Y-137188152D01*
X128502380Y-137188152D02*
X128597618Y-137235771D01*
X129026190Y-137854819D02*
X129026190Y-137188152D01*
X129026190Y-137378628D02*
X129073809Y-137283390D01*
X129073809Y-137283390D02*
X129121428Y-137235771D01*
X129121428Y-137235771D02*
X129216666Y-137188152D01*
X129216666Y-137188152D02*
X129311904Y-137188152D01*
X129788095Y-137854819D02*
X129692857Y-137807200D01*
X129692857Y-137807200D02*
X129645238Y-137759580D01*
X129645238Y-137759580D02*
X129597619Y-137664342D01*
X129597619Y-137664342D02*
X129597619Y-137378628D01*
X129597619Y-137378628D02*
X129645238Y-137283390D01*
X129645238Y-137283390D02*
X129692857Y-137235771D01*
X129692857Y-137235771D02*
X129788095Y-137188152D01*
X129788095Y-137188152D02*
X129930952Y-137188152D01*
X129930952Y-137188152D02*
X130026190Y-137235771D01*
X130026190Y-137235771D02*
X130073809Y-137283390D01*
X130073809Y-137283390D02*
X130121428Y-137378628D01*
X130121428Y-137378628D02*
X130121428Y-137664342D01*
X130121428Y-137664342D02*
X130073809Y-137759580D01*
X130073809Y-137759580D02*
X130026190Y-137807200D01*
X130026190Y-137807200D02*
X129930952Y-137854819D01*
X129930952Y-137854819D02*
X129788095Y-137854819D01*
X154107142Y-73154819D02*
X153630952Y-73154819D01*
X153630952Y-73154819D02*
X153630952Y-72154819D01*
X154440476Y-72631009D02*
X154773809Y-72631009D01*
X154916666Y-73154819D02*
X154440476Y-73154819D01*
X154440476Y-73154819D02*
X154440476Y-72154819D01*
X154440476Y-72154819D02*
X154916666Y-72154819D01*
X155345238Y-73154819D02*
X155345238Y-72154819D01*
X155345238Y-72154819D02*
X155583333Y-72154819D01*
X155583333Y-72154819D02*
X155726190Y-72202438D01*
X155726190Y-72202438D02*
X155821428Y-72297676D01*
X155821428Y-72297676D02*
X155869047Y-72392914D01*
X155869047Y-72392914D02*
X155916666Y-72583390D01*
X155916666Y-72583390D02*
X155916666Y-72726247D01*
X155916666Y-72726247D02*
X155869047Y-72916723D01*
X155869047Y-72916723D02*
X155821428Y-73011961D01*
X155821428Y-73011961D02*
X155726190Y-73107200D01*
X155726190Y-73107200D02*
X155583333Y-73154819D01*
X155583333Y-73154819D02*
X155345238Y-73154819D01*
X153938095Y-80254819D02*
X154509523Y-80254819D01*
X154223809Y-81254819D02*
X154223809Y-80254819D01*
X154747619Y-80254819D02*
X155414285Y-81254819D01*
X155414285Y-80254819D02*
X154747619Y-81254819D01*
X153757142Y-123159580D02*
X153709523Y-123207200D01*
X153709523Y-123207200D02*
X153566666Y-123254819D01*
X153566666Y-123254819D02*
X153471428Y-123254819D01*
X153471428Y-123254819D02*
X153328571Y-123207200D01*
X153328571Y-123207200D02*
X153233333Y-123111961D01*
X153233333Y-123111961D02*
X153185714Y-123016723D01*
X153185714Y-123016723D02*
X153138095Y-122826247D01*
X153138095Y-122826247D02*
X153138095Y-122683390D01*
X153138095Y-122683390D02*
X153185714Y-122492914D01*
X153185714Y-122492914D02*
X153233333Y-122397676D01*
X153233333Y-122397676D02*
X153328571Y-122302438D01*
X153328571Y-122302438D02*
X153471428Y-122254819D01*
X153471428Y-122254819D02*
X153566666Y-122254819D01*
X153566666Y-122254819D02*
X153709523Y-122302438D01*
X153709523Y-122302438D02*
X153757142Y-122350057D01*
X154709523Y-123254819D02*
X154138095Y-123254819D01*
X154423809Y-123254819D02*
X154423809Y-122254819D01*
X154423809Y-122254819D02*
X154328571Y-122397676D01*
X154328571Y-122397676D02*
X154233333Y-122492914D01*
X154233333Y-122492914D02*
X154138095Y-122540533D01*
X155090476Y-122350057D02*
X155138095Y-122302438D01*
X155138095Y-122302438D02*
X155233333Y-122254819D01*
X155233333Y-122254819D02*
X155471428Y-122254819D01*
X155471428Y-122254819D02*
X155566666Y-122302438D01*
X155566666Y-122302438D02*
X155614285Y-122350057D01*
X155614285Y-122350057D02*
X155661904Y-122445295D01*
X155661904Y-122445295D02*
X155661904Y-122540533D01*
X155661904Y-122540533D02*
X155614285Y-122683390D01*
X155614285Y-122683390D02*
X155042857Y-123254819D01*
X155042857Y-123254819D02*
X155661904Y-123254819D01*
X110450000Y-68654819D02*
X110450000Y-67654819D01*
X110450000Y-67654819D02*
X110688095Y-67654819D01*
X110688095Y-67654819D02*
X110830952Y-67702438D01*
X110830952Y-67702438D02*
X110926190Y-67797676D01*
X110926190Y-67797676D02*
X110973809Y-67892914D01*
X110973809Y-67892914D02*
X111021428Y-68083390D01*
X111021428Y-68083390D02*
X111021428Y-68226247D01*
X111021428Y-68226247D02*
X110973809Y-68416723D01*
X110973809Y-68416723D02*
X110926190Y-68511961D01*
X110926190Y-68511961D02*
X110830952Y-68607200D01*
X110830952Y-68607200D02*
X110688095Y-68654819D01*
X110688095Y-68654819D02*
X110450000Y-68654819D01*
X111402381Y-68369104D02*
X111878571Y-68369104D01*
X111307143Y-68654819D02*
X111640476Y-67654819D01*
X111640476Y-67654819D02*
X111973809Y-68654819D01*
X112164286Y-67654819D02*
X112735714Y-67654819D01*
X112450000Y-68654819D02*
X112450000Y-67654819D01*
X113021429Y-68369104D02*
X113497619Y-68369104D01*
X112926191Y-68654819D02*
X113259524Y-67654819D01*
X113259524Y-67654819D02*
X113592857Y-68654819D01*
X139778628Y-110326190D02*
X140254819Y-110326190D01*
X139254819Y-110659523D02*
X139778628Y-110326190D01*
X139778628Y-110326190D02*
X139254819Y-109992857D01*
X140254819Y-109135714D02*
X140254819Y-109707142D01*
X140254819Y-109421428D02*
X139254819Y-109421428D01*
X139254819Y-109421428D02*
X139397676Y-109516666D01*
X139397676Y-109516666D02*
X139492914Y-109611904D01*
X139492914Y-109611904D02*
X139540533Y-109707142D01*
X159600595Y-129554819D02*
X159600595Y-130364342D01*
X159600595Y-130364342D02*
X159648214Y-130459580D01*
X159648214Y-130459580D02*
X159695833Y-130507200D01*
X159695833Y-130507200D02*
X159791071Y-130554819D01*
X159791071Y-130554819D02*
X159981547Y-130554819D01*
X159981547Y-130554819D02*
X160076785Y-130507200D01*
X160076785Y-130507200D02*
X160124404Y-130459580D01*
X160124404Y-130459580D02*
X160172023Y-130364342D01*
X160172023Y-130364342D02*
X160172023Y-129554819D01*
X161076785Y-129888152D02*
X161076785Y-130554819D01*
X160838690Y-129507200D02*
X160600595Y-130221485D01*
X160600595Y-130221485D02*
X161219642Y-130221485D01*
X119142319Y-133179166D02*
X118666128Y-133512499D01*
X119142319Y-133750594D02*
X118142319Y-133750594D01*
X118142319Y-133750594D02*
X118142319Y-133369642D01*
X118142319Y-133369642D02*
X118189938Y-133274404D01*
X118189938Y-133274404D02*
X118237557Y-133226785D01*
X118237557Y-133226785D02*
X118332795Y-133179166D01*
X118332795Y-133179166D02*
X118475652Y-133179166D01*
X118475652Y-133179166D02*
X118570890Y-133226785D01*
X118570890Y-133226785D02*
X118618509Y-133274404D01*
X118618509Y-133274404D02*
X118666128Y-133369642D01*
X118666128Y-133369642D02*
X118666128Y-133750594D01*
X118570890Y-132607737D02*
X118523271Y-132702975D01*
X118523271Y-132702975D02*
X118475652Y-132750594D01*
X118475652Y-132750594D02*
X118380414Y-132798213D01*
X118380414Y-132798213D02*
X118332795Y-132798213D01*
X118332795Y-132798213D02*
X118237557Y-132750594D01*
X118237557Y-132750594D02*
X118189938Y-132702975D01*
X118189938Y-132702975D02*
X118142319Y-132607737D01*
X118142319Y-132607737D02*
X118142319Y-132417261D01*
X118142319Y-132417261D02*
X118189938Y-132322023D01*
X118189938Y-132322023D02*
X118237557Y-132274404D01*
X118237557Y-132274404D02*
X118332795Y-132226785D01*
X118332795Y-132226785D02*
X118380414Y-132226785D01*
X118380414Y-132226785D02*
X118475652Y-132274404D01*
X118475652Y-132274404D02*
X118523271Y-132322023D01*
X118523271Y-132322023D02*
X118570890Y-132417261D01*
X118570890Y-132417261D02*
X118570890Y-132607737D01*
X118570890Y-132607737D02*
X118618509Y-132702975D01*
X118618509Y-132702975D02*
X118666128Y-132750594D01*
X118666128Y-132750594D02*
X118761366Y-132798213D01*
X118761366Y-132798213D02*
X118951842Y-132798213D01*
X118951842Y-132798213D02*
X119047080Y-132750594D01*
X119047080Y-132750594D02*
X119094700Y-132702975D01*
X119094700Y-132702975D02*
X119142319Y-132607737D01*
X119142319Y-132607737D02*
X119142319Y-132417261D01*
X119142319Y-132417261D02*
X119094700Y-132322023D01*
X119094700Y-132322023D02*
X119047080Y-132274404D01*
X119047080Y-132274404D02*
X118951842Y-132226785D01*
X118951842Y-132226785D02*
X118761366Y-132226785D01*
X118761366Y-132226785D02*
X118666128Y-132274404D01*
X118666128Y-132274404D02*
X118618509Y-132322023D01*
X118618509Y-132322023D02*
X118570890Y-132417261D01*
X155357142Y-130454819D02*
X155023809Y-129978628D01*
X154785714Y-130454819D02*
X154785714Y-129454819D01*
X154785714Y-129454819D02*
X155166666Y-129454819D01*
X155166666Y-129454819D02*
X155261904Y-129502438D01*
X155261904Y-129502438D02*
X155309523Y-129550057D01*
X155309523Y-129550057D02*
X155357142Y-129645295D01*
X155357142Y-129645295D02*
X155357142Y-129788152D01*
X155357142Y-129788152D02*
X155309523Y-129883390D01*
X155309523Y-129883390D02*
X155261904Y-129931009D01*
X155261904Y-129931009D02*
X155166666Y-129978628D01*
X155166666Y-129978628D02*
X154785714Y-129978628D01*
X156309523Y-130454819D02*
X155738095Y-130454819D01*
X156023809Y-130454819D02*
X156023809Y-129454819D01*
X156023809Y-129454819D02*
X155928571Y-129597676D01*
X155928571Y-129597676D02*
X155833333Y-129692914D01*
X155833333Y-129692914D02*
X155738095Y-129740533D01*
X156928571Y-129454819D02*
X157023809Y-129454819D01*
X157023809Y-129454819D02*
X157119047Y-129502438D01*
X157119047Y-129502438D02*
X157166666Y-129550057D01*
X157166666Y-129550057D02*
X157214285Y-129645295D01*
X157214285Y-129645295D02*
X157261904Y-129835771D01*
X157261904Y-129835771D02*
X157261904Y-130073866D01*
X157261904Y-130073866D02*
X157214285Y-130264342D01*
X157214285Y-130264342D02*
X157166666Y-130359580D01*
X157166666Y-130359580D02*
X157119047Y-130407200D01*
X157119047Y-130407200D02*
X157023809Y-130454819D01*
X157023809Y-130454819D02*
X156928571Y-130454819D01*
X156928571Y-130454819D02*
X156833333Y-130407200D01*
X156833333Y-130407200D02*
X156785714Y-130359580D01*
X156785714Y-130359580D02*
X156738095Y-130264342D01*
X156738095Y-130264342D02*
X156690476Y-130073866D01*
X156690476Y-130073866D02*
X156690476Y-129835771D01*
X156690476Y-129835771D02*
X156738095Y-129645295D01*
X156738095Y-129645295D02*
X156785714Y-129550057D01*
X156785714Y-129550057D02*
X156833333Y-129502438D01*
X156833333Y-129502438D02*
X156928571Y-129454819D01*
X158186666Y-61154819D02*
X158186666Y-61869104D01*
X158186666Y-61869104D02*
X158139047Y-62011961D01*
X158139047Y-62011961D02*
X158043809Y-62107200D01*
X158043809Y-62107200D02*
X157900952Y-62154819D01*
X157900952Y-62154819D02*
X157805714Y-62154819D01*
X158615238Y-61250057D02*
X158662857Y-61202438D01*
X158662857Y-61202438D02*
X158758095Y-61154819D01*
X158758095Y-61154819D02*
X158996190Y-61154819D01*
X158996190Y-61154819D02*
X159091428Y-61202438D01*
X159091428Y-61202438D02*
X159139047Y-61250057D01*
X159139047Y-61250057D02*
X159186666Y-61345295D01*
X159186666Y-61345295D02*
X159186666Y-61440533D01*
X159186666Y-61440533D02*
X159139047Y-61583390D01*
X159139047Y-61583390D02*
X158567619Y-62154819D01*
X158567619Y-62154819D02*
X159186666Y-62154819D01*
X145183333Y-101384580D02*
X145135714Y-101432200D01*
X145135714Y-101432200D02*
X144992857Y-101479819D01*
X144992857Y-101479819D02*
X144897619Y-101479819D01*
X144897619Y-101479819D02*
X144754762Y-101432200D01*
X144754762Y-101432200D02*
X144659524Y-101336961D01*
X144659524Y-101336961D02*
X144611905Y-101241723D01*
X144611905Y-101241723D02*
X144564286Y-101051247D01*
X144564286Y-101051247D02*
X144564286Y-100908390D01*
X144564286Y-100908390D02*
X144611905Y-100717914D01*
X144611905Y-100717914D02*
X144659524Y-100622676D01*
X144659524Y-100622676D02*
X144754762Y-100527438D01*
X144754762Y-100527438D02*
X144897619Y-100479819D01*
X144897619Y-100479819D02*
X144992857Y-100479819D01*
X144992857Y-100479819D02*
X145135714Y-100527438D01*
X145135714Y-100527438D02*
X145183333Y-100575057D01*
X145516667Y-100479819D02*
X146183333Y-100479819D01*
X146183333Y-100479819D02*
X145754762Y-101479819D01*
X117964286Y-114207200D02*
X118107143Y-114254819D01*
X118107143Y-114254819D02*
X118345238Y-114254819D01*
X118345238Y-114254819D02*
X118440476Y-114207200D01*
X118440476Y-114207200D02*
X118488095Y-114159580D01*
X118488095Y-114159580D02*
X118535714Y-114064342D01*
X118535714Y-114064342D02*
X118535714Y-113969104D01*
X118535714Y-113969104D02*
X118488095Y-113873866D01*
X118488095Y-113873866D02*
X118440476Y-113826247D01*
X118440476Y-113826247D02*
X118345238Y-113778628D01*
X118345238Y-113778628D02*
X118154762Y-113731009D01*
X118154762Y-113731009D02*
X118059524Y-113683390D01*
X118059524Y-113683390D02*
X118011905Y-113635771D01*
X118011905Y-113635771D02*
X117964286Y-113540533D01*
X117964286Y-113540533D02*
X117964286Y-113445295D01*
X117964286Y-113445295D02*
X118011905Y-113350057D01*
X118011905Y-113350057D02*
X118059524Y-113302438D01*
X118059524Y-113302438D02*
X118154762Y-113254819D01*
X118154762Y-113254819D02*
X118392857Y-113254819D01*
X118392857Y-113254819D02*
X118535714Y-113302438D01*
X118964286Y-113731009D02*
X119297619Y-113731009D01*
X119440476Y-114254819D02*
X118964286Y-114254819D01*
X118964286Y-114254819D02*
X118964286Y-113254819D01*
X118964286Y-113254819D02*
X119440476Y-113254819D01*
X120440476Y-114254819D02*
X120107143Y-113778628D01*
X119869048Y-114254819D02*
X119869048Y-113254819D01*
X119869048Y-113254819D02*
X120250000Y-113254819D01*
X120250000Y-113254819D02*
X120345238Y-113302438D01*
X120345238Y-113302438D02*
X120392857Y-113350057D01*
X120392857Y-113350057D02*
X120440476Y-113445295D01*
X120440476Y-113445295D02*
X120440476Y-113588152D01*
X120440476Y-113588152D02*
X120392857Y-113683390D01*
X120392857Y-113683390D02*
X120345238Y-113731009D01*
X120345238Y-113731009D02*
X120250000Y-113778628D01*
X120250000Y-113778628D02*
X119869048Y-113778628D01*
X120869048Y-114254819D02*
X120869048Y-113254819D01*
X121297619Y-113969104D02*
X121773809Y-113969104D01*
X121202381Y-114254819D02*
X121535714Y-113254819D01*
X121535714Y-113254819D02*
X121869047Y-114254819D01*
X122678571Y-114254819D02*
X122202381Y-114254819D01*
X122202381Y-114254819D02*
X122202381Y-113254819D01*
X122964286Y-113350057D02*
X123011905Y-113302438D01*
X123011905Y-113302438D02*
X123107143Y-113254819D01*
X123107143Y-113254819D02*
X123345238Y-113254819D01*
X123345238Y-113254819D02*
X123440476Y-113302438D01*
X123440476Y-113302438D02*
X123488095Y-113350057D01*
X123488095Y-113350057D02*
X123535714Y-113445295D01*
X123535714Y-113445295D02*
X123535714Y-113540533D01*
X123535714Y-113540533D02*
X123488095Y-113683390D01*
X123488095Y-113683390D02*
X122916667Y-114254819D01*
X122916667Y-114254819D02*
X123535714Y-114254819D01*
X110064286Y-114107200D02*
X110207143Y-114154819D01*
X110207143Y-114154819D02*
X110445238Y-114154819D01*
X110445238Y-114154819D02*
X110540476Y-114107200D01*
X110540476Y-114107200D02*
X110588095Y-114059580D01*
X110588095Y-114059580D02*
X110635714Y-113964342D01*
X110635714Y-113964342D02*
X110635714Y-113869104D01*
X110635714Y-113869104D02*
X110588095Y-113773866D01*
X110588095Y-113773866D02*
X110540476Y-113726247D01*
X110540476Y-113726247D02*
X110445238Y-113678628D01*
X110445238Y-113678628D02*
X110254762Y-113631009D01*
X110254762Y-113631009D02*
X110159524Y-113583390D01*
X110159524Y-113583390D02*
X110111905Y-113535771D01*
X110111905Y-113535771D02*
X110064286Y-113440533D01*
X110064286Y-113440533D02*
X110064286Y-113345295D01*
X110064286Y-113345295D02*
X110111905Y-113250057D01*
X110111905Y-113250057D02*
X110159524Y-113202438D01*
X110159524Y-113202438D02*
X110254762Y-113154819D01*
X110254762Y-113154819D02*
X110492857Y-113154819D01*
X110492857Y-113154819D02*
X110635714Y-113202438D01*
X111064286Y-113631009D02*
X111397619Y-113631009D01*
X111540476Y-114154819D02*
X111064286Y-114154819D01*
X111064286Y-114154819D02*
X111064286Y-113154819D01*
X111064286Y-113154819D02*
X111540476Y-113154819D01*
X112540476Y-114154819D02*
X112207143Y-113678628D01*
X111969048Y-114154819D02*
X111969048Y-113154819D01*
X111969048Y-113154819D02*
X112350000Y-113154819D01*
X112350000Y-113154819D02*
X112445238Y-113202438D01*
X112445238Y-113202438D02*
X112492857Y-113250057D01*
X112492857Y-113250057D02*
X112540476Y-113345295D01*
X112540476Y-113345295D02*
X112540476Y-113488152D01*
X112540476Y-113488152D02*
X112492857Y-113583390D01*
X112492857Y-113583390D02*
X112445238Y-113631009D01*
X112445238Y-113631009D02*
X112350000Y-113678628D01*
X112350000Y-113678628D02*
X111969048Y-113678628D01*
X112969048Y-114154819D02*
X112969048Y-113154819D01*
X113397619Y-113869104D02*
X113873809Y-113869104D01*
X113302381Y-114154819D02*
X113635714Y-113154819D01*
X113635714Y-113154819D02*
X113969047Y-114154819D01*
X114778571Y-114154819D02*
X114302381Y-114154819D01*
X114302381Y-114154819D02*
X114302381Y-113154819D01*
X115635714Y-114154819D02*
X115064286Y-114154819D01*
X115350000Y-114154819D02*
X115350000Y-113154819D01*
X115350000Y-113154819D02*
X115254762Y-113297676D01*
X115254762Y-113297676D02*
X115159524Y-113392914D01*
X115159524Y-113392914D02*
X115064286Y-113440533D01*
X149686666Y-61154819D02*
X149686666Y-61869104D01*
X149686666Y-61869104D02*
X149639047Y-62011961D01*
X149639047Y-62011961D02*
X149543809Y-62107200D01*
X149543809Y-62107200D02*
X149400952Y-62154819D01*
X149400952Y-62154819D02*
X149305714Y-62154819D01*
X150067619Y-61154819D02*
X150686666Y-61154819D01*
X150686666Y-61154819D02*
X150353333Y-61535771D01*
X150353333Y-61535771D02*
X150496190Y-61535771D01*
X150496190Y-61535771D02*
X150591428Y-61583390D01*
X150591428Y-61583390D02*
X150639047Y-61631009D01*
X150639047Y-61631009D02*
X150686666Y-61726247D01*
X150686666Y-61726247D02*
X150686666Y-61964342D01*
X150686666Y-61964342D02*
X150639047Y-62059580D01*
X150639047Y-62059580D02*
X150591428Y-62107200D01*
X150591428Y-62107200D02*
X150496190Y-62154819D01*
X150496190Y-62154819D02*
X150210476Y-62154819D01*
X150210476Y-62154819D02*
X150115238Y-62107200D01*
X150115238Y-62107200D02*
X150067619Y-62059580D01*
X141133333Y-116209580D02*
X141085714Y-116257200D01*
X141085714Y-116257200D02*
X140942857Y-116304819D01*
X140942857Y-116304819D02*
X140847619Y-116304819D01*
X140847619Y-116304819D02*
X140704762Y-116257200D01*
X140704762Y-116257200D02*
X140609524Y-116161961D01*
X140609524Y-116161961D02*
X140561905Y-116066723D01*
X140561905Y-116066723D02*
X140514286Y-115876247D01*
X140514286Y-115876247D02*
X140514286Y-115733390D01*
X140514286Y-115733390D02*
X140561905Y-115542914D01*
X140561905Y-115542914D02*
X140609524Y-115447676D01*
X140609524Y-115447676D02*
X140704762Y-115352438D01*
X140704762Y-115352438D02*
X140847619Y-115304819D01*
X140847619Y-115304819D02*
X140942857Y-115304819D01*
X140942857Y-115304819D02*
X141085714Y-115352438D01*
X141085714Y-115352438D02*
X141133333Y-115400057D01*
X141466667Y-115304819D02*
X142085714Y-115304819D01*
X142085714Y-115304819D02*
X141752381Y-115685771D01*
X141752381Y-115685771D02*
X141895238Y-115685771D01*
X141895238Y-115685771D02*
X141990476Y-115733390D01*
X141990476Y-115733390D02*
X142038095Y-115781009D01*
X142038095Y-115781009D02*
X142085714Y-115876247D01*
X142085714Y-115876247D02*
X142085714Y-116114342D01*
X142085714Y-116114342D02*
X142038095Y-116209580D01*
X142038095Y-116209580D02*
X141990476Y-116257200D01*
X141990476Y-116257200D02*
X141895238Y-116304819D01*
X141895238Y-116304819D02*
X141609524Y-116304819D01*
X141609524Y-116304819D02*
X141514286Y-116257200D01*
X141514286Y-116257200D02*
X141466667Y-116209580D01*
X164933333Y-123954819D02*
X164600000Y-123478628D01*
X164361905Y-123954819D02*
X164361905Y-122954819D01*
X164361905Y-122954819D02*
X164742857Y-122954819D01*
X164742857Y-122954819D02*
X164838095Y-123002438D01*
X164838095Y-123002438D02*
X164885714Y-123050057D01*
X164885714Y-123050057D02*
X164933333Y-123145295D01*
X164933333Y-123145295D02*
X164933333Y-123288152D01*
X164933333Y-123288152D02*
X164885714Y-123383390D01*
X164885714Y-123383390D02*
X164838095Y-123431009D01*
X164838095Y-123431009D02*
X164742857Y-123478628D01*
X164742857Y-123478628D02*
X164361905Y-123478628D01*
X165409524Y-123954819D02*
X165600000Y-123954819D01*
X165600000Y-123954819D02*
X165695238Y-123907200D01*
X165695238Y-123907200D02*
X165742857Y-123859580D01*
X165742857Y-123859580D02*
X165838095Y-123716723D01*
X165838095Y-123716723D02*
X165885714Y-123526247D01*
X165885714Y-123526247D02*
X165885714Y-123145295D01*
X165885714Y-123145295D02*
X165838095Y-123050057D01*
X165838095Y-123050057D02*
X165790476Y-123002438D01*
X165790476Y-123002438D02*
X165695238Y-122954819D01*
X165695238Y-122954819D02*
X165504762Y-122954819D01*
X165504762Y-122954819D02*
X165409524Y-123002438D01*
X165409524Y-123002438D02*
X165361905Y-123050057D01*
X165361905Y-123050057D02*
X165314286Y-123145295D01*
X165314286Y-123145295D02*
X165314286Y-123383390D01*
X165314286Y-123383390D02*
X165361905Y-123478628D01*
X165361905Y-123478628D02*
X165409524Y-123526247D01*
X165409524Y-123526247D02*
X165504762Y-123573866D01*
X165504762Y-123573866D02*
X165695238Y-123573866D01*
X165695238Y-123573866D02*
X165790476Y-123526247D01*
X165790476Y-123526247D02*
X165838095Y-123478628D01*
X165838095Y-123478628D02*
X165885714Y-123383390D01*
X152261905Y-128644819D02*
X152261905Y-127644819D01*
X152261905Y-127644819D02*
X152500000Y-127644819D01*
X152500000Y-127644819D02*
X152642857Y-127692438D01*
X152642857Y-127692438D02*
X152738095Y-127787676D01*
X152738095Y-127787676D02*
X152785714Y-127882914D01*
X152785714Y-127882914D02*
X152833333Y-128073390D01*
X152833333Y-128073390D02*
X152833333Y-128216247D01*
X152833333Y-128216247D02*
X152785714Y-128406723D01*
X152785714Y-128406723D02*
X152738095Y-128501961D01*
X152738095Y-128501961D02*
X152642857Y-128597200D01*
X152642857Y-128597200D02*
X152500000Y-128644819D01*
X152500000Y-128644819D02*
X152261905Y-128644819D01*
X153785714Y-128644819D02*
X153214286Y-128644819D01*
X153500000Y-128644819D02*
X153500000Y-127644819D01*
X153500000Y-127644819D02*
X153404762Y-127787676D01*
X153404762Y-127787676D02*
X153309524Y-127882914D01*
X153309524Y-127882914D02*
X153214286Y-127930533D01*
X158733333Y-73254819D02*
X158400000Y-72778628D01*
X158161905Y-73254819D02*
X158161905Y-72254819D01*
X158161905Y-72254819D02*
X158542857Y-72254819D01*
X158542857Y-72254819D02*
X158638095Y-72302438D01*
X158638095Y-72302438D02*
X158685714Y-72350057D01*
X158685714Y-72350057D02*
X158733333Y-72445295D01*
X158733333Y-72445295D02*
X158733333Y-72588152D01*
X158733333Y-72588152D02*
X158685714Y-72683390D01*
X158685714Y-72683390D02*
X158638095Y-72731009D01*
X158638095Y-72731009D02*
X158542857Y-72778628D01*
X158542857Y-72778628D02*
X158161905Y-72778628D01*
X159066667Y-72254819D02*
X159685714Y-72254819D01*
X159685714Y-72254819D02*
X159352381Y-72635771D01*
X159352381Y-72635771D02*
X159495238Y-72635771D01*
X159495238Y-72635771D02*
X159590476Y-72683390D01*
X159590476Y-72683390D02*
X159638095Y-72731009D01*
X159638095Y-72731009D02*
X159685714Y-72826247D01*
X159685714Y-72826247D02*
X159685714Y-73064342D01*
X159685714Y-73064342D02*
X159638095Y-73159580D01*
X159638095Y-73159580D02*
X159590476Y-73207200D01*
X159590476Y-73207200D02*
X159495238Y-73254819D01*
X159495238Y-73254819D02*
X159209524Y-73254819D01*
X159209524Y-73254819D02*
X159114286Y-73207200D01*
X159114286Y-73207200D02*
X159066667Y-73159580D01*
X119833333Y-79359580D02*
X119785714Y-79407200D01*
X119785714Y-79407200D02*
X119642857Y-79454819D01*
X119642857Y-79454819D02*
X119547619Y-79454819D01*
X119547619Y-79454819D02*
X119404762Y-79407200D01*
X119404762Y-79407200D02*
X119309524Y-79311961D01*
X119309524Y-79311961D02*
X119261905Y-79216723D01*
X119261905Y-79216723D02*
X119214286Y-79026247D01*
X119214286Y-79026247D02*
X119214286Y-78883390D01*
X119214286Y-78883390D02*
X119261905Y-78692914D01*
X119261905Y-78692914D02*
X119309524Y-78597676D01*
X119309524Y-78597676D02*
X119404762Y-78502438D01*
X119404762Y-78502438D02*
X119547619Y-78454819D01*
X119547619Y-78454819D02*
X119642857Y-78454819D01*
X119642857Y-78454819D02*
X119785714Y-78502438D01*
X119785714Y-78502438D02*
X119833333Y-78550057D01*
X120404762Y-78883390D02*
X120309524Y-78835771D01*
X120309524Y-78835771D02*
X120261905Y-78788152D01*
X120261905Y-78788152D02*
X120214286Y-78692914D01*
X120214286Y-78692914D02*
X120214286Y-78645295D01*
X120214286Y-78645295D02*
X120261905Y-78550057D01*
X120261905Y-78550057D02*
X120309524Y-78502438D01*
X120309524Y-78502438D02*
X120404762Y-78454819D01*
X120404762Y-78454819D02*
X120595238Y-78454819D01*
X120595238Y-78454819D02*
X120690476Y-78502438D01*
X120690476Y-78502438D02*
X120738095Y-78550057D01*
X120738095Y-78550057D02*
X120785714Y-78645295D01*
X120785714Y-78645295D02*
X120785714Y-78692914D01*
X120785714Y-78692914D02*
X120738095Y-78788152D01*
X120738095Y-78788152D02*
X120690476Y-78835771D01*
X120690476Y-78835771D02*
X120595238Y-78883390D01*
X120595238Y-78883390D02*
X120404762Y-78883390D01*
X120404762Y-78883390D02*
X120309524Y-78931009D01*
X120309524Y-78931009D02*
X120261905Y-78978628D01*
X120261905Y-78978628D02*
X120214286Y-79073866D01*
X120214286Y-79073866D02*
X120214286Y-79264342D01*
X120214286Y-79264342D02*
X120261905Y-79359580D01*
X120261905Y-79359580D02*
X120309524Y-79407200D01*
X120309524Y-79407200D02*
X120404762Y-79454819D01*
X120404762Y-79454819D02*
X120595238Y-79454819D01*
X120595238Y-79454819D02*
X120690476Y-79407200D01*
X120690476Y-79407200D02*
X120738095Y-79359580D01*
X120738095Y-79359580D02*
X120785714Y-79264342D01*
X120785714Y-79264342D02*
X120785714Y-79073866D01*
X120785714Y-79073866D02*
X120738095Y-78978628D01*
X120738095Y-78978628D02*
X120690476Y-78931009D01*
X120690476Y-78931009D02*
X120595238Y-78883390D01*
D11*
X157366904Y-137224318D02*
X157366904Y-135954318D01*
X157366904Y-135954318D02*
X157850714Y-135954318D01*
X157850714Y-135954318D02*
X157971666Y-136014794D01*
X157971666Y-136014794D02*
X158032143Y-136075270D01*
X158032143Y-136075270D02*
X158092619Y-136196222D01*
X158092619Y-136196222D02*
X158092619Y-136377651D01*
X158092619Y-136377651D02*
X158032143Y-136498603D01*
X158032143Y-136498603D02*
X157971666Y-136559080D01*
X157971666Y-136559080D02*
X157850714Y-136619556D01*
X157850714Y-136619556D02*
X157366904Y-136619556D01*
X158878809Y-135954318D02*
X159120714Y-135954318D01*
X159120714Y-135954318D02*
X159241666Y-136014794D01*
X159241666Y-136014794D02*
X159362619Y-136135746D01*
X159362619Y-136135746D02*
X159423095Y-136377651D01*
X159423095Y-136377651D02*
X159423095Y-136800984D01*
X159423095Y-136800984D02*
X159362619Y-137042889D01*
X159362619Y-137042889D02*
X159241666Y-137163842D01*
X159241666Y-137163842D02*
X159120714Y-137224318D01*
X159120714Y-137224318D02*
X158878809Y-137224318D01*
X158878809Y-137224318D02*
X158757857Y-137163842D01*
X158757857Y-137163842D02*
X158636904Y-137042889D01*
X158636904Y-137042889D02*
X158576428Y-136800984D01*
X158576428Y-136800984D02*
X158576428Y-136377651D01*
X158576428Y-136377651D02*
X158636904Y-136135746D01*
X158636904Y-136135746D02*
X158757857Y-136014794D01*
X158757857Y-136014794D02*
X158878809Y-135954318D01*
X159846428Y-135954318D02*
X160148809Y-137224318D01*
X160148809Y-137224318D02*
X160390714Y-136317175D01*
X160390714Y-136317175D02*
X160632619Y-137224318D01*
X160632619Y-137224318D02*
X160935000Y-135954318D01*
X161418809Y-136559080D02*
X161842143Y-136559080D01*
X162023571Y-137224318D02*
X161418809Y-137224318D01*
X161418809Y-137224318D02*
X161418809Y-135954318D01*
X161418809Y-135954318D02*
X162023571Y-135954318D01*
X163293572Y-137224318D02*
X162870238Y-136619556D01*
X162567857Y-137224318D02*
X162567857Y-135954318D01*
X162567857Y-135954318D02*
X163051667Y-135954318D01*
X163051667Y-135954318D02*
X163172619Y-136014794D01*
X163172619Y-136014794D02*
X163233096Y-136075270D01*
X163233096Y-136075270D02*
X163293572Y-136196222D01*
X163293572Y-136196222D02*
X163293572Y-136377651D01*
X163293572Y-136377651D02*
X163233096Y-136498603D01*
X163233096Y-136498603D02*
X163172619Y-136559080D01*
X163172619Y-136559080D02*
X163051667Y-136619556D01*
X163051667Y-136619556D02*
X162567857Y-136619556D01*
D10*
X158333333Y-81254819D02*
X158000000Y-80778628D01*
X157761905Y-81254819D02*
X157761905Y-80254819D01*
X157761905Y-80254819D02*
X158142857Y-80254819D01*
X158142857Y-80254819D02*
X158238095Y-80302438D01*
X158238095Y-80302438D02*
X158285714Y-80350057D01*
X158285714Y-80350057D02*
X158333333Y-80445295D01*
X158333333Y-80445295D02*
X158333333Y-80588152D01*
X158333333Y-80588152D02*
X158285714Y-80683390D01*
X158285714Y-80683390D02*
X158238095Y-80731009D01*
X158238095Y-80731009D02*
X158142857Y-80778628D01*
X158142857Y-80778628D02*
X157761905Y-80778628D01*
X159238095Y-80254819D02*
X158761905Y-80254819D01*
X158761905Y-80254819D02*
X158714286Y-80731009D01*
X158714286Y-80731009D02*
X158761905Y-80683390D01*
X158761905Y-80683390D02*
X158857143Y-80635771D01*
X158857143Y-80635771D02*
X159095238Y-80635771D01*
X159095238Y-80635771D02*
X159190476Y-80683390D01*
X159190476Y-80683390D02*
X159238095Y-80731009D01*
X159238095Y-80731009D02*
X159285714Y-80826247D01*
X159285714Y-80826247D02*
X159285714Y-81064342D01*
X159285714Y-81064342D02*
X159238095Y-81159580D01*
X159238095Y-81159580D02*
X159190476Y-81207200D01*
X159190476Y-81207200D02*
X159095238Y-81254819D01*
X159095238Y-81254819D02*
X158857143Y-81254819D01*
X158857143Y-81254819D02*
X158761905Y-81207200D01*
X158761905Y-81207200D02*
X158714286Y-81159580D01*
X154583333Y-85354819D02*
X154250000Y-84878628D01*
X154011905Y-85354819D02*
X154011905Y-84354819D01*
X154011905Y-84354819D02*
X154392857Y-84354819D01*
X154392857Y-84354819D02*
X154488095Y-84402438D01*
X154488095Y-84402438D02*
X154535714Y-84450057D01*
X154535714Y-84450057D02*
X154583333Y-84545295D01*
X154583333Y-84545295D02*
X154583333Y-84688152D01*
X154583333Y-84688152D02*
X154535714Y-84783390D01*
X154535714Y-84783390D02*
X154488095Y-84831009D01*
X154488095Y-84831009D02*
X154392857Y-84878628D01*
X154392857Y-84878628D02*
X154011905Y-84878628D01*
X154916667Y-84354819D02*
X155583333Y-85354819D01*
X155583333Y-84354819D02*
X154916667Y-85354819D01*
X160338095Y-123054819D02*
X160338095Y-123864342D01*
X160338095Y-123864342D02*
X160385714Y-123959580D01*
X160385714Y-123959580D02*
X160433333Y-124007200D01*
X160433333Y-124007200D02*
X160528571Y-124054819D01*
X160528571Y-124054819D02*
X160719047Y-124054819D01*
X160719047Y-124054819D02*
X160814285Y-124007200D01*
X160814285Y-124007200D02*
X160861904Y-123959580D01*
X160861904Y-123959580D02*
X160909523Y-123864342D01*
X160909523Y-123864342D02*
X160909523Y-123054819D01*
X161290476Y-123054819D02*
X161909523Y-123054819D01*
X161909523Y-123054819D02*
X161576190Y-123435771D01*
X161576190Y-123435771D02*
X161719047Y-123435771D01*
X161719047Y-123435771D02*
X161814285Y-123483390D01*
X161814285Y-123483390D02*
X161861904Y-123531009D01*
X161861904Y-123531009D02*
X161909523Y-123626247D01*
X161909523Y-123626247D02*
X161909523Y-123864342D01*
X161909523Y-123864342D02*
X161861904Y-123959580D01*
X161861904Y-123959580D02*
X161814285Y-124007200D01*
X161814285Y-124007200D02*
X161719047Y-124054819D01*
X161719047Y-124054819D02*
X161433333Y-124054819D01*
X161433333Y-124054819D02*
X161338095Y-124007200D01*
X161338095Y-124007200D02*
X161290476Y-123959580D01*
X148680952Y-135281009D02*
X148823809Y-135328628D01*
X148823809Y-135328628D02*
X148871428Y-135376247D01*
X148871428Y-135376247D02*
X148919047Y-135471485D01*
X148919047Y-135471485D02*
X148919047Y-135614342D01*
X148919047Y-135614342D02*
X148871428Y-135709580D01*
X148871428Y-135709580D02*
X148823809Y-135757200D01*
X148823809Y-135757200D02*
X148728571Y-135804819D01*
X148728571Y-135804819D02*
X148347619Y-135804819D01*
X148347619Y-135804819D02*
X148347619Y-134804819D01*
X148347619Y-134804819D02*
X148680952Y-134804819D01*
X148680952Y-134804819D02*
X148776190Y-134852438D01*
X148776190Y-134852438D02*
X148823809Y-134900057D01*
X148823809Y-134900057D02*
X148871428Y-134995295D01*
X148871428Y-134995295D02*
X148871428Y-135090533D01*
X148871428Y-135090533D02*
X148823809Y-135185771D01*
X148823809Y-135185771D02*
X148776190Y-135233390D01*
X148776190Y-135233390D02*
X148680952Y-135281009D01*
X148680952Y-135281009D02*
X148347619Y-135281009D01*
X149300000Y-135519104D02*
X149776190Y-135519104D01*
X149204762Y-135804819D02*
X149538095Y-134804819D01*
X149538095Y-134804819D02*
X149871428Y-135804819D01*
X150061905Y-134804819D02*
X150633333Y-134804819D01*
X150347619Y-135804819D02*
X150347619Y-134804819D01*
X150823810Y-134804819D02*
X151395238Y-134804819D01*
X151109524Y-135804819D02*
X151109524Y-134804819D01*
X134738095Y-104054819D02*
X134738095Y-104864342D01*
X134738095Y-104864342D02*
X134785714Y-104959580D01*
X134785714Y-104959580D02*
X134833333Y-105007200D01*
X134833333Y-105007200D02*
X134928571Y-105054819D01*
X134928571Y-105054819D02*
X135119047Y-105054819D01*
X135119047Y-105054819D02*
X135214285Y-105007200D01*
X135214285Y-105007200D02*
X135261904Y-104959580D01*
X135261904Y-104959580D02*
X135309523Y-104864342D01*
X135309523Y-104864342D02*
X135309523Y-104054819D01*
X136309523Y-105054819D02*
X135738095Y-105054819D01*
X136023809Y-105054819D02*
X136023809Y-104054819D01*
X136023809Y-104054819D02*
X135928571Y-104197676D01*
X135928571Y-104197676D02*
X135833333Y-104292914D01*
X135833333Y-104292914D02*
X135738095Y-104340533D01*
X172640952Y-114679104D02*
X173117142Y-114679104D01*
X172545714Y-114964819D02*
X172879047Y-113964819D01*
X172879047Y-113964819D02*
X173212380Y-114964819D01*
X173545714Y-114964819D02*
X173545714Y-113964819D01*
X173545714Y-113964819D02*
X174117142Y-114964819D01*
X174117142Y-114964819D02*
X174117142Y-113964819D01*
X174545714Y-114679104D02*
X175021904Y-114679104D01*
X174450476Y-114964819D02*
X174783809Y-113964819D01*
X174783809Y-113964819D02*
X175117142Y-114964819D01*
X175926666Y-114964819D02*
X175450476Y-114964819D01*
X175450476Y-114964819D02*
X175450476Y-113964819D01*
X176450476Y-113964819D02*
X176640952Y-113964819D01*
X176640952Y-113964819D02*
X176736190Y-114012438D01*
X176736190Y-114012438D02*
X176831428Y-114107676D01*
X176831428Y-114107676D02*
X176879047Y-114298152D01*
X176879047Y-114298152D02*
X176879047Y-114631485D01*
X176879047Y-114631485D02*
X176831428Y-114821961D01*
X176831428Y-114821961D02*
X176736190Y-114917200D01*
X176736190Y-114917200D02*
X176640952Y-114964819D01*
X176640952Y-114964819D02*
X176450476Y-114964819D01*
X176450476Y-114964819D02*
X176355238Y-114917200D01*
X176355238Y-114917200D02*
X176260000Y-114821961D01*
X176260000Y-114821961D02*
X176212381Y-114631485D01*
X176212381Y-114631485D02*
X176212381Y-114298152D01*
X176212381Y-114298152D02*
X176260000Y-114107676D01*
X176260000Y-114107676D02*
X176355238Y-114012438D01*
X176355238Y-114012438D02*
X176450476Y-113964819D01*
X177831428Y-114012438D02*
X177736190Y-113964819D01*
X177736190Y-113964819D02*
X177593333Y-113964819D01*
X177593333Y-113964819D02*
X177450476Y-114012438D01*
X177450476Y-114012438D02*
X177355238Y-114107676D01*
X177355238Y-114107676D02*
X177307619Y-114202914D01*
X177307619Y-114202914D02*
X177260000Y-114393390D01*
X177260000Y-114393390D02*
X177260000Y-114536247D01*
X177260000Y-114536247D02*
X177307619Y-114726723D01*
X177307619Y-114726723D02*
X177355238Y-114821961D01*
X177355238Y-114821961D02*
X177450476Y-114917200D01*
X177450476Y-114917200D02*
X177593333Y-114964819D01*
X177593333Y-114964819D02*
X177688571Y-114964819D01*
X177688571Y-114964819D02*
X177831428Y-114917200D01*
X177831428Y-114917200D02*
X177879047Y-114869580D01*
X177879047Y-114869580D02*
X177879047Y-114536247D01*
X177879047Y-114536247D02*
X177688571Y-114536247D01*
X138395833Y-115359580D02*
X138348214Y-115407200D01*
X138348214Y-115407200D02*
X138205357Y-115454819D01*
X138205357Y-115454819D02*
X138110119Y-115454819D01*
X138110119Y-115454819D02*
X137967262Y-115407200D01*
X137967262Y-115407200D02*
X137872024Y-115311961D01*
X137872024Y-115311961D02*
X137824405Y-115216723D01*
X137824405Y-115216723D02*
X137776786Y-115026247D01*
X137776786Y-115026247D02*
X137776786Y-114883390D01*
X137776786Y-114883390D02*
X137824405Y-114692914D01*
X137824405Y-114692914D02*
X137872024Y-114597676D01*
X137872024Y-114597676D02*
X137967262Y-114502438D01*
X137967262Y-114502438D02*
X138110119Y-114454819D01*
X138110119Y-114454819D02*
X138205357Y-114454819D01*
X138205357Y-114454819D02*
X138348214Y-114502438D01*
X138348214Y-114502438D02*
X138395833Y-114550057D01*
X138776786Y-114550057D02*
X138824405Y-114502438D01*
X138824405Y-114502438D02*
X138919643Y-114454819D01*
X138919643Y-114454819D02*
X139157738Y-114454819D01*
X139157738Y-114454819D02*
X139252976Y-114502438D01*
X139252976Y-114502438D02*
X139300595Y-114550057D01*
X139300595Y-114550057D02*
X139348214Y-114645295D01*
X139348214Y-114645295D02*
X139348214Y-114740533D01*
X139348214Y-114740533D02*
X139300595Y-114883390D01*
X139300595Y-114883390D02*
X138729167Y-115454819D01*
X138729167Y-115454819D02*
X139348214Y-115454819D01*
X163857142Y-130359580D02*
X163809523Y-130407200D01*
X163809523Y-130407200D02*
X163666666Y-130454819D01*
X163666666Y-130454819D02*
X163571428Y-130454819D01*
X163571428Y-130454819D02*
X163428571Y-130407200D01*
X163428571Y-130407200D02*
X163333333Y-130311961D01*
X163333333Y-130311961D02*
X163285714Y-130216723D01*
X163285714Y-130216723D02*
X163238095Y-130026247D01*
X163238095Y-130026247D02*
X163238095Y-129883390D01*
X163238095Y-129883390D02*
X163285714Y-129692914D01*
X163285714Y-129692914D02*
X163333333Y-129597676D01*
X163333333Y-129597676D02*
X163428571Y-129502438D01*
X163428571Y-129502438D02*
X163571428Y-129454819D01*
X163571428Y-129454819D02*
X163666666Y-129454819D01*
X163666666Y-129454819D02*
X163809523Y-129502438D01*
X163809523Y-129502438D02*
X163857142Y-129550057D01*
X164809523Y-130454819D02*
X164238095Y-130454819D01*
X164523809Y-130454819D02*
X164523809Y-129454819D01*
X164523809Y-129454819D02*
X164428571Y-129597676D01*
X164428571Y-129597676D02*
X164333333Y-129692914D01*
X164333333Y-129692914D02*
X164238095Y-129740533D01*
X165142857Y-129454819D02*
X165761904Y-129454819D01*
X165761904Y-129454819D02*
X165428571Y-129835771D01*
X165428571Y-129835771D02*
X165571428Y-129835771D01*
X165571428Y-129835771D02*
X165666666Y-129883390D01*
X165666666Y-129883390D02*
X165714285Y-129931009D01*
X165714285Y-129931009D02*
X165761904Y-130026247D01*
X165761904Y-130026247D02*
X165761904Y-130264342D01*
X165761904Y-130264342D02*
X165714285Y-130359580D01*
X165714285Y-130359580D02*
X165666666Y-130407200D01*
X165666666Y-130407200D02*
X165571428Y-130454819D01*
X165571428Y-130454819D02*
X165285714Y-130454819D01*
X165285714Y-130454819D02*
X165190476Y-130407200D01*
X165190476Y-130407200D02*
X165142857Y-130359580D01*
X128533333Y-105659580D02*
X128485714Y-105707200D01*
X128485714Y-105707200D02*
X128342857Y-105754819D01*
X128342857Y-105754819D02*
X128247619Y-105754819D01*
X128247619Y-105754819D02*
X128104762Y-105707200D01*
X128104762Y-105707200D02*
X128009524Y-105611961D01*
X128009524Y-105611961D02*
X127961905Y-105516723D01*
X127961905Y-105516723D02*
X127914286Y-105326247D01*
X127914286Y-105326247D02*
X127914286Y-105183390D01*
X127914286Y-105183390D02*
X127961905Y-104992914D01*
X127961905Y-104992914D02*
X128009524Y-104897676D01*
X128009524Y-104897676D02*
X128104762Y-104802438D01*
X128104762Y-104802438D02*
X128247619Y-104754819D01*
X128247619Y-104754819D02*
X128342857Y-104754819D01*
X128342857Y-104754819D02*
X128485714Y-104802438D01*
X128485714Y-104802438D02*
X128533333Y-104850057D01*
X129438095Y-104754819D02*
X128961905Y-104754819D01*
X128961905Y-104754819D02*
X128914286Y-105231009D01*
X128914286Y-105231009D02*
X128961905Y-105183390D01*
X128961905Y-105183390D02*
X129057143Y-105135771D01*
X129057143Y-105135771D02*
X129295238Y-105135771D01*
X129295238Y-105135771D02*
X129390476Y-105183390D01*
X129390476Y-105183390D02*
X129438095Y-105231009D01*
X129438095Y-105231009D02*
X129485714Y-105326247D01*
X129485714Y-105326247D02*
X129485714Y-105564342D01*
X129485714Y-105564342D02*
X129438095Y-105659580D01*
X129438095Y-105659580D02*
X129390476Y-105707200D01*
X129390476Y-105707200D02*
X129295238Y-105754819D01*
X129295238Y-105754819D02*
X129057143Y-105754819D01*
X129057143Y-105754819D02*
X128961905Y-105707200D01*
X128961905Y-105707200D02*
X128914286Y-105659580D01*
X158333333Y-85254819D02*
X158000000Y-84778628D01*
X157761905Y-85254819D02*
X157761905Y-84254819D01*
X157761905Y-84254819D02*
X158142857Y-84254819D01*
X158142857Y-84254819D02*
X158238095Y-84302438D01*
X158238095Y-84302438D02*
X158285714Y-84350057D01*
X158285714Y-84350057D02*
X158333333Y-84445295D01*
X158333333Y-84445295D02*
X158333333Y-84588152D01*
X158333333Y-84588152D02*
X158285714Y-84683390D01*
X158285714Y-84683390D02*
X158238095Y-84731009D01*
X158238095Y-84731009D02*
X158142857Y-84778628D01*
X158142857Y-84778628D02*
X157761905Y-84778628D01*
X159190476Y-84254819D02*
X159000000Y-84254819D01*
X159000000Y-84254819D02*
X158904762Y-84302438D01*
X158904762Y-84302438D02*
X158857143Y-84350057D01*
X158857143Y-84350057D02*
X158761905Y-84492914D01*
X158761905Y-84492914D02*
X158714286Y-84683390D01*
X158714286Y-84683390D02*
X158714286Y-85064342D01*
X158714286Y-85064342D02*
X158761905Y-85159580D01*
X158761905Y-85159580D02*
X158809524Y-85207200D01*
X158809524Y-85207200D02*
X158904762Y-85254819D01*
X158904762Y-85254819D02*
X159095238Y-85254819D01*
X159095238Y-85254819D02*
X159190476Y-85207200D01*
X159190476Y-85207200D02*
X159238095Y-85159580D01*
X159238095Y-85159580D02*
X159285714Y-85064342D01*
X159285714Y-85064342D02*
X159285714Y-84826247D01*
X159285714Y-84826247D02*
X159238095Y-84731009D01*
X159238095Y-84731009D02*
X159190476Y-84683390D01*
X159190476Y-84683390D02*
X159095238Y-84635771D01*
X159095238Y-84635771D02*
X158904762Y-84635771D01*
X158904762Y-84635771D02*
X158809524Y-84683390D01*
X158809524Y-84683390D02*
X158761905Y-84731009D01*
X158761905Y-84731009D02*
X158714286Y-84826247D01*
X158007142Y-89279580D02*
X157959523Y-89327200D01*
X157959523Y-89327200D02*
X157816666Y-89374819D01*
X157816666Y-89374819D02*
X157721428Y-89374819D01*
X157721428Y-89374819D02*
X157578571Y-89327200D01*
X157578571Y-89327200D02*
X157483333Y-89231961D01*
X157483333Y-89231961D02*
X157435714Y-89136723D01*
X157435714Y-89136723D02*
X157388095Y-88946247D01*
X157388095Y-88946247D02*
X157388095Y-88803390D01*
X157388095Y-88803390D02*
X157435714Y-88612914D01*
X157435714Y-88612914D02*
X157483333Y-88517676D01*
X157483333Y-88517676D02*
X157578571Y-88422438D01*
X157578571Y-88422438D02*
X157721428Y-88374819D01*
X157721428Y-88374819D02*
X157816666Y-88374819D01*
X157816666Y-88374819D02*
X157959523Y-88422438D01*
X157959523Y-88422438D02*
X158007142Y-88470057D01*
X158959523Y-89374819D02*
X158388095Y-89374819D01*
X158673809Y-89374819D02*
X158673809Y-88374819D01*
X158673809Y-88374819D02*
X158578571Y-88517676D01*
X158578571Y-88517676D02*
X158483333Y-88612914D01*
X158483333Y-88612914D02*
X158388095Y-88660533D01*
X159911904Y-89374819D02*
X159340476Y-89374819D01*
X159626190Y-89374819D02*
X159626190Y-88374819D01*
X159626190Y-88374819D02*
X159530952Y-88517676D01*
X159530952Y-88517676D02*
X159435714Y-88612914D01*
X159435714Y-88612914D02*
X159340476Y-88660533D01*
X147683333Y-101384580D02*
X147635714Y-101432200D01*
X147635714Y-101432200D02*
X147492857Y-101479819D01*
X147492857Y-101479819D02*
X147397619Y-101479819D01*
X147397619Y-101479819D02*
X147254762Y-101432200D01*
X147254762Y-101432200D02*
X147159524Y-101336961D01*
X147159524Y-101336961D02*
X147111905Y-101241723D01*
X147111905Y-101241723D02*
X147064286Y-101051247D01*
X147064286Y-101051247D02*
X147064286Y-100908390D01*
X147064286Y-100908390D02*
X147111905Y-100717914D01*
X147111905Y-100717914D02*
X147159524Y-100622676D01*
X147159524Y-100622676D02*
X147254762Y-100527438D01*
X147254762Y-100527438D02*
X147397619Y-100479819D01*
X147397619Y-100479819D02*
X147492857Y-100479819D01*
X147492857Y-100479819D02*
X147635714Y-100527438D01*
X147635714Y-100527438D02*
X147683333Y-100575057D01*
X148540476Y-100479819D02*
X148350000Y-100479819D01*
X148350000Y-100479819D02*
X148254762Y-100527438D01*
X148254762Y-100527438D02*
X148207143Y-100575057D01*
X148207143Y-100575057D02*
X148111905Y-100717914D01*
X148111905Y-100717914D02*
X148064286Y-100908390D01*
X148064286Y-100908390D02*
X148064286Y-101289342D01*
X148064286Y-101289342D02*
X148111905Y-101384580D01*
X148111905Y-101384580D02*
X148159524Y-101432200D01*
X148159524Y-101432200D02*
X148254762Y-101479819D01*
X148254762Y-101479819D02*
X148445238Y-101479819D01*
X148445238Y-101479819D02*
X148540476Y-101432200D01*
X148540476Y-101432200D02*
X148588095Y-101384580D01*
X148588095Y-101384580D02*
X148635714Y-101289342D01*
X148635714Y-101289342D02*
X148635714Y-101051247D01*
X148635714Y-101051247D02*
X148588095Y-100956009D01*
X148588095Y-100956009D02*
X148540476Y-100908390D01*
X148540476Y-100908390D02*
X148445238Y-100860771D01*
X148445238Y-100860771D02*
X148254762Y-100860771D01*
X148254762Y-100860771D02*
X148159524Y-100908390D01*
X148159524Y-100908390D02*
X148111905Y-100956009D01*
X148111905Y-100956009D02*
X148064286Y-101051247D01*
X137133333Y-128219580D02*
X137085714Y-128267200D01*
X137085714Y-128267200D02*
X136942857Y-128314819D01*
X136942857Y-128314819D02*
X136847619Y-128314819D01*
X136847619Y-128314819D02*
X136704762Y-128267200D01*
X136704762Y-128267200D02*
X136609524Y-128171961D01*
X136609524Y-128171961D02*
X136561905Y-128076723D01*
X136561905Y-128076723D02*
X136514286Y-127886247D01*
X136514286Y-127886247D02*
X136514286Y-127743390D01*
X136514286Y-127743390D02*
X136561905Y-127552914D01*
X136561905Y-127552914D02*
X136609524Y-127457676D01*
X136609524Y-127457676D02*
X136704762Y-127362438D01*
X136704762Y-127362438D02*
X136847619Y-127314819D01*
X136847619Y-127314819D02*
X136942857Y-127314819D01*
X136942857Y-127314819D02*
X137085714Y-127362438D01*
X137085714Y-127362438D02*
X137133333Y-127410057D01*
X137609524Y-128314819D02*
X137800000Y-128314819D01*
X137800000Y-128314819D02*
X137895238Y-128267200D01*
X137895238Y-128267200D02*
X137942857Y-128219580D01*
X137942857Y-128219580D02*
X138038095Y-128076723D01*
X138038095Y-128076723D02*
X138085714Y-127886247D01*
X138085714Y-127886247D02*
X138085714Y-127505295D01*
X138085714Y-127505295D02*
X138038095Y-127410057D01*
X138038095Y-127410057D02*
X137990476Y-127362438D01*
X137990476Y-127362438D02*
X137895238Y-127314819D01*
X137895238Y-127314819D02*
X137704762Y-127314819D01*
X137704762Y-127314819D02*
X137609524Y-127362438D01*
X137609524Y-127362438D02*
X137561905Y-127410057D01*
X137561905Y-127410057D02*
X137514286Y-127505295D01*
X137514286Y-127505295D02*
X137514286Y-127743390D01*
X137514286Y-127743390D02*
X137561905Y-127838628D01*
X137561905Y-127838628D02*
X137609524Y-127886247D01*
X137609524Y-127886247D02*
X137704762Y-127933866D01*
X137704762Y-127933866D02*
X137895238Y-127933866D01*
X137895238Y-127933866D02*
X137990476Y-127886247D01*
X137990476Y-127886247D02*
X138038095Y-127838628D01*
X138038095Y-127838628D02*
X138085714Y-127743390D01*
X144454819Y-136566666D02*
X143978628Y-136899999D01*
X144454819Y-137138094D02*
X143454819Y-137138094D01*
X143454819Y-137138094D02*
X143454819Y-136757142D01*
X143454819Y-136757142D02*
X143502438Y-136661904D01*
X143502438Y-136661904D02*
X143550057Y-136614285D01*
X143550057Y-136614285D02*
X143645295Y-136566666D01*
X143645295Y-136566666D02*
X143788152Y-136566666D01*
X143788152Y-136566666D02*
X143883390Y-136614285D01*
X143883390Y-136614285D02*
X143931009Y-136661904D01*
X143931009Y-136661904D02*
X143978628Y-136757142D01*
X143978628Y-136757142D02*
X143978628Y-137138094D01*
X143454819Y-136233332D02*
X143454819Y-135566666D01*
X143454819Y-135566666D02*
X144454819Y-135995237D01*
X135395833Y-115359580D02*
X135348214Y-115407200D01*
X135348214Y-115407200D02*
X135205357Y-115454819D01*
X135205357Y-115454819D02*
X135110119Y-115454819D01*
X135110119Y-115454819D02*
X134967262Y-115407200D01*
X134967262Y-115407200D02*
X134872024Y-115311961D01*
X134872024Y-115311961D02*
X134824405Y-115216723D01*
X134824405Y-115216723D02*
X134776786Y-115026247D01*
X134776786Y-115026247D02*
X134776786Y-114883390D01*
X134776786Y-114883390D02*
X134824405Y-114692914D01*
X134824405Y-114692914D02*
X134872024Y-114597676D01*
X134872024Y-114597676D02*
X134967262Y-114502438D01*
X134967262Y-114502438D02*
X135110119Y-114454819D01*
X135110119Y-114454819D02*
X135205357Y-114454819D01*
X135205357Y-114454819D02*
X135348214Y-114502438D01*
X135348214Y-114502438D02*
X135395833Y-114550057D01*
X136252976Y-114788152D02*
X136252976Y-115454819D01*
X136014881Y-114407200D02*
X135776786Y-115121485D01*
X135776786Y-115121485D02*
X136395833Y-115121485D01*
X143533333Y-116259580D02*
X143485714Y-116307200D01*
X143485714Y-116307200D02*
X143342857Y-116354819D01*
X143342857Y-116354819D02*
X143247619Y-116354819D01*
X143247619Y-116354819D02*
X143104762Y-116307200D01*
X143104762Y-116307200D02*
X143009524Y-116211961D01*
X143009524Y-116211961D02*
X142961905Y-116116723D01*
X142961905Y-116116723D02*
X142914286Y-115926247D01*
X142914286Y-115926247D02*
X142914286Y-115783390D01*
X142914286Y-115783390D02*
X142961905Y-115592914D01*
X142961905Y-115592914D02*
X143009524Y-115497676D01*
X143009524Y-115497676D02*
X143104762Y-115402438D01*
X143104762Y-115402438D02*
X143247619Y-115354819D01*
X143247619Y-115354819D02*
X143342857Y-115354819D01*
X143342857Y-115354819D02*
X143485714Y-115402438D01*
X143485714Y-115402438D02*
X143533333Y-115450057D01*
X144485714Y-116354819D02*
X143914286Y-116354819D01*
X144200000Y-116354819D02*
X144200000Y-115354819D01*
X144200000Y-115354819D02*
X144104762Y-115497676D01*
X144104762Y-115497676D02*
X144009524Y-115592914D01*
X144009524Y-115592914D02*
X143914286Y-115640533D01*
X129308571Y-69454819D02*
X129499047Y-69454819D01*
X129499047Y-69454819D02*
X129594285Y-69407200D01*
X129594285Y-69407200D02*
X129641904Y-69359580D01*
X129641904Y-69359580D02*
X129737142Y-69216723D01*
X129737142Y-69216723D02*
X129784761Y-69026247D01*
X129784761Y-69026247D02*
X129784761Y-68645295D01*
X129784761Y-68645295D02*
X129737142Y-68550057D01*
X129737142Y-68550057D02*
X129689523Y-68502438D01*
X129689523Y-68502438D02*
X129594285Y-68454819D01*
X129594285Y-68454819D02*
X129403809Y-68454819D01*
X129403809Y-68454819D02*
X129308571Y-68502438D01*
X129308571Y-68502438D02*
X129260952Y-68550057D01*
X129260952Y-68550057D02*
X129213333Y-68645295D01*
X129213333Y-68645295D02*
X129213333Y-68883390D01*
X129213333Y-68883390D02*
X129260952Y-68978628D01*
X129260952Y-68978628D02*
X129308571Y-69026247D01*
X129308571Y-69026247D02*
X129403809Y-69073866D01*
X129403809Y-69073866D02*
X129594285Y-69073866D01*
X129594285Y-69073866D02*
X129689523Y-69026247D01*
X129689523Y-69026247D02*
X129737142Y-68978628D01*
X129737142Y-68978628D02*
X129784761Y-68883390D01*
X130737142Y-69454819D02*
X130165714Y-69454819D01*
X130451428Y-69454819D02*
X130451428Y-68454819D01*
X130451428Y-68454819D02*
X130356190Y-68597676D01*
X130356190Y-68597676D02*
X130260952Y-68692914D01*
X130260952Y-68692914D02*
X130165714Y-68740533D01*
X131641904Y-68454819D02*
X131165714Y-68454819D01*
X131165714Y-68454819D02*
X131118095Y-68931009D01*
X131118095Y-68931009D02*
X131165714Y-68883390D01*
X131165714Y-68883390D02*
X131260952Y-68835771D01*
X131260952Y-68835771D02*
X131499047Y-68835771D01*
X131499047Y-68835771D02*
X131594285Y-68883390D01*
X131594285Y-68883390D02*
X131641904Y-68931009D01*
X131641904Y-68931009D02*
X131689523Y-69026247D01*
X131689523Y-69026247D02*
X131689523Y-69264342D01*
X131689523Y-69264342D02*
X131641904Y-69359580D01*
X131641904Y-69359580D02*
X131594285Y-69407200D01*
X131594285Y-69407200D02*
X131499047Y-69454819D01*
X131499047Y-69454819D02*
X131260952Y-69454819D01*
X131260952Y-69454819D02*
X131165714Y-69407200D01*
X131165714Y-69407200D02*
X131118095Y-69359580D01*
X132118095Y-69454819D02*
X132118095Y-68454819D01*
X132118095Y-68454819D02*
X132451428Y-69169104D01*
X132451428Y-69169104D02*
X132784761Y-68454819D01*
X132784761Y-68454819D02*
X132784761Y-69454819D01*
X133260952Y-69454819D02*
X133260952Y-68454819D01*
X133689523Y-69454819D02*
X133689523Y-68931009D01*
X133689523Y-68931009D02*
X133641904Y-68835771D01*
X133641904Y-68835771D02*
X133546666Y-68788152D01*
X133546666Y-68788152D02*
X133403809Y-68788152D01*
X133403809Y-68788152D02*
X133308571Y-68835771D01*
X133308571Y-68835771D02*
X133260952Y-68883390D01*
X134070476Y-68788152D02*
X134594285Y-68788152D01*
X134594285Y-68788152D02*
X134070476Y-69454819D01*
X134070476Y-69454819D02*
X134594285Y-69454819D01*
X173111905Y-104854819D02*
X173111905Y-103854819D01*
X173111905Y-103854819D02*
X173350000Y-103854819D01*
X173350000Y-103854819D02*
X173492857Y-103902438D01*
X173492857Y-103902438D02*
X173588095Y-103997676D01*
X173588095Y-103997676D02*
X173635714Y-104092914D01*
X173635714Y-104092914D02*
X173683333Y-104283390D01*
X173683333Y-104283390D02*
X173683333Y-104426247D01*
X173683333Y-104426247D02*
X173635714Y-104616723D01*
X173635714Y-104616723D02*
X173588095Y-104711961D01*
X173588095Y-104711961D02*
X173492857Y-104807200D01*
X173492857Y-104807200D02*
X173350000Y-104854819D01*
X173350000Y-104854819D02*
X173111905Y-104854819D01*
X174111905Y-104331009D02*
X174445238Y-104331009D01*
X174588095Y-104854819D02*
X174111905Y-104854819D01*
X174111905Y-104854819D02*
X174111905Y-103854819D01*
X174111905Y-103854819D02*
X174588095Y-103854819D01*
X175350000Y-104331009D02*
X175492857Y-104378628D01*
X175492857Y-104378628D02*
X175540476Y-104426247D01*
X175540476Y-104426247D02*
X175588095Y-104521485D01*
X175588095Y-104521485D02*
X175588095Y-104664342D01*
X175588095Y-104664342D02*
X175540476Y-104759580D01*
X175540476Y-104759580D02*
X175492857Y-104807200D01*
X175492857Y-104807200D02*
X175397619Y-104854819D01*
X175397619Y-104854819D02*
X175016667Y-104854819D01*
X175016667Y-104854819D02*
X175016667Y-103854819D01*
X175016667Y-103854819D02*
X175350000Y-103854819D01*
X175350000Y-103854819D02*
X175445238Y-103902438D01*
X175445238Y-103902438D02*
X175492857Y-103950057D01*
X175492857Y-103950057D02*
X175540476Y-104045295D01*
X175540476Y-104045295D02*
X175540476Y-104140533D01*
X175540476Y-104140533D02*
X175492857Y-104235771D01*
X175492857Y-104235771D02*
X175445238Y-104283390D01*
X175445238Y-104283390D02*
X175350000Y-104331009D01*
X175350000Y-104331009D02*
X175016667Y-104331009D01*
X176016667Y-103854819D02*
X176016667Y-104664342D01*
X176016667Y-104664342D02*
X176064286Y-104759580D01*
X176064286Y-104759580D02*
X176111905Y-104807200D01*
X176111905Y-104807200D02*
X176207143Y-104854819D01*
X176207143Y-104854819D02*
X176397619Y-104854819D01*
X176397619Y-104854819D02*
X176492857Y-104807200D01*
X176492857Y-104807200D02*
X176540476Y-104759580D01*
X176540476Y-104759580D02*
X176588095Y-104664342D01*
X176588095Y-104664342D02*
X176588095Y-103854819D01*
X177588095Y-103902438D02*
X177492857Y-103854819D01*
X177492857Y-103854819D02*
X177350000Y-103854819D01*
X177350000Y-103854819D02*
X177207143Y-103902438D01*
X177207143Y-103902438D02*
X177111905Y-103997676D01*
X177111905Y-103997676D02*
X177064286Y-104092914D01*
X177064286Y-104092914D02*
X177016667Y-104283390D01*
X177016667Y-104283390D02*
X177016667Y-104426247D01*
X177016667Y-104426247D02*
X177064286Y-104616723D01*
X177064286Y-104616723D02*
X177111905Y-104711961D01*
X177111905Y-104711961D02*
X177207143Y-104807200D01*
X177207143Y-104807200D02*
X177350000Y-104854819D01*
X177350000Y-104854819D02*
X177445238Y-104854819D01*
X177445238Y-104854819D02*
X177588095Y-104807200D01*
X177588095Y-104807200D02*
X177635714Y-104759580D01*
X177635714Y-104759580D02*
X177635714Y-104426247D01*
X177635714Y-104426247D02*
X177445238Y-104426247D01*
X149520833Y-77844819D02*
X149187500Y-77368628D01*
X148949405Y-77844819D02*
X148949405Y-76844819D01*
X148949405Y-76844819D02*
X149330357Y-76844819D01*
X149330357Y-76844819D02*
X149425595Y-76892438D01*
X149425595Y-76892438D02*
X149473214Y-76940057D01*
X149473214Y-76940057D02*
X149520833Y-77035295D01*
X149520833Y-77035295D02*
X149520833Y-77178152D01*
X149520833Y-77178152D02*
X149473214Y-77273390D01*
X149473214Y-77273390D02*
X149425595Y-77321009D01*
X149425595Y-77321009D02*
X149330357Y-77368628D01*
X149330357Y-77368628D02*
X148949405Y-77368628D01*
X149901786Y-76940057D02*
X149949405Y-76892438D01*
X149949405Y-76892438D02*
X150044643Y-76844819D01*
X150044643Y-76844819D02*
X150282738Y-76844819D01*
X150282738Y-76844819D02*
X150377976Y-76892438D01*
X150377976Y-76892438D02*
X150425595Y-76940057D01*
X150425595Y-76940057D02*
X150473214Y-77035295D01*
X150473214Y-77035295D02*
X150473214Y-77130533D01*
X150473214Y-77130533D02*
X150425595Y-77273390D01*
X150425595Y-77273390D02*
X149854167Y-77844819D01*
X149854167Y-77844819D02*
X150473214Y-77844819D01*
X149704761Y-72450057D02*
X149609523Y-72402438D01*
X149609523Y-72402438D02*
X149514285Y-72307200D01*
X149514285Y-72307200D02*
X149371428Y-72164342D01*
X149371428Y-72164342D02*
X149276190Y-72116723D01*
X149276190Y-72116723D02*
X149180952Y-72116723D01*
X149228571Y-72354819D02*
X149133333Y-72307200D01*
X149133333Y-72307200D02*
X149038095Y-72211961D01*
X149038095Y-72211961D02*
X148990476Y-72021485D01*
X148990476Y-72021485D02*
X148990476Y-71688152D01*
X148990476Y-71688152D02*
X149038095Y-71497676D01*
X149038095Y-71497676D02*
X149133333Y-71402438D01*
X149133333Y-71402438D02*
X149228571Y-71354819D01*
X149228571Y-71354819D02*
X149419047Y-71354819D01*
X149419047Y-71354819D02*
X149514285Y-71402438D01*
X149514285Y-71402438D02*
X149609523Y-71497676D01*
X149609523Y-71497676D02*
X149657142Y-71688152D01*
X149657142Y-71688152D02*
X149657142Y-72021485D01*
X149657142Y-72021485D02*
X149609523Y-72211961D01*
X149609523Y-72211961D02*
X149514285Y-72307200D01*
X149514285Y-72307200D02*
X149419047Y-72354819D01*
X149419047Y-72354819D02*
X149228571Y-72354819D01*
X150609523Y-72354819D02*
X150038095Y-72354819D01*
X150323809Y-72354819D02*
X150323809Y-71354819D01*
X150323809Y-71354819D02*
X150228571Y-71497676D01*
X150228571Y-71497676D02*
X150133333Y-71592914D01*
X150133333Y-71592914D02*
X150038095Y-71640533D01*
X173702381Y-68904819D02*
X173702381Y-67904819D01*
X173702381Y-67904819D02*
X174035714Y-68619104D01*
X174035714Y-68619104D02*
X174369047Y-67904819D01*
X174369047Y-67904819D02*
X174369047Y-68904819D01*
X174845238Y-68904819D02*
X174845238Y-67904819D01*
X175273809Y-68857200D02*
X175416666Y-68904819D01*
X175416666Y-68904819D02*
X175654761Y-68904819D01*
X175654761Y-68904819D02*
X175749999Y-68857200D01*
X175749999Y-68857200D02*
X175797618Y-68809580D01*
X175797618Y-68809580D02*
X175845237Y-68714342D01*
X175845237Y-68714342D02*
X175845237Y-68619104D01*
X175845237Y-68619104D02*
X175797618Y-68523866D01*
X175797618Y-68523866D02*
X175749999Y-68476247D01*
X175749999Y-68476247D02*
X175654761Y-68428628D01*
X175654761Y-68428628D02*
X175464285Y-68381009D01*
X175464285Y-68381009D02*
X175369047Y-68333390D01*
X175369047Y-68333390D02*
X175321428Y-68285771D01*
X175321428Y-68285771D02*
X175273809Y-68190533D01*
X175273809Y-68190533D02*
X175273809Y-68095295D01*
X175273809Y-68095295D02*
X175321428Y-68000057D01*
X175321428Y-68000057D02*
X175369047Y-67952438D01*
X175369047Y-67952438D02*
X175464285Y-67904819D01*
X175464285Y-67904819D02*
X175702380Y-67904819D01*
X175702380Y-67904819D02*
X175845237Y-67952438D01*
X176845237Y-68809580D02*
X176797618Y-68857200D01*
X176797618Y-68857200D02*
X176654761Y-68904819D01*
X176654761Y-68904819D02*
X176559523Y-68904819D01*
X176559523Y-68904819D02*
X176416666Y-68857200D01*
X176416666Y-68857200D02*
X176321428Y-68761961D01*
X176321428Y-68761961D02*
X176273809Y-68666723D01*
X176273809Y-68666723D02*
X176226190Y-68476247D01*
X176226190Y-68476247D02*
X176226190Y-68333390D01*
X176226190Y-68333390D02*
X176273809Y-68142914D01*
X176273809Y-68142914D02*
X176321428Y-68047676D01*
X176321428Y-68047676D02*
X176416666Y-67952438D01*
X176416666Y-67952438D02*
X176559523Y-67904819D01*
X176559523Y-67904819D02*
X176654761Y-67904819D01*
X176654761Y-67904819D02*
X176797618Y-67952438D01*
X176797618Y-67952438D02*
X176845237Y-68000057D01*
X132395833Y-115454819D02*
X132062500Y-114978628D01*
X131824405Y-115454819D02*
X131824405Y-114454819D01*
X131824405Y-114454819D02*
X132205357Y-114454819D01*
X132205357Y-114454819D02*
X132300595Y-114502438D01*
X132300595Y-114502438D02*
X132348214Y-114550057D01*
X132348214Y-114550057D02*
X132395833Y-114645295D01*
X132395833Y-114645295D02*
X132395833Y-114788152D01*
X132395833Y-114788152D02*
X132348214Y-114883390D01*
X132348214Y-114883390D02*
X132300595Y-114931009D01*
X132300595Y-114931009D02*
X132205357Y-114978628D01*
X132205357Y-114978628D02*
X131824405Y-114978628D01*
X133348214Y-115454819D02*
X132776786Y-115454819D01*
X133062500Y-115454819D02*
X133062500Y-114454819D01*
X133062500Y-114454819D02*
X132967262Y-114597676D01*
X132967262Y-114597676D02*
X132872024Y-114692914D01*
X132872024Y-114692914D02*
X132776786Y-114740533D01*
X166723810Y-61104819D02*
X166723810Y-60104819D01*
X167152381Y-60200057D02*
X167200000Y-60152438D01*
X167200000Y-60152438D02*
X167295238Y-60104819D01*
X167295238Y-60104819D02*
X167533333Y-60104819D01*
X167533333Y-60104819D02*
X167628571Y-60152438D01*
X167628571Y-60152438D02*
X167676190Y-60200057D01*
X167676190Y-60200057D02*
X167723809Y-60295295D01*
X167723809Y-60295295D02*
X167723809Y-60390533D01*
X167723809Y-60390533D02*
X167676190Y-60533390D01*
X167676190Y-60533390D02*
X167104762Y-61104819D01*
X167104762Y-61104819D02*
X167723809Y-61104819D01*
X168723809Y-61009580D02*
X168676190Y-61057200D01*
X168676190Y-61057200D02*
X168533333Y-61104819D01*
X168533333Y-61104819D02*
X168438095Y-61104819D01*
X168438095Y-61104819D02*
X168295238Y-61057200D01*
X168295238Y-61057200D02*
X168200000Y-60961961D01*
X168200000Y-60961961D02*
X168152381Y-60866723D01*
X168152381Y-60866723D02*
X168104762Y-60676247D01*
X168104762Y-60676247D02*
X168104762Y-60533390D01*
X168104762Y-60533390D02*
X168152381Y-60342914D01*
X168152381Y-60342914D02*
X168200000Y-60247676D01*
X168200000Y-60247676D02*
X168295238Y-60152438D01*
X168295238Y-60152438D02*
X168438095Y-60104819D01*
X168438095Y-60104819D02*
X168533333Y-60104819D01*
X168533333Y-60104819D02*
X168676190Y-60152438D01*
X168676190Y-60152438D02*
X168723809Y-60200057D01*
X118859580Y-136527857D02*
X118907200Y-136575476D01*
X118907200Y-136575476D02*
X118954819Y-136718333D01*
X118954819Y-136718333D02*
X118954819Y-136813571D01*
X118954819Y-136813571D02*
X118907200Y-136956428D01*
X118907200Y-136956428D02*
X118811961Y-137051666D01*
X118811961Y-137051666D02*
X118716723Y-137099285D01*
X118716723Y-137099285D02*
X118526247Y-137146904D01*
X118526247Y-137146904D02*
X118383390Y-137146904D01*
X118383390Y-137146904D02*
X118192914Y-137099285D01*
X118192914Y-137099285D02*
X118097676Y-137051666D01*
X118097676Y-137051666D02*
X118002438Y-136956428D01*
X118002438Y-136956428D02*
X117954819Y-136813571D01*
X117954819Y-136813571D02*
X117954819Y-136718333D01*
X117954819Y-136718333D02*
X118002438Y-136575476D01*
X118002438Y-136575476D02*
X118050057Y-136527857D01*
X118954819Y-135575476D02*
X118954819Y-136146904D01*
X118954819Y-135861190D02*
X117954819Y-135861190D01*
X117954819Y-135861190D02*
X118097676Y-135956428D01*
X118097676Y-135956428D02*
X118192914Y-136051666D01*
X118192914Y-136051666D02*
X118240533Y-136146904D01*
X117954819Y-134956428D02*
X117954819Y-134861190D01*
X117954819Y-134861190D02*
X118002438Y-134765952D01*
X118002438Y-134765952D02*
X118050057Y-134718333D01*
X118050057Y-134718333D02*
X118145295Y-134670714D01*
X118145295Y-134670714D02*
X118335771Y-134623095D01*
X118335771Y-134623095D02*
X118573866Y-134623095D01*
X118573866Y-134623095D02*
X118764342Y-134670714D01*
X118764342Y-134670714D02*
X118859580Y-134718333D01*
X118859580Y-134718333D02*
X118907200Y-134765952D01*
X118907200Y-134765952D02*
X118954819Y-134861190D01*
X118954819Y-134861190D02*
X118954819Y-134956428D01*
X118954819Y-134956428D02*
X118907200Y-135051666D01*
X118907200Y-135051666D02*
X118859580Y-135099285D01*
X118859580Y-135099285D02*
X118764342Y-135146904D01*
X118764342Y-135146904D02*
X118573866Y-135194523D01*
X118573866Y-135194523D02*
X118335771Y-135194523D01*
X118335771Y-135194523D02*
X118145295Y-135146904D01*
X118145295Y-135146904D02*
X118050057Y-135099285D01*
X118050057Y-135099285D02*
X118002438Y-135051666D01*
X118002438Y-135051666D02*
X117954819Y-134956428D01*
X153466667Y-77154819D02*
X153466667Y-76154819D01*
X153466667Y-76154819D02*
X153847619Y-76154819D01*
X153847619Y-76154819D02*
X153942857Y-76202438D01*
X153942857Y-76202438D02*
X153990476Y-76250057D01*
X153990476Y-76250057D02*
X154038095Y-76345295D01*
X154038095Y-76345295D02*
X154038095Y-76488152D01*
X154038095Y-76488152D02*
X153990476Y-76583390D01*
X153990476Y-76583390D02*
X153942857Y-76631009D01*
X153942857Y-76631009D02*
X153847619Y-76678628D01*
X153847619Y-76678628D02*
X153466667Y-76678628D01*
X154371429Y-76154819D02*
X154609524Y-77154819D01*
X154609524Y-77154819D02*
X154800000Y-76440533D01*
X154800000Y-76440533D02*
X154990476Y-77154819D01*
X154990476Y-77154819D02*
X155228572Y-76154819D01*
X156180952Y-77154819D02*
X155847619Y-76678628D01*
X155609524Y-77154819D02*
X155609524Y-76154819D01*
X155609524Y-76154819D02*
X155990476Y-76154819D01*
X155990476Y-76154819D02*
X156085714Y-76202438D01*
X156085714Y-76202438D02*
X156133333Y-76250057D01*
X156133333Y-76250057D02*
X156180952Y-76345295D01*
X156180952Y-76345295D02*
X156180952Y-76488152D01*
X156180952Y-76488152D02*
X156133333Y-76583390D01*
X156133333Y-76583390D02*
X156085714Y-76631009D01*
X156085714Y-76631009D02*
X155990476Y-76678628D01*
X155990476Y-76678628D02*
X155609524Y-76678628D01*
X149716666Y-100456009D02*
X149383333Y-100456009D01*
X149383333Y-100979819D02*
X149383333Y-99979819D01*
X149383333Y-99979819D02*
X149859523Y-99979819D01*
X150573809Y-100456009D02*
X150716666Y-100503628D01*
X150716666Y-100503628D02*
X150764285Y-100551247D01*
X150764285Y-100551247D02*
X150811904Y-100646485D01*
X150811904Y-100646485D02*
X150811904Y-100789342D01*
X150811904Y-100789342D02*
X150764285Y-100884580D01*
X150764285Y-100884580D02*
X150716666Y-100932200D01*
X150716666Y-100932200D02*
X150621428Y-100979819D01*
X150621428Y-100979819D02*
X150240476Y-100979819D01*
X150240476Y-100979819D02*
X150240476Y-99979819D01*
X150240476Y-99979819D02*
X150573809Y-99979819D01*
X150573809Y-99979819D02*
X150669047Y-100027438D01*
X150669047Y-100027438D02*
X150716666Y-100075057D01*
X150716666Y-100075057D02*
X150764285Y-100170295D01*
X150764285Y-100170295D02*
X150764285Y-100265533D01*
X150764285Y-100265533D02*
X150716666Y-100360771D01*
X150716666Y-100360771D02*
X150669047Y-100408390D01*
X150669047Y-100408390D02*
X150573809Y-100456009D01*
X150573809Y-100456009D02*
X150240476Y-100456009D01*
X151764285Y-100979819D02*
X151192857Y-100979819D01*
X151478571Y-100979819D02*
X151478571Y-99979819D01*
X151478571Y-99979819D02*
X151383333Y-100122676D01*
X151383333Y-100122676D02*
X151288095Y-100217914D01*
X151288095Y-100217914D02*
X151192857Y-100265533D01*
X144409580Y-140764285D02*
X144457200Y-140811904D01*
X144457200Y-140811904D02*
X144504819Y-140954761D01*
X144504819Y-140954761D02*
X144504819Y-141049999D01*
X144504819Y-141049999D02*
X144457200Y-141192856D01*
X144457200Y-141192856D02*
X144361961Y-141288094D01*
X144361961Y-141288094D02*
X144266723Y-141335713D01*
X144266723Y-141335713D02*
X144076247Y-141383332D01*
X144076247Y-141383332D02*
X143933390Y-141383332D01*
X143933390Y-141383332D02*
X143742914Y-141335713D01*
X143742914Y-141335713D02*
X143647676Y-141288094D01*
X143647676Y-141288094D02*
X143552438Y-141192856D01*
X143552438Y-141192856D02*
X143504819Y-141049999D01*
X143504819Y-141049999D02*
X143504819Y-140954761D01*
X143504819Y-140954761D02*
X143552438Y-140811904D01*
X143552438Y-140811904D02*
X143600057Y-140764285D01*
X144504819Y-140335713D02*
X143504819Y-140335713D01*
X143981009Y-140335713D02*
X143981009Y-139764285D01*
X144504819Y-139764285D02*
X143504819Y-139764285D01*
X143552438Y-138764285D02*
X143504819Y-138859523D01*
X143504819Y-138859523D02*
X143504819Y-139002380D01*
X143504819Y-139002380D02*
X143552438Y-139145237D01*
X143552438Y-139145237D02*
X143647676Y-139240475D01*
X143647676Y-139240475D02*
X143742914Y-139288094D01*
X143742914Y-139288094D02*
X143933390Y-139335713D01*
X143933390Y-139335713D02*
X144076247Y-139335713D01*
X144076247Y-139335713D02*
X144266723Y-139288094D01*
X144266723Y-139288094D02*
X144361961Y-139240475D01*
X144361961Y-139240475D02*
X144457200Y-139145237D01*
X144457200Y-139145237D02*
X144504819Y-139002380D01*
X144504819Y-139002380D02*
X144504819Y-138907142D01*
X144504819Y-138907142D02*
X144457200Y-138764285D01*
X144457200Y-138764285D02*
X144409580Y-138716666D01*
X144409580Y-138716666D02*
X144076247Y-138716666D01*
X144076247Y-138716666D02*
X144076247Y-138907142D01*
D12*
%TO.C,LED6*%
X153250000Y-89490000D02*
X153250000Y-90140000D01*
X153250000Y-89490000D02*
X156150000Y-89490000D01*
X153330000Y-91790000D02*
X156170000Y-91790000D01*
%TO.C,U2*%
X139505000Y-91100000D02*
X123305000Y-91100000D01*
X139505000Y-74900000D02*
X123305000Y-74900000D01*
X140245000Y-91236000D02*
X139765000Y-91236000D01*
X140005000Y-90900000D01*
X140245000Y-91236000D01*
G36*
X140245000Y-91236000D02*
G01*
X139765000Y-91236000D01*
X140005000Y-90900000D01*
X140245000Y-91236000D01*
G37*
D13*
%TO.C,G\u002A\u002A\u002A*%
X163214540Y-100338414D02*
X163488467Y-100355593D01*
X163706288Y-100390260D01*
X163707333Y-100390513D01*
X164097195Y-100521813D01*
X164443492Y-100712896D01*
X164736633Y-100956488D01*
X164967023Y-101245318D01*
X165061992Y-101417591D01*
X165183434Y-101717134D01*
X165262362Y-102022006D01*
X165302641Y-102354939D01*
X165308136Y-102738669D01*
X165304547Y-102844712D01*
X165243414Y-103444465D01*
X165113709Y-104021833D01*
X164919795Y-104569040D01*
X164666034Y-105078305D01*
X164356788Y-105541854D01*
X163996423Y-105951907D01*
X163589300Y-106300688D01*
X163239076Y-106526891D01*
X162791688Y-106730343D01*
X162318870Y-106853892D01*
X161825419Y-106896722D01*
X161316138Y-106858017D01*
X161303869Y-106856097D01*
X160934425Y-106785173D01*
X160606760Y-106697536D01*
X160337091Y-106597980D01*
X160202719Y-106530393D01*
X160103361Y-106482363D01*
X160053539Y-106486783D01*
X160044490Y-106501775D01*
X160030459Y-106554849D01*
X159999953Y-106679824D01*
X159955483Y-106866095D01*
X159899562Y-107103051D01*
X159834700Y-107380087D01*
X159763408Y-107686593D01*
X159736446Y-107803000D01*
X159447519Y-109051834D01*
X158931593Y-109063719D01*
X158708341Y-109065631D01*
X158541555Y-109060312D01*
X158441271Y-109048330D01*
X158415666Y-109034506D01*
X158425329Y-108971531D01*
X158453088Y-108834088D01*
X158497100Y-108629988D01*
X158555520Y-108367049D01*
X158626504Y-108053086D01*
X158708208Y-107695913D01*
X158798789Y-107303346D01*
X158896403Y-106883199D01*
X158999205Y-106443288D01*
X159105352Y-105991427D01*
X159212999Y-105535433D01*
X159213917Y-105531564D01*
X160260185Y-105531564D01*
X160286546Y-105595055D01*
X160384494Y-105668579D01*
X160542316Y-105747025D01*
X160748297Y-105825278D01*
X160990726Y-105898227D01*
X161230833Y-105955212D01*
X161368512Y-105971085D01*
X161562221Y-105977447D01*
X161783956Y-105975097D01*
X162005709Y-105964835D01*
X162199475Y-105947460D01*
X162337249Y-105923772D01*
X162337842Y-105923615D01*
X162703072Y-105783605D01*
X163039226Y-105569879D01*
X163341934Y-105289698D01*
X163606832Y-104950328D01*
X163829554Y-104559030D01*
X164005730Y-104123068D01*
X164130997Y-103649706D01*
X164200986Y-103146206D01*
X164214777Y-102801542D01*
X164192613Y-102398123D01*
X164123049Y-102060457D01*
X164003097Y-101782215D01*
X163829772Y-101557070D01*
X163600087Y-101378692D01*
X163522669Y-101334890D01*
X163420542Y-101284597D01*
X163327462Y-101251565D01*
X163221457Y-101232216D01*
X163080552Y-101222969D01*
X162882777Y-101220247D01*
X162818333Y-101220167D01*
X162602557Y-101221668D01*
X162447489Y-101228936D01*
X162329186Y-101246117D01*
X162223703Y-101277357D01*
X162107099Y-101326802D01*
X162051110Y-101353017D01*
X161740843Y-101534414D01*
X161478147Y-101765817D01*
X161254747Y-102056801D01*
X161062365Y-102416941D01*
X160995670Y-102573921D01*
X160953065Y-102698215D01*
X160895896Y-102891585D01*
X160827761Y-103140415D01*
X160752262Y-103431085D01*
X160672997Y-103749977D01*
X160593567Y-104083475D01*
X160572220Y-104175733D01*
X160498710Y-104495499D01*
X160430745Y-104791035D01*
X160370800Y-105051592D01*
X160321351Y-105266420D01*
X160284869Y-105424768D01*
X160263830Y-105515887D01*
X160260185Y-105531564D01*
X159213917Y-105531564D01*
X159320303Y-105083120D01*
X159425420Y-104642304D01*
X159526506Y-104220797D01*
X159621716Y-103826418D01*
X159709207Y-103466981D01*
X159787135Y-103150299D01*
X159853656Y-102884190D01*
X159906926Y-102676467D01*
X159945100Y-102534947D01*
X159963301Y-102475295D01*
X160180924Y-101974688D01*
X160453882Y-101536056D01*
X160780253Y-101161249D01*
X161158113Y-100852117D01*
X161585544Y-100610511D01*
X162060620Y-100438281D01*
X162086529Y-100431273D01*
X162320501Y-100385152D01*
X162604119Y-100353858D01*
X162910945Y-100338056D01*
X163214540Y-100338414D01*
G36*
X163214540Y-100338414D02*
G01*
X163488467Y-100355593D01*
X163706288Y-100390260D01*
X163707333Y-100390513D01*
X164097195Y-100521813D01*
X164443492Y-100712896D01*
X164736633Y-100956488D01*
X164967023Y-101245318D01*
X165061992Y-101417591D01*
X165183434Y-101717134D01*
X165262362Y-102022006D01*
X165302641Y-102354939D01*
X165308136Y-102738669D01*
X165304547Y-102844712D01*
X165243414Y-103444465D01*
X165113709Y-104021833D01*
X164919795Y-104569040D01*
X164666034Y-105078305D01*
X164356788Y-105541854D01*
X163996423Y-105951907D01*
X163589300Y-106300688D01*
X163239076Y-106526891D01*
X162791688Y-106730343D01*
X162318870Y-106853892D01*
X161825419Y-106896722D01*
X161316138Y-106858017D01*
X161303869Y-106856097D01*
X160934425Y-106785173D01*
X160606760Y-106697536D01*
X160337091Y-106597980D01*
X160202719Y-106530393D01*
X160103361Y-106482363D01*
X160053539Y-106486783D01*
X160044490Y-106501775D01*
X160030459Y-106554849D01*
X159999953Y-106679824D01*
X159955483Y-106866095D01*
X159899562Y-107103051D01*
X159834700Y-107380087D01*
X159763408Y-107686593D01*
X159736446Y-107803000D01*
X159447519Y-109051834D01*
X158931593Y-109063719D01*
X158708341Y-109065631D01*
X158541555Y-109060312D01*
X158441271Y-109048330D01*
X158415666Y-109034506D01*
X158425329Y-108971531D01*
X158453088Y-108834088D01*
X158497100Y-108629988D01*
X158555520Y-108367049D01*
X158626504Y-108053086D01*
X158708208Y-107695913D01*
X158798789Y-107303346D01*
X158896403Y-106883199D01*
X158999205Y-106443288D01*
X159105352Y-105991427D01*
X159212999Y-105535433D01*
X159213917Y-105531564D01*
X160260185Y-105531564D01*
X160286546Y-105595055D01*
X160384494Y-105668579D01*
X160542316Y-105747025D01*
X160748297Y-105825278D01*
X160990726Y-105898227D01*
X161230833Y-105955212D01*
X161368512Y-105971085D01*
X161562221Y-105977447D01*
X161783956Y-105975097D01*
X162005709Y-105964835D01*
X162199475Y-105947460D01*
X162337249Y-105923772D01*
X162337842Y-105923615D01*
X162703072Y-105783605D01*
X163039226Y-105569879D01*
X163341934Y-105289698D01*
X163606832Y-104950328D01*
X163829554Y-104559030D01*
X164005730Y-104123068D01*
X164130997Y-103649706D01*
X164200986Y-103146206D01*
X164214777Y-102801542D01*
X164192613Y-102398123D01*
X164123049Y-102060457D01*
X164003097Y-101782215D01*
X163829772Y-101557070D01*
X163600087Y-101378692D01*
X163522669Y-101334890D01*
X163420542Y-101284597D01*
X163327462Y-101251565D01*
X163221457Y-101232216D01*
X163080552Y-101222969D01*
X162882777Y-101220247D01*
X162818333Y-101220167D01*
X162602557Y-101221668D01*
X162447489Y-101228936D01*
X162329186Y-101246117D01*
X162223703Y-101277357D01*
X162107099Y-101326802D01*
X162051110Y-101353017D01*
X161740843Y-101534414D01*
X161478147Y-101765817D01*
X161254747Y-102056801D01*
X161062365Y-102416941D01*
X160995670Y-102573921D01*
X160953065Y-102698215D01*
X160895896Y-102891585D01*
X160827761Y-103140415D01*
X160752262Y-103431085D01*
X160672997Y-103749977D01*
X160593567Y-104083475D01*
X160572220Y-104175733D01*
X160498710Y-104495499D01*
X160430745Y-104791035D01*
X160370800Y-105051592D01*
X160321351Y-105266420D01*
X160284869Y-105424768D01*
X160263830Y-105515887D01*
X160260185Y-105531564D01*
X159213917Y-105531564D01*
X159320303Y-105083120D01*
X159425420Y-104642304D01*
X159526506Y-104220797D01*
X159621716Y-103826418D01*
X159709207Y-103466981D01*
X159787135Y-103150299D01*
X159853656Y-102884190D01*
X159906926Y-102676467D01*
X159945100Y-102534947D01*
X159963301Y-102475295D01*
X160180924Y-101974688D01*
X160453882Y-101536056D01*
X160780253Y-101161249D01*
X161158113Y-100852117D01*
X161585544Y-100610511D01*
X162060620Y-100438281D01*
X162086529Y-100431273D01*
X162320501Y-100385152D01*
X162604119Y-100353858D01*
X162910945Y-100338056D01*
X163214540Y-100338414D01*
G37*
X159417702Y-101251917D02*
X159399734Y-101334778D01*
X159371135Y-101476323D01*
X159336820Y-101652012D01*
X159320238Y-101738750D01*
X159245917Y-102130334D01*
X157791638Y-102130334D01*
X157659797Y-102585416D01*
X157551550Y-102974172D01*
X157439594Y-103403019D01*
X157331027Y-103843043D01*
X157232948Y-104265327D01*
X157152456Y-104640957D01*
X157140774Y-104699408D01*
X157101173Y-104903764D01*
X157077713Y-105046931D01*
X157070023Y-105150763D01*
X157077734Y-105237113D01*
X157100475Y-105327833D01*
X157128634Y-105416378D01*
X157233690Y-105633912D01*
X157380132Y-105779092D01*
X157562057Y-105849799D01*
X157773568Y-105843911D01*
X158008768Y-105759310D01*
X158038805Y-105743495D01*
X158209120Y-105631579D01*
X158330916Y-105497915D01*
X158425229Y-105316477D01*
X158461390Y-105220667D01*
X158513631Y-105098369D01*
X158570879Y-105037368D01*
X158642856Y-105016622D01*
X158722064Y-105014962D01*
X158742049Y-105052826D01*
X158729403Y-105122455D01*
X158682540Y-105274867D01*
X158607082Y-105471399D01*
X158515878Y-105682340D01*
X158421781Y-105877982D01*
X158337640Y-106028617D01*
X158337022Y-106029591D01*
X158122495Y-106311760D01*
X157869484Y-106552091D01*
X157594556Y-106737730D01*
X157314280Y-106855820D01*
X157251500Y-106871917D01*
X157015229Y-106900298D01*
X156819164Y-106864891D01*
X156643307Y-106761438D01*
X156613101Y-106736004D01*
X156480212Y-106602992D01*
X156385821Y-106462661D01*
X156323239Y-106296450D01*
X156285777Y-106085802D01*
X156266746Y-105812158D01*
X156265278Y-105771000D01*
X156264052Y-105534283D01*
X156277521Y-105294377D01*
X156307883Y-105040378D01*
X156357335Y-104761384D01*
X156428077Y-104446491D01*
X156522308Y-104084797D01*
X156642225Y-103665396D01*
X156784909Y-103193965D01*
X156871252Y-102913526D01*
X156948705Y-102660747D01*
X157013939Y-102446579D01*
X157063630Y-102281975D01*
X157094453Y-102177890D01*
X157103333Y-102145140D01*
X157063402Y-102140050D01*
X156953177Y-102137055D01*
X156787006Y-102136268D01*
X156579236Y-102137806D01*
X156443375Y-102139841D01*
X155783417Y-102151500D01*
X155573912Y-102850000D01*
X155351961Y-103579746D01*
X155148182Y-104228219D01*
X154962099Y-104796737D01*
X154793237Y-105286612D01*
X154641119Y-105699163D01*
X154505271Y-106035704D01*
X154385216Y-106297551D01*
X154280479Y-106486017D01*
X154235674Y-106550585D01*
X154052031Y-106742350D01*
X153848130Y-106872373D01*
X153637701Y-106935294D01*
X153434472Y-106925754D01*
X153349445Y-106896582D01*
X153190847Y-106782748D01*
X153097398Y-106618373D01*
X153073982Y-106451263D01*
X153085979Y-106326739D01*
X153124058Y-106208083D01*
X153196821Y-106081591D01*
X153312868Y-105933565D01*
X153480803Y-105750299D01*
X153574728Y-105653562D01*
X153731374Y-105489336D01*
X153879145Y-105326017D01*
X154000012Y-105184011D01*
X154068726Y-105094445D01*
X154122353Y-104997801D01*
X154192096Y-104838519D01*
X154279370Y-104612791D01*
X154385591Y-104316808D01*
X154512174Y-103946761D01*
X154650953Y-103528111D01*
X155102012Y-102151500D01*
X154718486Y-102139218D01*
X154527823Y-102135556D01*
X154391984Y-102142775D01*
X154281300Y-102166279D01*
X154166106Y-102211469D01*
X154070122Y-102257315D01*
X153859052Y-102383805D01*
X153679001Y-102548223D01*
X153602225Y-102637609D01*
X153461940Y-102793535D01*
X153354049Y-102875305D01*
X153302132Y-102889928D01*
X153205098Y-102892334D01*
X153320729Y-102691250D01*
X153608373Y-102234787D01*
X153898978Y-101860369D01*
X154191701Y-101569010D01*
X154360380Y-101439669D01*
X154449299Y-101380323D01*
X154533644Y-101329909D01*
X154620887Y-101287699D01*
X154718499Y-101252966D01*
X154833951Y-101224980D01*
X154974714Y-101203014D01*
X155148259Y-101186340D01*
X155362058Y-101174230D01*
X155623581Y-101165956D01*
X155940299Y-101160792D01*
X156319685Y-101158007D01*
X156769208Y-101156874D01*
X157264983Y-101156666D01*
X159440845Y-101156666D01*
X159417702Y-101251917D01*
G36*
X159417702Y-101251917D02*
G01*
X159399734Y-101334778D01*
X159371135Y-101476323D01*
X159336820Y-101652012D01*
X159320238Y-101738750D01*
X159245917Y-102130334D01*
X157791638Y-102130334D01*
X157659797Y-102585416D01*
X157551550Y-102974172D01*
X157439594Y-103403019D01*
X157331027Y-103843043D01*
X157232948Y-104265327D01*
X157152456Y-104640957D01*
X157140774Y-104699408D01*
X157101173Y-104903764D01*
X157077713Y-105046931D01*
X157070023Y-105150763D01*
X157077734Y-105237113D01*
X157100475Y-105327833D01*
X157128634Y-105416378D01*
X157233690Y-105633912D01*
X157380132Y-105779092D01*
X157562057Y-105849799D01*
X157773568Y-105843911D01*
X158008768Y-105759310D01*
X158038805Y-105743495D01*
X158209120Y-105631579D01*
X158330916Y-105497915D01*
X158425229Y-105316477D01*
X158461390Y-105220667D01*
X158513631Y-105098369D01*
X158570879Y-105037368D01*
X158642856Y-105016622D01*
X158722064Y-105014962D01*
X158742049Y-105052826D01*
X158729403Y-105122455D01*
X158682540Y-105274867D01*
X158607082Y-105471399D01*
X158515878Y-105682340D01*
X158421781Y-105877982D01*
X158337640Y-106028617D01*
X158337022Y-106029591D01*
X158122495Y-106311760D01*
X157869484Y-106552091D01*
X157594556Y-106737730D01*
X157314280Y-106855820D01*
X157251500Y-106871917D01*
X157015229Y-106900298D01*
X156819164Y-106864891D01*
X156643307Y-106761438D01*
X156613101Y-106736004D01*
X156480212Y-106602992D01*
X156385821Y-106462661D01*
X156323239Y-106296450D01*
X156285777Y-106085802D01*
X156266746Y-105812158D01*
X156265278Y-105771000D01*
X156264052Y-105534283D01*
X156277521Y-105294377D01*
X156307883Y-105040378D01*
X156357335Y-104761384D01*
X156428077Y-104446491D01*
X156522308Y-104084797D01*
X156642225Y-103665396D01*
X156784909Y-103193965D01*
X156871252Y-102913526D01*
X156948705Y-102660747D01*
X157013939Y-102446579D01*
X157063630Y-102281975D01*
X157094453Y-102177890D01*
X157103333Y-102145140D01*
X157063402Y-102140050D01*
X156953177Y-102137055D01*
X156787006Y-102136268D01*
X156579236Y-102137806D01*
X156443375Y-102139841D01*
X155783417Y-102151500D01*
X155573912Y-102850000D01*
X155351961Y-103579746D01*
X155148182Y-104228219D01*
X154962099Y-104796737D01*
X154793237Y-105286612D01*
X154641119Y-105699163D01*
X154505271Y-106035704D01*
X154385216Y-106297551D01*
X154280479Y-106486017D01*
X154235674Y-106550585D01*
X154052031Y-106742350D01*
X153848130Y-106872373D01*
X153637701Y-106935294D01*
X153434472Y-106925754D01*
X153349445Y-106896582D01*
X153190847Y-106782748D01*
X153097398Y-106618373D01*
X153073982Y-106451263D01*
X153085979Y-106326739D01*
X153124058Y-106208083D01*
X153196821Y-106081591D01*
X153312868Y-105933565D01*
X153480803Y-105750299D01*
X153574728Y-105653562D01*
X153731374Y-105489336D01*
X153879145Y-105326017D01*
X154000012Y-105184011D01*
X154068726Y-105094445D01*
X154122353Y-104997801D01*
X154192096Y-104838519D01*
X154279370Y-104612791D01*
X154385591Y-104316808D01*
X154512174Y-103946761D01*
X154650953Y-103528111D01*
X155102012Y-102151500D01*
X154718486Y-102139218D01*
X154527823Y-102135556D01*
X154391984Y-102142775D01*
X154281300Y-102166279D01*
X154166106Y-102211469D01*
X154070122Y-102257315D01*
X153859052Y-102383805D01*
X153679001Y-102548223D01*
X153602225Y-102637609D01*
X153461940Y-102793535D01*
X153354049Y-102875305D01*
X153302132Y-102889928D01*
X153205098Y-102892334D01*
X153320729Y-102691250D01*
X153608373Y-102234787D01*
X153898978Y-101860369D01*
X154191701Y-101569010D01*
X154360380Y-101439669D01*
X154449299Y-101380323D01*
X154533644Y-101329909D01*
X154620887Y-101287699D01*
X154718499Y-101252966D01*
X154833951Y-101224980D01*
X154974714Y-101203014D01*
X155148259Y-101186340D01*
X155362058Y-101174230D01*
X155623581Y-101165956D01*
X155940299Y-101160792D01*
X156319685Y-101158007D01*
X156769208Y-101156874D01*
X157264983Y-101156666D01*
X159440845Y-101156666D01*
X159417702Y-101251917D01*
G37*
D12*
%TO.C,J10*%
X133100000Y-133850000D02*
X134120000Y-133850000D01*
X133100000Y-138100000D02*
X133100000Y-133850000D01*
X134120000Y-133850000D02*
X134120000Y-135450000D01*
X134120000Y-135450000D02*
X135400000Y-135450000D01*
X134820000Y-141670000D02*
X139500000Y-141670000D01*
X135400000Y-135450000D02*
X135400000Y-132560000D01*
X140200000Y-133850000D02*
X140200000Y-135450000D01*
X140200000Y-135450000D02*
X138920000Y-135450000D01*
X141220000Y-133850000D02*
X140200000Y-133850000D01*
X141220000Y-138100000D02*
X141220000Y-133850000D01*
%TO.C,R12*%
X150465000Y-125060436D02*
X150465000Y-125514564D01*
X151935000Y-125060436D02*
X151935000Y-125514564D01*
%TO.C,Q2*%
X147540000Y-131300000D02*
X147540000Y-130650000D01*
X147540000Y-131300000D02*
X147540000Y-131950000D01*
X150660000Y-131300000D02*
X150660000Y-130650000D01*
X150660000Y-131300000D02*
X150660000Y-131950000D01*
X147590000Y-132462500D02*
X147260000Y-132702500D01*
X147260000Y-132222500D01*
X147590000Y-132462500D01*
G36*
X147590000Y-132462500D02*
G01*
X147260000Y-132702500D01*
X147260000Y-132222500D01*
X147590000Y-132462500D01*
G37*
%TO.C,R4*%
X158877064Y-77765000D02*
X158422936Y-77765000D01*
X158877064Y-79235000D02*
X158422936Y-79235000D01*
%TO.C,SW1*%
X130830000Y-121880000D02*
X130830000Y-122280000D01*
X130830000Y-123220000D02*
X130830000Y-125280000D01*
X130830000Y-126620000D02*
X130830000Y-126220000D01*
X135570000Y-121880000D02*
X130830000Y-121880000D01*
X135570000Y-121880000D02*
X135570000Y-122280000D01*
X135570000Y-123220000D02*
X135570000Y-125280000D01*
X135570000Y-126620000D02*
X130830000Y-126620000D01*
X135570000Y-126620000D02*
X135570000Y-126220000D01*
%TO.C,R11*%
X146965000Y-125514564D02*
X146965000Y-125060436D01*
X148435000Y-125514564D02*
X148435000Y-125060436D01*
%TO.C,J11*%
X121640000Y-138940000D02*
X122060000Y-138940000D01*
X121640000Y-140920000D02*
X121640000Y-138940000D01*
X121640000Y-143290000D02*
X121640000Y-142890000D01*
X123640000Y-138710000D02*
X123640000Y-138260000D01*
X124090000Y-138260000D02*
X123640000Y-138260000D01*
X129160000Y-138940000D02*
X128740000Y-138940000D01*
X129160000Y-140920000D02*
X129160000Y-138940000D01*
X129160000Y-142890000D02*
X129160000Y-143290000D01*
%TO.C,LED1*%
X153065000Y-73580000D02*
X153065000Y-75500000D01*
X153065000Y-75500000D02*
X155750000Y-75500000D01*
X155750000Y-73580000D02*
X153065000Y-73580000D01*
%TO.C,LED3*%
X153127500Y-81580000D02*
X153127500Y-83500000D01*
X153127500Y-83500000D02*
X155812500Y-83500000D01*
X155812500Y-81580000D02*
X153127500Y-81580000D01*
%TO.C,C12*%
X153765000Y-125511252D02*
X153765000Y-124988748D01*
X155235000Y-125511252D02*
X155235000Y-124988748D01*
%TO.C,J9*%
X110430000Y-69790000D02*
X111760000Y-69790000D01*
X110430000Y-71120000D02*
X110430000Y-69790000D01*
X110430000Y-72390000D02*
X110430000Y-110550000D01*
X110430000Y-72390000D02*
X113090000Y-72390000D01*
X110430000Y-110550000D02*
X113090000Y-110550000D01*
X113090000Y-72390000D02*
X113090000Y-110550000D01*
%TO.C,Y1*%
X142850000Y-108875000D02*
X141750000Y-108875000D01*
X142875000Y-111050000D02*
X141775000Y-111050000D01*
X144350000Y-110850000D02*
X144350000Y-109050000D01*
%TO.C,U4*%
X160362500Y-130940000D02*
X159562500Y-130940000D01*
X160362500Y-130940000D02*
X161162500Y-130940000D01*
X160362500Y-134060000D02*
X159562500Y-134060000D01*
X160362500Y-134060000D02*
X161162500Y-134060000D01*
X159062500Y-130990000D02*
X158822500Y-130660000D01*
X159302500Y-130660000D01*
X159062500Y-130990000D01*
G36*
X159062500Y-130990000D02*
G01*
X158822500Y-130660000D01*
X159302500Y-130660000D01*
X159062500Y-130990000D01*
G37*
%TO.C,R8*%
X120960436Y-132365000D02*
X121414564Y-132365000D01*
X120960436Y-133835000D02*
X121414564Y-133835000D01*
%TO.C,R10*%
X155265000Y-132727064D02*
X155265000Y-132272936D01*
X156735000Y-132727064D02*
X156735000Y-132272936D01*
%TO.C,J2*%
X155410000Y-64960000D02*
X155410000Y-66110000D01*
X155410000Y-66110000D02*
X156460000Y-66110000D01*
X156460000Y-66110000D02*
X156460000Y-67100000D01*
X156580000Y-62990000D02*
X160460000Y-62990000D01*
X161630000Y-64960000D02*
X161630000Y-66110000D01*
X161630000Y-66110000D02*
X160580000Y-66110000D01*
%TO.C,C7*%
X144615000Y-103736252D02*
X144615000Y-103213748D01*
X146085000Y-103736252D02*
X146085000Y-103213748D01*
%TO.C,J6*%
X118050000Y-115510000D02*
X119380000Y-115510000D01*
X118050000Y-116840000D02*
X118050000Y-115510000D01*
X118050000Y-118110000D02*
X118050000Y-130870000D01*
X118050000Y-118110000D02*
X120710000Y-118110000D01*
X118050000Y-130870000D02*
X120710000Y-130870000D01*
X120710000Y-118110000D02*
X120710000Y-130870000D01*
%TO.C,J5*%
X110430000Y-115510000D02*
X111760000Y-115510000D01*
X110430000Y-116840000D02*
X110430000Y-115510000D01*
X110430000Y-118110000D02*
X110430000Y-130870000D01*
X110430000Y-118110000D02*
X113090000Y-118110000D01*
X110430000Y-130870000D02*
X113090000Y-130870000D01*
X113090000Y-118110000D02*
X113090000Y-130870000D01*
%TO.C,J3*%
X146910000Y-64960000D02*
X146910000Y-66110000D01*
X146910000Y-66110000D02*
X147960000Y-66110000D01*
X147960000Y-66110000D02*
X147960000Y-67100000D01*
X148080000Y-62990000D02*
X151960000Y-62990000D01*
X153130000Y-64960000D02*
X153130000Y-66110000D01*
X153130000Y-66110000D02*
X152080000Y-66110000D01*
%TO.C,C3*%
X140565000Y-113561252D02*
X140565000Y-113038748D01*
X142035000Y-113561252D02*
X142035000Y-113038748D01*
%TO.C,R9*%
X164365000Y-125860436D02*
X164365000Y-126314564D01*
X165835000Y-125860436D02*
X165835000Y-126314564D01*
%TO.C,D1*%
X152000000Y-133550000D02*
X152000000Y-129540000D01*
X152000000Y-133550000D02*
X154000000Y-133550000D01*
X154000000Y-133550000D02*
X154000000Y-129540000D01*
%TO.C,R3*%
X159127064Y-73865000D02*
X158672936Y-73865000D01*
X159127064Y-75335000D02*
X158672936Y-75335000D01*
%TO.C,C8*%
X119265000Y-81761252D02*
X119265000Y-81238748D01*
X120735000Y-81761252D02*
X120735000Y-81238748D01*
D14*
%TO.C,SW2*%
X154260000Y-138500000D02*
X165860000Y-138500000D01*
X154260000Y-142500000D02*
X154260000Y-138500000D01*
X165860000Y-138500000D02*
X165860000Y-142500000D01*
X165860000Y-142500000D02*
X154260000Y-142500000D01*
D15*
X166860000Y-140500000D02*
X166860000Y-140500000D01*
X167060000Y-140500000D02*
X167060000Y-140500000D01*
X166860000Y-140500000D02*
G75*
G02*
X167060000Y-140500000I100000J0D01*
G01*
X167060000Y-140500000D02*
G75*
G02*
X166860000Y-140500000I-100000J0D01*
G01*
D12*
%TO.C,R5*%
X158877064Y-81765000D02*
X158422936Y-81765000D01*
X158877064Y-83235000D02*
X158422936Y-83235000D01*
%TO.C,LED4*%
X153127500Y-85580000D02*
X153127500Y-87500000D01*
X153127500Y-87500000D02*
X155812500Y-87500000D01*
X155812500Y-85580000D02*
X153127500Y-85580000D01*
%TO.C,U3*%
X161100000Y-124440000D02*
X160300000Y-124440000D01*
X161100000Y-124440000D02*
X161900000Y-124440000D01*
X161100000Y-127560000D02*
X160300000Y-127560000D01*
X161100000Y-127560000D02*
X161900000Y-127560000D01*
X159800000Y-124490000D02*
X159560000Y-124160000D01*
X160040000Y-124160000D01*
X159800000Y-124490000D01*
G36*
X159800000Y-124490000D02*
G01*
X159560000Y-124160000D01*
X160040000Y-124160000D01*
X159800000Y-124490000D01*
G37*
%TO.C,J12*%
X148570000Y-136395000D02*
X149900000Y-136395000D01*
X148570000Y-137725000D02*
X148570000Y-136395000D01*
X148570000Y-138995000D02*
X148570000Y-141595000D01*
X148570000Y-138995000D02*
X151230000Y-138995000D01*
X148570000Y-141595000D02*
X151230000Y-141595000D01*
X151230000Y-138995000D02*
X151230000Y-141595000D01*
%TO.C,U1*%
X131952500Y-100890000D02*
X131952500Y-101340000D01*
X131952500Y-108110000D02*
X131952500Y-107660000D01*
X132402500Y-100890000D02*
X131952500Y-100890000D01*
X132402500Y-108110000D02*
X131952500Y-108110000D01*
X138722500Y-100890000D02*
X139172500Y-100890000D01*
X138722500Y-108110000D02*
X139172500Y-108110000D01*
X139172500Y-100890000D02*
X139172500Y-101340000D01*
X139172500Y-108110000D02*
X139172500Y-107660000D01*
X140102500Y-108130000D02*
X139422500Y-108130000D01*
X139762500Y-107660000D01*
X140102500Y-108130000D01*
G36*
X140102500Y-108130000D02*
G01*
X139422500Y-108130000D01*
X139762500Y-107660000D01*
X140102500Y-108130000D01*
G37*
%TO.C,J7*%
X173930000Y-128270000D02*
X173930000Y-115510000D01*
X176590000Y-115510000D02*
X173930000Y-115510000D01*
X176590000Y-128270000D02*
X173930000Y-128270000D01*
X176590000Y-128270000D02*
X176590000Y-115510000D01*
X176590000Y-129540000D02*
X176590000Y-130870000D01*
X176590000Y-130870000D02*
X175260000Y-130870000D01*
%TO.C,C2*%
X137827500Y-112188748D02*
X137827500Y-112711252D01*
X139297500Y-112188748D02*
X139297500Y-112711252D01*
%TO.C,C13*%
X163765000Y-132238748D02*
X163765000Y-132761252D01*
X165235000Y-132238748D02*
X165235000Y-132761252D01*
%TO.C,C5*%
X127965000Y-107961252D02*
X127965000Y-107438748D01*
X129435000Y-107961252D02*
X129435000Y-107438748D01*
%TO.C,R6*%
X158877064Y-85765000D02*
X158422936Y-85765000D01*
X158877064Y-87235000D02*
X158422936Y-87235000D01*
%TO.C,C11*%
X158388748Y-89865000D02*
X158911252Y-89865000D01*
X158388748Y-91335000D02*
X158911252Y-91335000D01*
%TO.C,C6*%
X147115000Y-103736252D02*
X147115000Y-103213748D01*
X148585000Y-103736252D02*
X148585000Y-103213748D01*
%TO.C,C9*%
X137038748Y-128805000D02*
X137561252Y-128805000D01*
X137038748Y-130275000D02*
X137561252Y-130275000D01*
%TO.C,R7*%
X145025000Y-135997936D02*
X145025000Y-136452064D01*
X146495000Y-135997936D02*
X146495000Y-136452064D01*
%TO.C,C4*%
X134827500Y-112238748D02*
X134827500Y-112761252D01*
X136297500Y-112238748D02*
X136297500Y-112761252D01*
%TO.C,C1*%
X142965000Y-113611252D02*
X142965000Y-113088748D01*
X144435000Y-113611252D02*
X144435000Y-113088748D01*
%TO.C,J1*%
X173495000Y-105920000D02*
X174625000Y-105920000D01*
X173495000Y-106680000D02*
X173495000Y-105920000D01*
X173495000Y-107440000D02*
X173495000Y-112455000D01*
X173495000Y-107440000D02*
X174061529Y-107440000D01*
X173495000Y-112455000D02*
X174317470Y-112455000D01*
X174932530Y-112455000D02*
X175587470Y-112455000D01*
X175188471Y-107440000D02*
X175331529Y-107440000D01*
X175385000Y-105985000D02*
X175587470Y-105985000D01*
X175385000Y-106116529D02*
X175385000Y-105985000D01*
X175385000Y-107386529D02*
X175385000Y-107243471D01*
X176202530Y-105985000D02*
X177025000Y-105985000D01*
X176202530Y-112455000D02*
X177025000Y-112455000D01*
X177025000Y-105985000D02*
X177025000Y-112455000D01*
%TO.C,R2*%
X149460436Y-78305000D02*
X149914564Y-78305000D01*
X149460436Y-79775000D02*
X149914564Y-79775000D01*
%TO.C,Q1*%
X148102500Y-74540000D02*
X148102500Y-73890000D01*
X148102500Y-74540000D02*
X148102500Y-75190000D01*
X151222500Y-74540000D02*
X151222500Y-73890000D01*
X151222500Y-74540000D02*
X151222500Y-75190000D01*
X148152500Y-75702500D02*
X147822500Y-75942500D01*
X147822500Y-75462500D01*
X148152500Y-75702500D01*
G36*
X148152500Y-75702500D02*
G01*
X147822500Y-75942500D01*
X147822500Y-75462500D01*
X148152500Y-75702500D01*
G37*
%TO.C,J8*%
X173930000Y-69790000D02*
X175260000Y-69790000D01*
X173930000Y-71120000D02*
X173930000Y-69790000D01*
X173930000Y-72390000D02*
X173930000Y-100390000D01*
X173930000Y-72390000D02*
X176590000Y-72390000D01*
X173930000Y-100390000D02*
X176590000Y-100390000D01*
X176590000Y-72390000D02*
X176590000Y-100390000D01*
%TO.C,R1*%
X131827500Y-112360436D02*
X131827500Y-112814564D01*
X133297500Y-112360436D02*
X133297500Y-112814564D01*
%TO.C,J4*%
X166310000Y-62170000D02*
X167640000Y-62170000D01*
X166310000Y-63500000D02*
X166310000Y-62170000D01*
X166310000Y-64770000D02*
X166310000Y-72450000D01*
X166310000Y-64770000D02*
X168970000Y-64770000D01*
X166310000Y-72450000D02*
X168970000Y-72450000D01*
X168970000Y-64770000D02*
X168970000Y-72450000D01*
%TO.C,C10*%
X121461252Y-134965000D02*
X120938748Y-134965000D01*
X121461252Y-136435000D02*
X120938748Y-136435000D01*
%TO.C,LED2*%
X153127500Y-77460000D02*
X153127500Y-79380000D01*
X153127500Y-79380000D02*
X155812500Y-79380000D01*
X155812500Y-77460000D02*
X153127500Y-77460000D01*
%TO.C,FB1*%
X149940000Y-102962878D02*
X149940000Y-103762122D01*
X151060000Y-102962878D02*
X151060000Y-103762122D01*
%TO.C,LED5*%
X144840000Y-139062500D02*
X144840000Y-141747500D01*
X144840000Y-141747500D02*
X146760000Y-141747500D01*
X146760000Y-141747500D02*
X146760000Y-139062500D01*
%TD*%
%LPC*%
D16*
%TO.C,LED6*%
X153835000Y-90090000D03*
X153835000Y-91190000D03*
X155665000Y-91190000D03*
X155665000Y-90090000D03*
%TD*%
D17*
%TO.C,U2*%
X138930000Y-90000000D03*
X138930000Y-88000000D03*
X138930000Y-86000000D03*
X138930000Y-84000000D03*
X138930000Y-82000000D03*
X138930000Y-80000000D03*
X138930000Y-78000000D03*
X138930000Y-76000000D03*
X123880000Y-76000000D03*
X123880000Y-78000000D03*
X123880000Y-80000000D03*
X123880000Y-82000000D03*
X123880000Y-84000000D03*
X123880000Y-86000000D03*
X123880000Y-88000000D03*
X123880000Y-90000000D03*
%TD*%
D18*
%TO.C,J10*%
X136160000Y-134310000D03*
X138160000Y-134310000D03*
D19*
X133810000Y-140060000D03*
X140510000Y-140060000D03*
%TD*%
D20*
%TO.C,R12*%
X151200000Y-124375000D03*
X151200000Y-126200000D03*
%TD*%
D21*
%TO.C,Q2*%
X148150000Y-132237500D03*
X150050000Y-132237500D03*
X149100000Y-130362500D03*
%TD*%
D22*
%TO.C,R4*%
X159562500Y-78500000D03*
X157737500Y-78500000D03*
%TD*%
D23*
%TO.C,SW1*%
X136800000Y-125750000D03*
X129600000Y-125750000D03*
X136800000Y-122750000D03*
X129600000Y-122750000D03*
%TD*%
D24*
%TO.C,R11*%
X147700000Y-126200000D03*
X147700000Y-124375000D03*
%TD*%
D25*
%TO.C,J11*%
X124100000Y-139200000D03*
X124750000Y-139200000D03*
X125400000Y-139200000D03*
X126050000Y-139200000D03*
X126700000Y-139200000D03*
D26*
X121900000Y-141900000D03*
D27*
X122500000Y-141900000D03*
D28*
X122900000Y-139200000D03*
D29*
X124400000Y-141900000D03*
X126400000Y-141900000D03*
D28*
X127900000Y-139200000D03*
D27*
X128300000Y-141900000D03*
D26*
X128900000Y-141900000D03*
%TD*%
D30*
%TO.C,LED1*%
X153812500Y-74540000D03*
X155687500Y-74540000D03*
%TD*%
%TO.C,LED3*%
X153875000Y-82540000D03*
X155750000Y-82540000D03*
%TD*%
D31*
%TO.C,C12*%
X154500000Y-126200000D03*
X154500000Y-124300000D03*
%TD*%
D32*
%TO.C,H2*%
X174000000Y-63500000D03*
%TD*%
D33*
%TO.C,J9*%
X111760000Y-71120000D03*
D34*
X111760000Y-73660000D03*
X111760000Y-76200000D03*
X111760000Y-78740000D03*
X111760000Y-81280000D03*
X111760000Y-83820000D03*
X111760000Y-86360000D03*
X111760000Y-88900000D03*
X111760000Y-91440000D03*
X111760000Y-93980000D03*
X111760000Y-96520000D03*
X111760000Y-99060000D03*
X111760000Y-101600000D03*
X111760000Y-104140000D03*
X111760000Y-106680000D03*
X111760000Y-109220000D03*
%TD*%
D35*
%TO.C,Y1*%
X143550000Y-109950000D03*
X141050000Y-109950000D03*
%TD*%
D36*
%TO.C,U4*%
X159225000Y-131550000D03*
X159225000Y-132500000D03*
X159225000Y-133450000D03*
X161500000Y-133450000D03*
X161500000Y-131550000D03*
%TD*%
D37*
%TO.C,R8*%
X120275000Y-133100000D03*
X122100000Y-133100000D03*
%TD*%
D24*
%TO.C,R10*%
X156000000Y-133412500D03*
X156000000Y-131587500D03*
%TD*%
D38*
%TO.C,J2*%
X157020000Y-66325000D03*
X158020000Y-66325000D03*
X159020000Y-66325000D03*
X160020000Y-66325000D03*
D39*
X155720000Y-63800000D03*
X161320000Y-63800000D03*
%TD*%
D31*
%TO.C,C7*%
X145350000Y-104425000D03*
X145350000Y-102525000D03*
%TD*%
D33*
%TO.C,J6*%
X119380000Y-116840000D03*
D34*
X119380000Y-119380000D03*
X119380000Y-121920000D03*
X119380000Y-124460000D03*
X119380000Y-127000000D03*
X119380000Y-129540000D03*
%TD*%
D33*
%TO.C,J5*%
X111760000Y-116840000D03*
D34*
X111760000Y-119380000D03*
X111760000Y-121920000D03*
X111760000Y-124460000D03*
X111760000Y-127000000D03*
X111760000Y-129540000D03*
%TD*%
D38*
%TO.C,J3*%
X148520000Y-66325000D03*
X149520000Y-66325000D03*
X150520000Y-66325000D03*
X151520000Y-66325000D03*
D39*
X147220000Y-63800000D03*
X152820000Y-63800000D03*
%TD*%
D31*
%TO.C,C3*%
X141300000Y-114250000D03*
X141300000Y-112350000D03*
%TD*%
D20*
%TO.C,R9*%
X165100000Y-125175000D03*
X165100000Y-127000000D03*
%TD*%
D40*
%TO.C,D1*%
X153000000Y-132840000D03*
X153000000Y-129540000D03*
%TD*%
D22*
%TO.C,R3*%
X159812500Y-74600000D03*
X157987500Y-74600000D03*
%TD*%
D31*
%TO.C,C8*%
X120000000Y-82450000D03*
X120000000Y-80550000D03*
%TD*%
D41*
%TO.C,SW2*%
X162560000Y-140500000D03*
X160060000Y-140500000D03*
X157560000Y-140500000D03*
%TD*%
D22*
%TO.C,R5*%
X159562500Y-82500000D03*
X157737500Y-82500000D03*
%TD*%
D30*
%TO.C,LED4*%
X153875000Y-86540000D03*
X155750000Y-86540000D03*
%TD*%
D36*
%TO.C,U3*%
X159962500Y-125050000D03*
X159962500Y-126000000D03*
X159962500Y-126950000D03*
X162237500Y-126950000D03*
X162237500Y-125050000D03*
%TD*%
D33*
%TO.C,J12*%
X149900000Y-137725000D03*
D34*
X149900000Y-140265000D03*
%TD*%
D32*
%TO.C,H4*%
X174000000Y-138500000D03*
%TD*%
D42*
%TO.C,U1*%
X139725000Y-107250000D03*
X139725000Y-106750000D03*
X139725000Y-106250000D03*
X139725000Y-105750000D03*
X139725000Y-105250000D03*
X139725000Y-104750000D03*
X139725000Y-104250000D03*
X139725000Y-103750000D03*
X139725000Y-103250000D03*
X139725000Y-102750000D03*
X139725000Y-102250000D03*
X139725000Y-101750000D03*
D43*
X138312500Y-100337500D03*
X137812500Y-100337500D03*
X137312500Y-100337500D03*
X136812500Y-100337500D03*
X136312500Y-100337500D03*
X135812500Y-100337500D03*
X135312500Y-100337500D03*
X134812500Y-100337500D03*
X134312500Y-100337500D03*
X133812500Y-100337500D03*
X133312500Y-100337500D03*
X132812500Y-100337500D03*
D42*
X131400000Y-101750000D03*
X131400000Y-102250000D03*
X131400000Y-102750000D03*
X131400000Y-103250000D03*
X131400000Y-103750000D03*
X131400000Y-104250000D03*
X131400000Y-104750000D03*
X131400000Y-105250000D03*
X131400000Y-105750000D03*
X131400000Y-106250000D03*
X131400000Y-106750000D03*
X131400000Y-107250000D03*
D43*
X132812500Y-108662500D03*
X133312500Y-108662500D03*
X133812500Y-108662500D03*
X134312500Y-108662500D03*
X134812500Y-108662500D03*
X135312500Y-108662500D03*
X135812500Y-108662500D03*
X136312500Y-108662500D03*
X136812500Y-108662500D03*
X137312500Y-108662500D03*
X137812500Y-108662500D03*
X138312500Y-108662500D03*
%TD*%
D33*
%TO.C,J7*%
X175260000Y-129540000D03*
D34*
X175260000Y-127000000D03*
X175260000Y-124460000D03*
X175260000Y-121920000D03*
X175260000Y-119380000D03*
X175260000Y-116840000D03*
%TD*%
D44*
%TO.C,C2*%
X138562500Y-111500000D03*
X138562500Y-113400000D03*
%TD*%
%TO.C,C13*%
X164500000Y-131550000D03*
X164500000Y-133450000D03*
%TD*%
D31*
%TO.C,C5*%
X128700000Y-108650000D03*
X128700000Y-106750000D03*
%TD*%
D22*
%TO.C,R6*%
X159562500Y-86500000D03*
X157737500Y-86500000D03*
%TD*%
D45*
%TO.C,C11*%
X157700000Y-90600000D03*
X159600000Y-90600000D03*
%TD*%
D31*
%TO.C,C6*%
X147850000Y-104425000D03*
X147850000Y-102525000D03*
%TD*%
D45*
%TO.C,C9*%
X136350000Y-129540000D03*
X138250000Y-129540000D03*
%TD*%
D20*
%TO.C,R7*%
X145760000Y-135312500D03*
X145760000Y-137137500D03*
%TD*%
D44*
%TO.C,C4*%
X135562500Y-111550000D03*
X135562500Y-113450000D03*
%TD*%
D32*
%TO.C,H3*%
X114000000Y-138500000D03*
%TD*%
D31*
%TO.C,C1*%
X143700000Y-114300000D03*
X143700000Y-112400000D03*
%TD*%
D32*
%TO.C,H1*%
X114000000Y-63500000D03*
%TD*%
D46*
%TO.C,J1*%
X174625000Y-106680000D03*
D47*
X175895000Y-106680000D03*
X174625000Y-107950000D03*
X175895000Y-107950000D03*
X174625000Y-109220000D03*
X175895000Y-109220000D03*
X174625000Y-110490000D03*
X175895000Y-110490000D03*
X174625000Y-111760000D03*
X175895000Y-111760000D03*
%TD*%
D37*
%TO.C,R2*%
X148775000Y-79040000D03*
X150600000Y-79040000D03*
%TD*%
D21*
%TO.C,Q1*%
X148712500Y-75477500D03*
X150612500Y-75477500D03*
X149662500Y-73602500D03*
%TD*%
D33*
%TO.C,J8*%
X175260000Y-71120000D03*
D34*
X175260000Y-73660000D03*
X175260000Y-76200000D03*
X175260000Y-78740000D03*
X175260000Y-81280000D03*
X175260000Y-83820000D03*
X175260000Y-86360000D03*
X175260000Y-88900000D03*
X175260000Y-91440000D03*
X175260000Y-93980000D03*
X175260000Y-96520000D03*
X175260000Y-99060000D03*
%TD*%
D20*
%TO.C,R1*%
X132562500Y-111675000D03*
X132562500Y-113500000D03*
%TD*%
D33*
%TO.C,J4*%
X167640000Y-63500000D03*
D34*
X167640000Y-66040000D03*
X167640000Y-68580000D03*
X167640000Y-71120000D03*
%TD*%
D48*
%TO.C,C10*%
X122150000Y-135700000D03*
X120250000Y-135700000D03*
%TD*%
D30*
%TO.C,LED2*%
X153875000Y-78420000D03*
X155750000Y-78420000D03*
%TD*%
D49*
%TO.C,FB1*%
X150500000Y-102300000D03*
X150500000Y-104425000D03*
%TD*%
D50*
%TO.C,LED5*%
X145800000Y-141000000D03*
X145800000Y-139125000D03*
%TD*%
%LPD*%
M02*
