%TF.GenerationSoftware,KiCad,Pcbnew,8.0.3*%
%TF.CreationDate,2024-06-19T01:19:57-05:00*%
%TF.ProjectId,bicep,62696365-702e-46b6-9963-61645f706362,rev?*%
%TF.SameCoordinates,Original*%
%TF.FileFunction,Soldermask,Bot*%
%TF.FilePolarity,Negative*%
%FSLAX46Y46*%
G04 Gerber Fmt 4.6, Leading zero omitted, Abs format (unit mm)*
G04 Created by KiCad (PCBNEW 8.0.3) date 2024-06-19 01:19:57*
%MOMM*%
%LPD*%
G01*
G04 APERTURE LIST*
%ADD10O,0.890000X1.550000*%
%ADD11O,1.250000X0.950000*%
%ADD12C,5.700000*%
%ADD13R,1.700000X1.700000*%
%ADD14O,1.700000X1.700000*%
%ADD15C,1.500000*%
%ADD16R,1.000000X1.000000*%
%ADD17O,1.000000X1.000000*%
G04 APERTURE END LIST*
D10*
%TO.C,J11*%
X121900000Y-141900000D03*
D11*
X122900000Y-139200000D03*
X127900000Y-139200000D03*
D10*
X128900000Y-141900000D03*
%TD*%
D12*
%TO.C,H2*%
X174000000Y-63500000D03*
%TD*%
D13*
%TO.C,J9*%
X111760000Y-71120000D03*
D14*
X111760000Y-73660000D03*
X111760000Y-76200000D03*
X111760000Y-78740000D03*
X111760000Y-81280000D03*
X111760000Y-83820000D03*
X111760000Y-86360000D03*
X111760000Y-88900000D03*
X111760000Y-91440000D03*
X111760000Y-93980000D03*
X111760000Y-96520000D03*
X111760000Y-99060000D03*
X111760000Y-101600000D03*
X111760000Y-104140000D03*
X111760000Y-106680000D03*
X111760000Y-109220000D03*
%TD*%
D13*
%TO.C,J6*%
X119380000Y-116840000D03*
D14*
X119380000Y-119380000D03*
X119380000Y-121920000D03*
X119380000Y-124460000D03*
X119380000Y-127000000D03*
X119380000Y-129540000D03*
%TD*%
D13*
%TO.C,J5*%
X111760000Y-116840000D03*
D14*
X111760000Y-119380000D03*
X111760000Y-121920000D03*
X111760000Y-124460000D03*
X111760000Y-127000000D03*
X111760000Y-129540000D03*
%TD*%
D15*
%TO.C,SW2*%
X162560000Y-140500000D03*
X160060000Y-140500000D03*
X157560000Y-140500000D03*
%TD*%
D13*
%TO.C,J12*%
X149900000Y-137725000D03*
D14*
X149900000Y-140265000D03*
%TD*%
D12*
%TO.C,H4*%
X174000000Y-138500000D03*
%TD*%
D13*
%TO.C,J7*%
X175260000Y-129540000D03*
D14*
X175260000Y-127000000D03*
X175260000Y-124460000D03*
X175260000Y-121920000D03*
X175260000Y-119380000D03*
X175260000Y-116840000D03*
%TD*%
D12*
%TO.C,H3*%
X114000000Y-138500000D03*
%TD*%
%TO.C,H1*%
X114000000Y-63500000D03*
%TD*%
D16*
%TO.C,J1*%
X174625000Y-106680000D03*
D17*
X175895000Y-106680000D03*
X174625000Y-107950000D03*
X175895000Y-107950000D03*
X174625000Y-109220000D03*
X175895000Y-109220000D03*
X174625000Y-110490000D03*
X175895000Y-110490000D03*
X174625000Y-111760000D03*
X175895000Y-111760000D03*
%TD*%
D13*
%TO.C,J8*%
X175260000Y-71120000D03*
D14*
X175260000Y-73660000D03*
X175260000Y-76200000D03*
X175260000Y-78740000D03*
X175260000Y-81280000D03*
X175260000Y-83820000D03*
X175260000Y-86360000D03*
X175260000Y-88900000D03*
X175260000Y-91440000D03*
X175260000Y-93980000D03*
X175260000Y-96520000D03*
X175260000Y-99060000D03*
%TD*%
D13*
%TO.C,J4*%
X167640000Y-63500000D03*
D14*
X167640000Y-66040000D03*
X167640000Y-68580000D03*
X167640000Y-71120000D03*
%TD*%
M02*
