%TF.GenerationSoftware,KiCad,Pcbnew,8.0.3*%
%TF.CreationDate,2024-06-19T01:19:57-05:00*%
%TF.ProjectId,bicep,62696365-702e-46b6-9963-61645f706362,rev?*%
%TF.SameCoordinates,Original*%
%TF.FileFunction,Legend,Bot*%
%TF.FilePolarity,Positive*%
%FSLAX46Y46*%
G04 Gerber Fmt 4.6, Leading zero omitted, Abs format (unit mm)*
G04 Created by KiCad (PCBNEW 8.0.3) date 2024-06-19 01:19:57*
%MOMM*%
%LPD*%
G01*
G04 APERTURE LIST*
%ADD10C,0.150000*%
%ADD11C,0.010000*%
%ADD12O,0.890000X1.550000*%
%ADD13O,1.250000X0.950000*%
%ADD14C,5.700000*%
%ADD15R,1.700000X1.700000*%
%ADD16O,1.700000X1.700000*%
%ADD17C,1.500000*%
%ADD18R,1.000000X1.000000*%
%ADD19O,1.000000X1.000000*%
G04 APERTURE END LIST*
D10*
X152229887Y-100646009D02*
X152087030Y-100693628D01*
X152087030Y-100693628D02*
X152039411Y-100741247D01*
X152039411Y-100741247D02*
X151991792Y-100836485D01*
X151991792Y-100836485D02*
X151991792Y-100979342D01*
X151991792Y-100979342D02*
X152039411Y-101074580D01*
X152039411Y-101074580D02*
X152087030Y-101122200D01*
X152087030Y-101122200D02*
X152182268Y-101169819D01*
X152182268Y-101169819D02*
X152563220Y-101169819D01*
X152563220Y-101169819D02*
X152563220Y-100169819D01*
X152563220Y-100169819D02*
X152229887Y-100169819D01*
X152229887Y-100169819D02*
X152134649Y-100217438D01*
X152134649Y-100217438D02*
X152087030Y-100265057D01*
X152087030Y-100265057D02*
X152039411Y-100360295D01*
X152039411Y-100360295D02*
X152039411Y-100455533D01*
X152039411Y-100455533D02*
X152087030Y-100550771D01*
X152087030Y-100550771D02*
X152134649Y-100598390D01*
X152134649Y-100598390D02*
X152229887Y-100646009D01*
X152229887Y-100646009D02*
X152563220Y-100646009D01*
X151563220Y-101169819D02*
X151563220Y-100503152D01*
X151563220Y-100169819D02*
X151610839Y-100217438D01*
X151610839Y-100217438D02*
X151563220Y-100265057D01*
X151563220Y-100265057D02*
X151515601Y-100217438D01*
X151515601Y-100217438D02*
X151563220Y-100169819D01*
X151563220Y-100169819D02*
X151563220Y-100265057D01*
X150658459Y-101122200D02*
X150753697Y-101169819D01*
X150753697Y-101169819D02*
X150944173Y-101169819D01*
X150944173Y-101169819D02*
X151039411Y-101122200D01*
X151039411Y-101122200D02*
X151087030Y-101074580D01*
X151087030Y-101074580D02*
X151134649Y-100979342D01*
X151134649Y-100979342D02*
X151134649Y-100693628D01*
X151134649Y-100693628D02*
X151087030Y-100598390D01*
X151087030Y-100598390D02*
X151039411Y-100550771D01*
X151039411Y-100550771D02*
X150944173Y-100503152D01*
X150944173Y-100503152D02*
X150753697Y-100503152D01*
X150753697Y-100503152D02*
X150658459Y-100550771D01*
X149848935Y-101122200D02*
X149944173Y-101169819D01*
X149944173Y-101169819D02*
X150134649Y-101169819D01*
X150134649Y-101169819D02*
X150229887Y-101122200D01*
X150229887Y-101122200D02*
X150277506Y-101026961D01*
X150277506Y-101026961D02*
X150277506Y-100646009D01*
X150277506Y-100646009D02*
X150229887Y-100550771D01*
X150229887Y-100550771D02*
X150134649Y-100503152D01*
X150134649Y-100503152D02*
X149944173Y-100503152D01*
X149944173Y-100503152D02*
X149848935Y-100550771D01*
X149848935Y-100550771D02*
X149801316Y-100646009D01*
X149801316Y-100646009D02*
X149801316Y-100741247D01*
X149801316Y-100741247D02*
X150277506Y-100836485D01*
X149372744Y-100503152D02*
X149372744Y-101503152D01*
X149372744Y-100550771D02*
X149277506Y-100503152D01*
X149277506Y-100503152D02*
X149087030Y-100503152D01*
X149087030Y-100503152D02*
X148991792Y-100550771D01*
X148991792Y-100550771D02*
X148944173Y-100598390D01*
X148944173Y-100598390D02*
X148896554Y-100693628D01*
X148896554Y-100693628D02*
X148896554Y-100979342D01*
X148896554Y-100979342D02*
X148944173Y-101074580D01*
X148944173Y-101074580D02*
X148991792Y-101122200D01*
X148991792Y-101122200D02*
X149087030Y-101169819D01*
X149087030Y-101169819D02*
X149277506Y-101169819D01*
X149277506Y-101169819D02*
X149372744Y-101122200D01*
X147801315Y-100503152D02*
X147563220Y-101169819D01*
X147563220Y-101169819D02*
X147325125Y-100503152D01*
X146420363Y-101169819D02*
X146991791Y-101169819D01*
X146706077Y-101169819D02*
X146706077Y-100169819D01*
X146706077Y-100169819D02*
X146801315Y-100312676D01*
X146801315Y-100312676D02*
X146896553Y-100407914D01*
X146896553Y-100407914D02*
X146991791Y-100455533D01*
X145991791Y-101074580D02*
X145944172Y-101122200D01*
X145944172Y-101122200D02*
X145991791Y-101169819D01*
X145991791Y-101169819D02*
X146039410Y-101122200D01*
X146039410Y-101122200D02*
X145991791Y-101074580D01*
X145991791Y-101074580D02*
X145991791Y-101169819D01*
X145325125Y-100169819D02*
X145229887Y-100169819D01*
X145229887Y-100169819D02*
X145134649Y-100217438D01*
X145134649Y-100217438D02*
X145087030Y-100265057D01*
X145087030Y-100265057D02*
X145039411Y-100360295D01*
X145039411Y-100360295D02*
X144991792Y-100550771D01*
X144991792Y-100550771D02*
X144991792Y-100788866D01*
X144991792Y-100788866D02*
X145039411Y-100979342D01*
X145039411Y-100979342D02*
X145087030Y-101074580D01*
X145087030Y-101074580D02*
X145134649Y-101122200D01*
X145134649Y-101122200D02*
X145229887Y-101169819D01*
X145229887Y-101169819D02*
X145325125Y-101169819D01*
X145325125Y-101169819D02*
X145420363Y-101122200D01*
X145420363Y-101122200D02*
X145467982Y-101074580D01*
X145467982Y-101074580D02*
X145515601Y-100979342D01*
X145515601Y-100979342D02*
X145563220Y-100788866D01*
X145563220Y-100788866D02*
X145563220Y-100550771D01*
X145563220Y-100550771D02*
X145515601Y-100360295D01*
X145515601Y-100360295D02*
X145467982Y-100265057D01*
X145467982Y-100265057D02*
X145420363Y-100217438D01*
X145420363Y-100217438D02*
X145325125Y-100169819D01*
X143372744Y-100169819D02*
X143563220Y-100169819D01*
X143563220Y-100169819D02*
X143658458Y-100217438D01*
X143658458Y-100217438D02*
X143706077Y-100265057D01*
X143706077Y-100265057D02*
X143801315Y-100407914D01*
X143801315Y-100407914D02*
X143848934Y-100598390D01*
X143848934Y-100598390D02*
X143848934Y-100979342D01*
X143848934Y-100979342D02*
X143801315Y-101074580D01*
X143801315Y-101074580D02*
X143753696Y-101122200D01*
X143753696Y-101122200D02*
X143658458Y-101169819D01*
X143658458Y-101169819D02*
X143467982Y-101169819D01*
X143467982Y-101169819D02*
X143372744Y-101122200D01*
X143372744Y-101122200D02*
X143325125Y-101074580D01*
X143325125Y-101074580D02*
X143277506Y-100979342D01*
X143277506Y-100979342D02*
X143277506Y-100741247D01*
X143277506Y-100741247D02*
X143325125Y-100646009D01*
X143325125Y-100646009D02*
X143372744Y-100598390D01*
X143372744Y-100598390D02*
X143467982Y-100550771D01*
X143467982Y-100550771D02*
X143658458Y-100550771D01*
X143658458Y-100550771D02*
X143753696Y-100598390D01*
X143753696Y-100598390D02*
X143801315Y-100646009D01*
X143801315Y-100646009D02*
X143848934Y-100741247D01*
X142134649Y-100122200D02*
X142991791Y-101407914D01*
X141277506Y-101169819D02*
X141848934Y-101169819D01*
X141563220Y-101169819D02*
X141563220Y-100169819D01*
X141563220Y-100169819D02*
X141658458Y-100312676D01*
X141658458Y-100312676D02*
X141753696Y-100407914D01*
X141753696Y-100407914D02*
X141848934Y-100455533D01*
X140706077Y-100598390D02*
X140801315Y-100550771D01*
X140801315Y-100550771D02*
X140848934Y-100503152D01*
X140848934Y-100503152D02*
X140896553Y-100407914D01*
X140896553Y-100407914D02*
X140896553Y-100360295D01*
X140896553Y-100360295D02*
X140848934Y-100265057D01*
X140848934Y-100265057D02*
X140801315Y-100217438D01*
X140801315Y-100217438D02*
X140706077Y-100169819D01*
X140706077Y-100169819D02*
X140515601Y-100169819D01*
X140515601Y-100169819D02*
X140420363Y-100217438D01*
X140420363Y-100217438D02*
X140372744Y-100265057D01*
X140372744Y-100265057D02*
X140325125Y-100360295D01*
X140325125Y-100360295D02*
X140325125Y-100407914D01*
X140325125Y-100407914D02*
X140372744Y-100503152D01*
X140372744Y-100503152D02*
X140420363Y-100550771D01*
X140420363Y-100550771D02*
X140515601Y-100598390D01*
X140515601Y-100598390D02*
X140706077Y-100598390D01*
X140706077Y-100598390D02*
X140801315Y-100646009D01*
X140801315Y-100646009D02*
X140848934Y-100693628D01*
X140848934Y-100693628D02*
X140896553Y-100788866D01*
X140896553Y-100788866D02*
X140896553Y-100979342D01*
X140896553Y-100979342D02*
X140848934Y-101074580D01*
X140848934Y-101074580D02*
X140801315Y-101122200D01*
X140801315Y-101122200D02*
X140706077Y-101169819D01*
X140706077Y-101169819D02*
X140515601Y-101169819D01*
X140515601Y-101169819D02*
X140420363Y-101122200D01*
X140420363Y-101122200D02*
X140372744Y-101074580D01*
X140372744Y-101074580D02*
X140325125Y-100979342D01*
X140325125Y-100979342D02*
X140325125Y-100788866D01*
X140325125Y-100788866D02*
X140372744Y-100693628D01*
X140372744Y-100693628D02*
X140420363Y-100646009D01*
X140420363Y-100646009D02*
X140515601Y-100598390D01*
X139182268Y-100122200D02*
X140039410Y-101407914D01*
X138896553Y-100265057D02*
X138848934Y-100217438D01*
X138848934Y-100217438D02*
X138753696Y-100169819D01*
X138753696Y-100169819D02*
X138515601Y-100169819D01*
X138515601Y-100169819D02*
X138420363Y-100217438D01*
X138420363Y-100217438D02*
X138372744Y-100265057D01*
X138372744Y-100265057D02*
X138325125Y-100360295D01*
X138325125Y-100360295D02*
X138325125Y-100455533D01*
X138325125Y-100455533D02*
X138372744Y-100598390D01*
X138372744Y-100598390D02*
X138944172Y-101169819D01*
X138944172Y-101169819D02*
X138325125Y-101169819D01*
X137706077Y-100169819D02*
X137610839Y-100169819D01*
X137610839Y-100169819D02*
X137515601Y-100217438D01*
X137515601Y-100217438D02*
X137467982Y-100265057D01*
X137467982Y-100265057D02*
X137420363Y-100360295D01*
X137420363Y-100360295D02*
X137372744Y-100550771D01*
X137372744Y-100550771D02*
X137372744Y-100788866D01*
X137372744Y-100788866D02*
X137420363Y-100979342D01*
X137420363Y-100979342D02*
X137467982Y-101074580D01*
X137467982Y-101074580D02*
X137515601Y-101122200D01*
X137515601Y-101122200D02*
X137610839Y-101169819D01*
X137610839Y-101169819D02*
X137706077Y-101169819D01*
X137706077Y-101169819D02*
X137801315Y-101122200D01*
X137801315Y-101122200D02*
X137848934Y-101074580D01*
X137848934Y-101074580D02*
X137896553Y-100979342D01*
X137896553Y-100979342D02*
X137944172Y-100788866D01*
X137944172Y-100788866D02*
X137944172Y-100550771D01*
X137944172Y-100550771D02*
X137896553Y-100360295D01*
X137896553Y-100360295D02*
X137848934Y-100265057D01*
X137848934Y-100265057D02*
X137801315Y-100217438D01*
X137801315Y-100217438D02*
X137706077Y-100169819D01*
X136991791Y-100265057D02*
X136944172Y-100217438D01*
X136944172Y-100217438D02*
X136848934Y-100169819D01*
X136848934Y-100169819D02*
X136610839Y-100169819D01*
X136610839Y-100169819D02*
X136515601Y-100217438D01*
X136515601Y-100217438D02*
X136467982Y-100265057D01*
X136467982Y-100265057D02*
X136420363Y-100360295D01*
X136420363Y-100360295D02*
X136420363Y-100455533D01*
X136420363Y-100455533D02*
X136467982Y-100598390D01*
X136467982Y-100598390D02*
X137039410Y-101169819D01*
X137039410Y-101169819D02*
X136420363Y-101169819D01*
X135563220Y-100503152D02*
X135563220Y-101169819D01*
X135801315Y-100122200D02*
X136039410Y-100836485D01*
X136039410Y-100836485D02*
X135420363Y-100836485D01*
X133706077Y-101169819D02*
X134039410Y-100693628D01*
X134277505Y-101169819D02*
X134277505Y-100169819D01*
X134277505Y-100169819D02*
X133896553Y-100169819D01*
X133896553Y-100169819D02*
X133801315Y-100217438D01*
X133801315Y-100217438D02*
X133753696Y-100265057D01*
X133753696Y-100265057D02*
X133706077Y-100360295D01*
X133706077Y-100360295D02*
X133706077Y-100503152D01*
X133706077Y-100503152D02*
X133753696Y-100598390D01*
X133753696Y-100598390D02*
X133801315Y-100646009D01*
X133801315Y-100646009D02*
X133896553Y-100693628D01*
X133896553Y-100693628D02*
X134277505Y-100693628D01*
X132991791Y-100169819D02*
X132991791Y-100884104D01*
X132991791Y-100884104D02*
X133039410Y-101026961D01*
X133039410Y-101026961D02*
X133134648Y-101122200D01*
X133134648Y-101122200D02*
X133277505Y-101169819D01*
X133277505Y-101169819D02*
X133372743Y-101169819D01*
X132563219Y-100884104D02*
X132087029Y-100884104D01*
X132658457Y-101169819D02*
X132325124Y-100169819D01*
X132325124Y-100169819D02*
X131991791Y-101169819D01*
D11*
%TO.C,G\u002A\u002A\u002A*%
X139324002Y-90120867D02*
X139539297Y-91032855D01*
X139751590Y-91936575D01*
X139957194Y-92816397D01*
X140152422Y-93656691D01*
X140333584Y-94441826D01*
X140496993Y-95156172D01*
X140638961Y-95784099D01*
X140755801Y-96309976D01*
X140843823Y-96718175D01*
X140899342Y-96993063D01*
X140918667Y-97119012D01*
X140867458Y-97146660D01*
X140666890Y-97170624D01*
X140333318Y-97181263D01*
X139886815Y-97177439D01*
X138854963Y-97153667D01*
X138277108Y-94656000D01*
X138223184Y-94423185D01*
X138080601Y-93810174D01*
X137950877Y-93256103D01*
X137839034Y-92782190D01*
X137750095Y-92409649D01*
X137689083Y-92159697D01*
X137661020Y-92053550D01*
X137642922Y-92023566D01*
X137543279Y-92014726D01*
X137344561Y-92110786D01*
X137075817Y-92245959D01*
X136536480Y-92445071D01*
X135881149Y-92620347D01*
X135142261Y-92762194D01*
X135117725Y-92766034D01*
X134099161Y-92843445D01*
X133112261Y-92757784D01*
X132166624Y-92510686D01*
X131271848Y-92103783D01*
X130571401Y-91651376D01*
X129757154Y-90953815D01*
X129036423Y-90133709D01*
X128417933Y-89206611D01*
X127910411Y-88188079D01*
X127522582Y-87093666D01*
X127263172Y-85938930D01*
X127140906Y-84739424D01*
X127137984Y-84653085D01*
X129320446Y-84653085D01*
X129348027Y-85342413D01*
X129488006Y-86349412D01*
X129738539Y-87296137D01*
X130090893Y-88168060D01*
X130536335Y-88950655D01*
X131066131Y-89629397D01*
X131671549Y-90189757D01*
X132343855Y-90617210D01*
X133074316Y-90897229D01*
X133075503Y-90897544D01*
X133351050Y-90944920D01*
X133738582Y-90979670D01*
X134182088Y-91000194D01*
X134625557Y-91004893D01*
X135012976Y-90992170D01*
X135288334Y-90960425D01*
X135768547Y-90846454D01*
X136253405Y-90700556D01*
X136665369Y-90544049D01*
X136981013Y-90387158D01*
X137176909Y-90240109D01*
X137229631Y-90113127D01*
X137222340Y-90081774D01*
X137180262Y-89899537D01*
X137107299Y-89582840D01*
X137008399Y-89153184D01*
X136888511Y-88632070D01*
X136752581Y-88040998D01*
X136605560Y-87401467D01*
X136562866Y-87216951D01*
X136404007Y-86549955D01*
X136245477Y-85912169D01*
X136094477Y-85330829D01*
X135958208Y-84833170D01*
X135843869Y-84446429D01*
X135758659Y-84197842D01*
X135625270Y-83883883D01*
X135240507Y-83163603D01*
X134793706Y-82581634D01*
X134268315Y-82118827D01*
X133647780Y-81756035D01*
X133535802Y-81703603D01*
X133302593Y-81604714D01*
X133091628Y-81542234D01*
X132855022Y-81507872D01*
X132544886Y-81493336D01*
X132113334Y-81490333D01*
X131984446Y-81490494D01*
X131588895Y-81495938D01*
X131307086Y-81514431D01*
X131095075Y-81553130D01*
X130908916Y-81619194D01*
X130704662Y-81719781D01*
X130549826Y-81807384D01*
X130090456Y-82164140D01*
X129743805Y-82614430D01*
X129503902Y-83170913D01*
X129364774Y-83846246D01*
X129320446Y-84653085D01*
X127137984Y-84653085D01*
X127133729Y-84527337D01*
X127144717Y-83759877D01*
X127225276Y-83094011D01*
X127383132Y-82484269D01*
X127626015Y-81885181D01*
X127815953Y-81540636D01*
X128276734Y-80962977D01*
X128863016Y-80475791D01*
X129555611Y-80093625D01*
X130335334Y-79831025D01*
X130337424Y-79830520D01*
X130773066Y-79761186D01*
X131320920Y-79726827D01*
X131928111Y-79726113D01*
X132541762Y-79757715D01*
X133108998Y-79820303D01*
X133576943Y-79912547D01*
X133628759Y-79926561D01*
X134578913Y-80271023D01*
X135433773Y-80754235D01*
X136189494Y-81372498D01*
X136842235Y-82122112D01*
X137388151Y-82999376D01*
X137823398Y-84000590D01*
X137859799Y-84119893D01*
X137936148Y-84402935D01*
X138042688Y-84818380D01*
X138175730Y-85350599D01*
X138331586Y-85983961D01*
X138506568Y-86702837D01*
X138696989Y-87491595D01*
X138899160Y-88334607D01*
X139109394Y-89216240D01*
X139322166Y-90113127D01*
X139324002Y-90120867D01*
G36*
X139324002Y-90120867D02*
G01*
X139539297Y-91032855D01*
X139751590Y-91936575D01*
X139957194Y-92816397D01*
X140152422Y-93656691D01*
X140333584Y-94441826D01*
X140496993Y-95156172D01*
X140638961Y-95784099D01*
X140755801Y-96309976D01*
X140843823Y-96718175D01*
X140899342Y-96993063D01*
X140918667Y-97119012D01*
X140867458Y-97146660D01*
X140666890Y-97170624D01*
X140333318Y-97181263D01*
X139886815Y-97177439D01*
X138854963Y-97153667D01*
X138277108Y-94656000D01*
X138223184Y-94423185D01*
X138080601Y-93810174D01*
X137950877Y-93256103D01*
X137839034Y-92782190D01*
X137750095Y-92409649D01*
X137689083Y-92159697D01*
X137661020Y-92053550D01*
X137642922Y-92023566D01*
X137543279Y-92014726D01*
X137344561Y-92110786D01*
X137075817Y-92245959D01*
X136536480Y-92445071D01*
X135881149Y-92620347D01*
X135142261Y-92762194D01*
X135117725Y-92766034D01*
X134099161Y-92843445D01*
X133112261Y-92757784D01*
X132166624Y-92510686D01*
X131271848Y-92103783D01*
X130571401Y-91651376D01*
X129757154Y-90953815D01*
X129036423Y-90133709D01*
X128417933Y-89206611D01*
X127910411Y-88188079D01*
X127522582Y-87093666D01*
X127263172Y-85938930D01*
X127140906Y-84739424D01*
X127137984Y-84653085D01*
X129320446Y-84653085D01*
X129348027Y-85342413D01*
X129488006Y-86349412D01*
X129738539Y-87296137D01*
X130090893Y-88168060D01*
X130536335Y-88950655D01*
X131066131Y-89629397D01*
X131671549Y-90189757D01*
X132343855Y-90617210D01*
X133074316Y-90897229D01*
X133075503Y-90897544D01*
X133351050Y-90944920D01*
X133738582Y-90979670D01*
X134182088Y-91000194D01*
X134625557Y-91004893D01*
X135012976Y-90992170D01*
X135288334Y-90960425D01*
X135768547Y-90846454D01*
X136253405Y-90700556D01*
X136665369Y-90544049D01*
X136981013Y-90387158D01*
X137176909Y-90240109D01*
X137229631Y-90113127D01*
X137222340Y-90081774D01*
X137180262Y-89899537D01*
X137107299Y-89582840D01*
X137008399Y-89153184D01*
X136888511Y-88632070D01*
X136752581Y-88040998D01*
X136605560Y-87401467D01*
X136562866Y-87216951D01*
X136404007Y-86549955D01*
X136245477Y-85912169D01*
X136094477Y-85330829D01*
X135958208Y-84833170D01*
X135843869Y-84446429D01*
X135758659Y-84197842D01*
X135625270Y-83883883D01*
X135240507Y-83163603D01*
X134793706Y-82581634D01*
X134268315Y-82118827D01*
X133647780Y-81756035D01*
X133535802Y-81703603D01*
X133302593Y-81604714D01*
X133091628Y-81542234D01*
X132855022Y-81507872D01*
X132544886Y-81493336D01*
X132113334Y-81490333D01*
X131984446Y-81490494D01*
X131588895Y-81495938D01*
X131307086Y-81514431D01*
X131095075Y-81553130D01*
X130908916Y-81619194D01*
X130704662Y-81719781D01*
X130549826Y-81807384D01*
X130090456Y-82164140D01*
X129743805Y-82614430D01*
X129503902Y-83170913D01*
X129364774Y-83846246D01*
X129320446Y-84653085D01*
X127137984Y-84653085D01*
X127133729Y-84527337D01*
X127144717Y-83759877D01*
X127225276Y-83094011D01*
X127383132Y-82484269D01*
X127626015Y-81885181D01*
X127815953Y-81540636D01*
X128276734Y-80962977D01*
X128863016Y-80475791D01*
X129555611Y-80093625D01*
X130335334Y-79831025D01*
X130337424Y-79830520D01*
X130773066Y-79761186D01*
X131320920Y-79726827D01*
X131928111Y-79726113D01*
X132541762Y-79757715D01*
X133108998Y-79820303D01*
X133576943Y-79912547D01*
X133628759Y-79926561D01*
X134578913Y-80271023D01*
X135433773Y-80754235D01*
X136189494Y-81372498D01*
X136842235Y-82122112D01*
X137388151Y-82999376D01*
X137823398Y-84000590D01*
X137859799Y-84119893D01*
X137936148Y-84402935D01*
X138042688Y-84818380D01*
X138175730Y-85350599D01*
X138331586Y-85983961D01*
X138506568Y-86702837D01*
X138696989Y-87491595D01*
X138899160Y-88334607D01*
X139109394Y-89216240D01*
X139322166Y-90113127D01*
X139324002Y-90120867D01*
G37*
X144211583Y-81363749D02*
X145110630Y-81366013D01*
X145869401Y-81371583D01*
X146502838Y-81381913D01*
X147025884Y-81398460D01*
X147453482Y-81422679D01*
X147800572Y-81456027D01*
X148082098Y-81499959D01*
X148313002Y-81555931D01*
X148508225Y-81625399D01*
X148682712Y-81709819D01*
X148851403Y-81810647D01*
X149029240Y-81929338D01*
X149366597Y-82188021D01*
X149952043Y-82770737D01*
X150533254Y-83519575D01*
X151108541Y-84432500D01*
X151339805Y-84834667D01*
X151145736Y-84829857D01*
X151041901Y-84800609D01*
X150826121Y-84637071D01*
X150545550Y-84325218D01*
X150391999Y-84146446D01*
X150031897Y-83817609D01*
X149609756Y-83564629D01*
X149417788Y-83472939D01*
X149187399Y-83382557D01*
X148966032Y-83335550D01*
X148694353Y-83321112D01*
X148313028Y-83328435D01*
X147545976Y-83353000D01*
X148448095Y-86106223D01*
X148725652Y-86943522D01*
X148978819Y-87683616D01*
X149191261Y-88275582D01*
X149365808Y-88727038D01*
X149505294Y-89045602D01*
X149612548Y-89238890D01*
X149749975Y-89418021D01*
X149991710Y-89702033D01*
X150287252Y-90028671D01*
X150600544Y-90357125D01*
X150788395Y-90550598D01*
X151124263Y-90917129D01*
X151356358Y-91213183D01*
X151501885Y-91466165D01*
X151578043Y-91703479D01*
X151602036Y-91952527D01*
X151555204Y-92286746D01*
X151368305Y-92615496D01*
X151051110Y-92843163D01*
X150881057Y-92901508D01*
X150474598Y-92920589D01*
X150053740Y-92794747D01*
X149645939Y-92534700D01*
X149278653Y-92151169D01*
X149189043Y-92022035D01*
X148979569Y-91645101D01*
X148739458Y-91121408D01*
X148467762Y-90448327D01*
X148163526Y-89623225D01*
X147825802Y-88643473D01*
X147453636Y-87506439D01*
X147046078Y-86209491D01*
X146602175Y-84750000D01*
X146183166Y-83353000D01*
X144863250Y-83329683D01*
X144591529Y-83325611D01*
X144175989Y-83322536D01*
X143843645Y-83324110D01*
X143623195Y-83330101D01*
X143543334Y-83340280D01*
X143561095Y-83405781D01*
X143622741Y-83613950D01*
X143722123Y-83943157D01*
X143852591Y-84371493D01*
X144007495Y-84877053D01*
X144180182Y-85437930D01*
X144465549Y-86380791D01*
X144705384Y-87219593D01*
X144893845Y-87942983D01*
X145035330Y-88572768D01*
X145134235Y-89130756D01*
X145194958Y-89638753D01*
X145221895Y-90118565D01*
X145219444Y-90592000D01*
X145216507Y-90674316D01*
X145178445Y-91221604D01*
X145103521Y-91642900D01*
X144978358Y-91975322D01*
X144789576Y-92255985D01*
X144523799Y-92522007D01*
X144463385Y-92572876D01*
X144111673Y-92779782D01*
X143719543Y-92850596D01*
X143247000Y-92793835D01*
X143121440Y-92761639D01*
X142560887Y-92525461D01*
X142011031Y-92154183D01*
X141505009Y-91673520D01*
X141075956Y-91109181D01*
X141074721Y-91107234D01*
X140906438Y-90805965D01*
X140718243Y-90414680D01*
X140535836Y-89992797D01*
X140384920Y-89599734D01*
X140291194Y-89294910D01*
X140265903Y-89155652D01*
X140305872Y-89079924D01*
X140464288Y-89083244D01*
X140608242Y-89124736D01*
X140722737Y-89246739D01*
X140827221Y-89491333D01*
X140899542Y-89682955D01*
X141088168Y-90045830D01*
X141331760Y-90313158D01*
X141672390Y-90536989D01*
X141732464Y-90568620D01*
X142202863Y-90737823D01*
X142625886Y-90749598D01*
X142989737Y-90608185D01*
X143282619Y-90317824D01*
X143492732Y-89882755D01*
X143549050Y-89705666D01*
X143594532Y-89524226D01*
X143609953Y-89351527D01*
X143594573Y-89143863D01*
X143547654Y-88857528D01*
X143468453Y-88448816D01*
X143445087Y-88331914D01*
X143284105Y-87580654D01*
X143087947Y-86736085D01*
X142870812Y-85856038D01*
X142646899Y-84998344D01*
X142430405Y-84220833D01*
X142166724Y-83310667D01*
X139258166Y-83310667D01*
X139109524Y-82527500D01*
X139076360Y-82354023D01*
X139007730Y-82002646D01*
X138950533Y-81719555D01*
X138914596Y-81553833D01*
X138868310Y-81363333D01*
X143220034Y-81363333D01*
X144211583Y-81363749D01*
G36*
X144211583Y-81363749D02*
G01*
X145110630Y-81366013D01*
X145869401Y-81371583D01*
X146502838Y-81381913D01*
X147025884Y-81398460D01*
X147453482Y-81422679D01*
X147800572Y-81456027D01*
X148082098Y-81499959D01*
X148313002Y-81555931D01*
X148508225Y-81625399D01*
X148682712Y-81709819D01*
X148851403Y-81810647D01*
X149029240Y-81929338D01*
X149366597Y-82188021D01*
X149952043Y-82770737D01*
X150533254Y-83519575D01*
X151108541Y-84432500D01*
X151339805Y-84834667D01*
X151145736Y-84829857D01*
X151041901Y-84800609D01*
X150826121Y-84637071D01*
X150545550Y-84325218D01*
X150391999Y-84146446D01*
X150031897Y-83817609D01*
X149609756Y-83564629D01*
X149417788Y-83472939D01*
X149187399Y-83382557D01*
X148966032Y-83335550D01*
X148694353Y-83321112D01*
X148313028Y-83328435D01*
X147545976Y-83353000D01*
X148448095Y-86106223D01*
X148725652Y-86943522D01*
X148978819Y-87683616D01*
X149191261Y-88275582D01*
X149365808Y-88727038D01*
X149505294Y-89045602D01*
X149612548Y-89238890D01*
X149749975Y-89418021D01*
X149991710Y-89702033D01*
X150287252Y-90028671D01*
X150600544Y-90357125D01*
X150788395Y-90550598D01*
X151124263Y-90917129D01*
X151356358Y-91213183D01*
X151501885Y-91466165D01*
X151578043Y-91703479D01*
X151602036Y-91952527D01*
X151555204Y-92286746D01*
X151368305Y-92615496D01*
X151051110Y-92843163D01*
X150881057Y-92901508D01*
X150474598Y-92920589D01*
X150053740Y-92794747D01*
X149645939Y-92534700D01*
X149278653Y-92151169D01*
X149189043Y-92022035D01*
X148979569Y-91645101D01*
X148739458Y-91121408D01*
X148467762Y-90448327D01*
X148163526Y-89623225D01*
X147825802Y-88643473D01*
X147453636Y-87506439D01*
X147046078Y-86209491D01*
X146602175Y-84750000D01*
X146183166Y-83353000D01*
X144863250Y-83329683D01*
X144591529Y-83325611D01*
X144175989Y-83322536D01*
X143843645Y-83324110D01*
X143623195Y-83330101D01*
X143543334Y-83340280D01*
X143561095Y-83405781D01*
X143622741Y-83613950D01*
X143722123Y-83943157D01*
X143852591Y-84371493D01*
X144007495Y-84877053D01*
X144180182Y-85437930D01*
X144465549Y-86380791D01*
X144705384Y-87219593D01*
X144893845Y-87942983D01*
X145035330Y-88572768D01*
X145134235Y-89130756D01*
X145194958Y-89638753D01*
X145221895Y-90118565D01*
X145219444Y-90592000D01*
X145216507Y-90674316D01*
X145178445Y-91221604D01*
X145103521Y-91642900D01*
X144978358Y-91975322D01*
X144789576Y-92255985D01*
X144523799Y-92522007D01*
X144463385Y-92572876D01*
X144111673Y-92779782D01*
X143719543Y-92850596D01*
X143247000Y-92793835D01*
X143121440Y-92761639D01*
X142560887Y-92525461D01*
X142011031Y-92154183D01*
X141505009Y-91673520D01*
X141075956Y-91109181D01*
X141074721Y-91107234D01*
X140906438Y-90805965D01*
X140718243Y-90414680D01*
X140535836Y-89992797D01*
X140384920Y-89599734D01*
X140291194Y-89294910D01*
X140265903Y-89155652D01*
X140305872Y-89079924D01*
X140464288Y-89083244D01*
X140608242Y-89124736D01*
X140722737Y-89246739D01*
X140827221Y-89491333D01*
X140899542Y-89682955D01*
X141088168Y-90045830D01*
X141331760Y-90313158D01*
X141672390Y-90536989D01*
X141732464Y-90568620D01*
X142202863Y-90737823D01*
X142625886Y-90749598D01*
X142989737Y-90608185D01*
X143282619Y-90317824D01*
X143492732Y-89882755D01*
X143549050Y-89705666D01*
X143594532Y-89524226D01*
X143609953Y-89351527D01*
X143594573Y-89143863D01*
X143547654Y-88857528D01*
X143468453Y-88448816D01*
X143445087Y-88331914D01*
X143284105Y-87580654D01*
X143087947Y-86736085D01*
X142870812Y-85856038D01*
X142646899Y-84998344D01*
X142430405Y-84220833D01*
X142166724Y-83310667D01*
X139258166Y-83310667D01*
X139109524Y-82527500D01*
X139076360Y-82354023D01*
X139007730Y-82002646D01*
X138950533Y-81719555D01*
X138914596Y-81553833D01*
X138868310Y-81363333D01*
X143220034Y-81363333D01*
X144211583Y-81363749D01*
G37*
%TD*%
%LPC*%
D12*
%TO.C,J11*%
X121900000Y-141900000D03*
D13*
X122900000Y-139200000D03*
X127900000Y-139200000D03*
D12*
X128900000Y-141900000D03*
%TD*%
D14*
%TO.C,H2*%
X174000000Y-63500000D03*
%TD*%
D15*
%TO.C,J9*%
X111760000Y-71120000D03*
D16*
X111760000Y-73660000D03*
X111760000Y-76200000D03*
X111760000Y-78740000D03*
X111760000Y-81280000D03*
X111760000Y-83820000D03*
X111760000Y-86360000D03*
X111760000Y-88900000D03*
X111760000Y-91440000D03*
X111760000Y-93980000D03*
X111760000Y-96520000D03*
X111760000Y-99060000D03*
X111760000Y-101600000D03*
X111760000Y-104140000D03*
X111760000Y-106680000D03*
X111760000Y-109220000D03*
%TD*%
D15*
%TO.C,J6*%
X119380000Y-116840000D03*
D16*
X119380000Y-119380000D03*
X119380000Y-121920000D03*
X119380000Y-124460000D03*
X119380000Y-127000000D03*
X119380000Y-129540000D03*
%TD*%
D15*
%TO.C,J5*%
X111760000Y-116840000D03*
D16*
X111760000Y-119380000D03*
X111760000Y-121920000D03*
X111760000Y-124460000D03*
X111760000Y-127000000D03*
X111760000Y-129540000D03*
%TD*%
D17*
%TO.C,SW2*%
X162560000Y-140500000D03*
X160060000Y-140500000D03*
X157560000Y-140500000D03*
%TD*%
D15*
%TO.C,J12*%
X149900000Y-137725000D03*
D16*
X149900000Y-140265000D03*
%TD*%
D14*
%TO.C,H4*%
X174000000Y-138500000D03*
%TD*%
D15*
%TO.C,J7*%
X175260000Y-129540000D03*
D16*
X175260000Y-127000000D03*
X175260000Y-124460000D03*
X175260000Y-121920000D03*
X175260000Y-119380000D03*
X175260000Y-116840000D03*
%TD*%
D14*
%TO.C,H3*%
X114000000Y-138500000D03*
%TD*%
%TO.C,H1*%
X114000000Y-63500000D03*
%TD*%
D18*
%TO.C,J1*%
X174625000Y-106680000D03*
D19*
X175895000Y-106680000D03*
X174625000Y-107950000D03*
X175895000Y-107950000D03*
X174625000Y-109220000D03*
X175895000Y-109220000D03*
X174625000Y-110490000D03*
X175895000Y-110490000D03*
X174625000Y-111760000D03*
X175895000Y-111760000D03*
%TD*%
D15*
%TO.C,J8*%
X175260000Y-71120000D03*
D16*
X175260000Y-73660000D03*
X175260000Y-76200000D03*
X175260000Y-78740000D03*
X175260000Y-81280000D03*
X175260000Y-83820000D03*
X175260000Y-86360000D03*
X175260000Y-88900000D03*
X175260000Y-91440000D03*
X175260000Y-93980000D03*
X175260000Y-96520000D03*
X175260000Y-99060000D03*
%TD*%
D15*
%TO.C,J4*%
X167640000Y-63500000D03*
D16*
X167640000Y-66040000D03*
X167640000Y-68580000D03*
X167640000Y-71120000D03*
%TD*%
%LPD*%
M02*
